<svg id="Lager_1" data-name="Lager 1" xmlns="http://www.w3.org/2000/svg" viewBox="0 0 1922 1080.5"><defs><style>.cls-1{fill:#a200de;}.cls-2{fill:#c25517;}</style></defs><path class="cls-1" d="M1920,186.09S1823.63,364.86,1559,540c-400,264.7-876,244.38-876,244.38S374,755.75-1,1080.5V867.4S204.49,618,669,589.27c307-19,567-108.44,567-108.44S1538,346.11,1920,0Z" transform="translate(1)"/><path class="cls-2" d="M1921,104.05l-1-46s-21.92,37.52-197,174.15c-160,124.86-303,170.87-569,268.35-121,44.33-157.19,36.8-487,97.48C280,669.22,158,821.46,158,821.46S121,880.11-1,1004.38L0,1080S109,989,204,867.47C278,772.82,438.65,699,669,647.31c166-37.24,295.77-19.22,569-129.24C1374,463.31,1651,415.11,1921,104.05Z" transform="translate(1)"/></svg>