<svg xmlns="http://www.w3.org/2000/svg" xmlns:xlink="http://www.w3.org/1999/xlink" width="305.628" height="258.739" viewBox="0 0 305.628 258.739">
  <defs>
    <linearGradient id="linear-gradient" x1="-0.001" y1="0.499" x2="1" y2="0.499" gradientUnits="objectBoundingBox">
      <stop offset="0" stop-opacity="0"/>
      <stop offset="0.99"/>
    </linearGradient>
    <linearGradient id="linear-gradient-2" x1="0" y1="0.5" x2="1" y2="0.5" xlink:href="#linear-gradient"/>
    <linearGradient id="linear-gradient-3" x1="-0.005" y1="0.498" x2="0.993" y2="0.498" gradientUnits="objectBoundingBox">
      <stop offset="0" stop-color="#ecc4d7"/>
      <stop offset="0.42" stop-color="#efd4d1"/>
      <stop offset="1" stop-color="#f2eac9"/>
    </linearGradient>
    <linearGradient id="linear-gradient-4" x1="-0.002" y1="0.499" x2="0.999" y2="0.499" xlink:href="#linear-gradient-3"/>
    <linearGradient id="linear-gradient-5" x1="0" y1="0.501" x2="0.999" y2="0.501" xlink:href="#linear-gradient-3"/>
    <linearGradient id="linear-gradient-6" x1="0" y1="0.501" x2="1" y2="0.501" xlink:href="#linear-gradient-3"/>
    <linearGradient id="linear-gradient-7" x1="0.994" y1="-1.196" x2="-1.899" y2="8.947" xlink:href="#linear-gradient"/>
    <linearGradient id="linear-gradient-8" x1="0.773" y1="-0.17" x2="-0.955" y2="4.085" xlink:href="#linear-gradient"/>
  </defs>
  <g id="code_development__1_" data-name="code_development_ (1)" transform="translate(0.002)">
    <path id="Path_645" data-name="Path 645" d="M22.109,196.282c-9.723,11.612-20.019,24.869-19.024,39.99.792,11.988,8.711,22.772,8.591,34.765S3.335,294.274,5.122,306.19c1.99,13.525,16.021,21.89,29.313,25.1,28.062,6.78,57.31-.6,86.087-2.86,22.092-1.734,44.3-.411,66.414.912l62.136,3.694c8.341.5,16.98.959,24.779-2.032,7.15-2.735,12.923-8.127,17.874-13.912,10.85-12.607,18.994-29.022,16.45-45.454-4.105-26.489-33.925-44.173-35.635-70.9-.56-8.746,1.877-18.386-2.9-25.733a23.873,23.873,0,0,0-7.6-6.87c-18.16-11.38-40.9-11.654-62.327-11.57l-104.909.393c-11.576.042-31.065-3.777-41.235,2.109C48.431,162.042,22.109,190.64,22.109,196.282Z" transform="translate(-3.02 -75.353)" fill="#a58e80" opacity="0.18" style="isolation: isolate"/>
    <path id="Path_646" data-name="Path 646" d="M462.286,358.13c.447,5.035-.661,9.33-2.526,11.66a14.267,14.267,0,0,1-7.537,4.558c-2.884.775-12.244,3.122-15.223,3.289,2.9-.9,14.037-4.266,15.491-6.929a34.388,34.388,0,0,0,1.6-3.771c.983-2.473,2.27-14.043,4.171-15.944C460.469,348.8,462.071,355.687,462.286,358.13Z" transform="translate(-178.435 -154.085)" opacity="0.1" fill="url(#linear-gradient)"/>
    <path id="Path_647" data-name="Path 647" d="M202.33,365.994a718.413,718.413,0,0,0-79.992-2.764c-7.579.167-16.468-.173-20.817-6.381,4.856-3.783,11.457-4.171,17.606-4.379,60.432-2.157,116.485-3.986,176.917-6.143-2.771-2.008,0-6.911-.56-10.289,5.958-1.823,18.565,1.007,22.48,5.148-3.664-2.627-11.481-3.575-14.818-2.21s-6.041,4.367-4.224,7.471c.536.918,1.4,1.7,1.543,2.753.238,1.758-1.6,3.033-3.241,3.712-14.436,5.958-31.989.256-45.936,7.3a5.314,5.314,0,0,0-2.121,1.638c-2.073,3.152,2.788,6.244,6.506,6.87a266.361,266.361,0,0,0,40.24,3.706L250.22,374.55c1.3,1.561.643,4.087-.876,5.44s-3.611,1.787-5.612,2.145c-16.909,2.89-40.86,1.74-55.028-9.533C193.011,370.076,197.79,368.127,202.33,365.994Z" transform="translate(-42.834 -147.984)" opacity="0.1" fill="url(#linear-gradient-2)"/>
    <path id="Path_648" data-name="Path 648" d="M80.561,132.56l-6.554,7.471c-1.144,1.3-2.383,2.836-2.121,4.552a5.362,5.362,0,0,0,1.382,2.568,23.766,23.766,0,0,0,4.212,3.938C79.685,145.084,81.389,138.917,80.561,132.56Z" transform="translate(-30.842 -65.967)" fill="#68e1fd"/>
    <path id="Path_649" data-name="Path 649" d="M80.7,132.51l-6.554,7.471c-1.144,1.3-2.383,2.842-2.121,4.552a5.362,5.362,0,0,0,1.352,2.568,23.784,23.784,0,0,0,4.218,3.932C79.849,145.034,81.529,138.873,80.7,132.51Z" transform="translate(-30.899 -65.947)" fill="#47173c"/>
    <rect id="Rectangle_66" data-name="Rectangle 66" width="197.276" height="197.782" transform="translate(56.153)" fill="#c25517" opacity="0.221"/>
    <rect id="Rectangle_67" data-name="Rectangle 67" width="197.276" height="197.782" transform="translate(56.153)" fill="#c25517" opacity="0.221"/>
    <rect id="Rectangle_68" data-name="Rectangle 68" width="179.962" height="1.251" transform="translate(24.79 229.655) rotate(-78.53)" fill="#c25517" opacity="0.221"/>
    <rect id="Rectangle_69" data-name="Rectangle 69" width="180.462" height="1.251" transform="matrix(0.2, -0.98, 0.98, 0.2, 43.584, 230.526)" fill="#c25517" opacity="0.221"/>
    <rect id="Rectangle_70" data-name="Rectangle 70" width="19.125" height="1.251" transform="translate(58.668 64.799)" fill="#c25517" opacity="0.221"/>
    <rect id="Rectangle_71" data-name="Rectangle 71" width="19.125" height="1.251" transform="translate(55.653 79.73)" fill="#c25517" opacity="0.221"/>
    <rect id="Rectangle_72" data-name="Rectangle 72" width="19.125" height="1.251" transform="translate(52.632 94.655)" fill="#c25517" opacity="0.221"/>
    <rect id="Rectangle_73" data-name="Rectangle 73" width="19.125" height="1.251" transform="translate(49.612 109.586)" fill="#c25517" opacity="0.221"/>
    <rect id="Rectangle_74" data-name="Rectangle 74" width="19.125" height="1.251" transform="translate(46.591 124.517)" fill="#c25517" opacity="0.221"/>
    <rect id="Rectangle_75" data-name="Rectangle 75" width="19.125" height="1.251" transform="translate(43.57 139.447)" fill="#c25517" opacity="0.221"/>
    <rect id="Rectangle_76" data-name="Rectangle 76" width="19.125" height="1.251" transform="translate(40.555 154.378)" fill="#c25517" opacity="0.221"/>
    <rect id="Rectangle_77" data-name="Rectangle 77" width="19.125" height="1.251" transform="translate(37.535 169.309)" fill="#c25517" opacity="0.221"/>
    <rect id="Rectangle_78" data-name="Rectangle 78" width="19.125" height="1.251" transform="translate(34.514 184.24)" fill="#c25517" opacity="0.221"/>
    <rect id="Rectangle_79" data-name="Rectangle 79" width="19.125" height="1.251" transform="translate(31.493 199.171)" fill="#c25517" opacity="0.221"/>
    <rect id="Rectangle_80" data-name="Rectangle 80" width="19.125" height="1.251" transform="translate(28.473 214.095)" fill="#c25517" opacity="0.221"/>
    <path id="Path_650" data-name="Path 650" d="M125.094,255.733l-1.561-141.884-1.3-.25.119,10.8h-3.485a11.569,11.569,0,0,0-.965-4.874c-1.841-3.426-4.171,0-4.838,2.294a4.16,4.16,0,0,1-1.662,2.562h-3.515a6.012,6.012,0,0,0-1.251-.119,4.123,4.123,0,0,0-.769.113h-1.787l-.137-10.993-1.3-.244.167,13.62c-.089.143-.179.292-.256.447a14.577,14.577,0,0,0-1.192,5.106c-1.668,17.534-.786,35.194.1,52.782a30.758,30.758,0,0,0,1.358,9.009,11.321,11.321,0,0,0,.828,1.787l.751,59.89Zm-1.3-.292-18.071-.042-.161-13.34,18.083.042Zm-.161-14.561-18.1-.042-.167-13.34,18.106.048Zm-.161-14.555-18.106-.066-.167-13.34,18.124.048Zm-.161-14.561-18.13-.048-.167-13.34H106.2a5.016,5.016,0,0,0,.512.238,4.045,4.045,0,0,0,3.158-.226h13.3Zm-.161-14.561H111.182a2.467,2.467,0,0,0,.322-.929c.167-1.245-.524-2.413-.995-3.575a14.822,14.822,0,0,1-.346-8.836l12.84.03Zm-.161-14.561H110.473c.214-.78.465-1.549.733-2.3,1.335-3.682,3.146-7.221,4.028-11.022h7.608Zm-.179-14.561h-7.334c.751-4.379.161-8.937.441-13.34h6.75Zm-.161-14.561H116.02a22.044,22.044,0,0,1,.554-3.158c.393-1.5.977-2.979,1.221-4.5a23.237,23.237,0,0,0-.107-5.678H122.5Zm-.3-27.9.149,13.34h-4.9a18.985,18.985,0,0,1-.048-1.93c.083-2.3.721-4.546.989-6.834a43.843,43.843,0,0,0,.322-4.57Z" transform="translate(-42.386 -58.118)" fill="#492b5d" opacity="0.1"/>
    <g id="Group_26" data-name="Group 26" transform="translate(77.96 8.222)" opacity="0.74">
      <rect id="Rectangle_81" data-name="Rectangle 81" width="38.584" height="4.028" fill="#400f49"/>
      <rect id="Rectangle_82" data-name="Rectangle 82" width="23.552" height="3.789" transform="translate(0 7.799)" fill="#400f49"/>
      <rect id="Rectangle_83" data-name="Rectangle 83" width="74.112" height="3.813" transform="translate(33.049 7.799)" fill="#400f49" opacity="0.54"/>
      <rect id="Rectangle_84" data-name="Rectangle 84" width="41.718" height="3.813" transform="translate(114.096 7.799)" fill="#400f49"/>
      <rect id="Rectangle_85" data-name="Rectangle 85" width="32.382" height="3.998" transform="translate(12.25 15.598)" fill="#400f49"/>
      <rect id="Rectangle_86" data-name="Rectangle 86" width="21.02" height="4.498" transform="translate(12.25 45.573)" fill="#400f49" opacity="0.48"/>
      <rect id="Rectangle_87" data-name="Rectangle 87" width="8.877" height="4.48" transform="translate(70.293 59.324)" fill="#400f49"/>
      <rect id="Rectangle_88" data-name="Rectangle 88" width="21.02" height="4.498" transform="translate(12.25 52.282)" fill="#400f49"/>
      <rect id="Rectangle_89" data-name="Rectangle 89" width="21.02" height="4.498" transform="translate(12.25 133.472)" fill="#400f49"/>
      <rect id="Rectangle_90" data-name="Rectangle 90" width="21.02" height="4.498" transform="translate(24.213 96.317)" fill="#400f49"/>
      <rect id="Rectangle_91" data-name="Rectangle 91" width="21.02" height="4.498" transform="translate(24.213 103.699)" fill="#400f49" opacity="0.48"/>
      <rect id="Rectangle_92" data-name="Rectangle 92" width="21.02" height="4.498" transform="translate(24.213 117.79)" fill="#400f49"/>
      <rect id="Rectangle_93" data-name="Rectangle 93" width="21.02" height="4.498" transform="translate(24.213 125.172)" fill="#400f49"/>
      <rect id="Rectangle_94" data-name="Rectangle 94" width="21.02" height="4.498" transform="translate(50.387 103.699)" fill="#400f49"/>
      <rect id="Rectangle_95" data-name="Rectangle 95" width="21.02" height="4.498" transform="translate(50.387 124.946)" fill="#400f49" opacity="0.48"/>
      <rect id="Rectangle_96" data-name="Rectangle 96" width="68.237" height="4.498" transform="translate(40.097 133.472)" fill="#400f49"/>
      <rect id="Rectangle_97" data-name="Rectangle 97" width="38.584" height="4.028" transform="translate(22.646 23.397)" fill="#400f49"/>
      <rect id="Rectangle_98" data-name="Rectangle 98" width="32.34" height="4.474" transform="translate(63.751 23.397)" fill="#400f49" opacity="0.52"/>
      <rect id="Rectangle_99" data-name="Rectangle 99" width="29.796" height="3.789" transform="translate(22.593 31.202)" fill="#400f49"/>
      <rect id="Rectangle_100" data-name="Rectangle 100" width="43.565" height="3.533" transform="translate(22.593 59.83)" fill="#400f49" opacity="0.48"/>
      <rect id="Rectangle_101" data-name="Rectangle 101" width="29.796" height="3.789" transform="translate(138.452 31.202)" fill="#400f49"/>
      <rect id="Rectangle_102" data-name="Rectangle 102" width="61.487" height="4.2" transform="translate(55.249 31.202)" fill="#400f49"/>
      <rect id="Rectangle_103" data-name="Rectangle 103" width="13.554" height="4.272" transform="translate(122.574 31.202)" fill="#400f49"/>
      <rect id="Rectangle_104" data-name="Rectangle 104" width="67.183" height="3.76" transform="translate(22.48 39.001)" fill="#400f49" opacity="0.48"/>
      <rect id="Rectangle_105" data-name="Rectangle 105" width="44.31" height="3.926" transform="translate(22.48 141.33)" fill="#400f49"/>
      <rect id="Rectangle_106" data-name="Rectangle 106" width="38.584" height="4.028" transform="translate(34.39 68.356)" fill="#400f49"/>
      <rect id="Rectangle_107" data-name="Rectangle 107" width="38.584" height="4.028" transform="translate(34.39 88.709)" fill="#400f49" opacity="0.48"/>
      <rect id="Rectangle_108" data-name="Rectangle 108" width="23.433" height="3.897" transform="translate(34.39 169.905)" fill="#400f49"/>
      <rect id="Rectangle_109" data-name="Rectangle 109" width="15.872" height="3.599" transform="translate(23.826 177.454)" fill="#400f49"/>
      <rect id="Rectangle_110" data-name="Rectangle 110" width="23.79" height="4.028" transform="translate(34.39 147.759)" fill="#400f49"/>
      <rect id="Rectangle_111" data-name="Rectangle 111" width="23.79" height="4.028" transform="translate(63.078 147.759)" fill="#400f49"/>
      <rect id="Rectangle_112" data-name="Rectangle 112" width="23.79" height="4.028" transform="translate(45.299 155.141)" fill="#400f49"/>
      <rect id="Rectangle_113" data-name="Rectangle 113" width="23.79" height="4.028" transform="translate(73.981 155.141)" fill="#400f49"/>
      <rect id="Rectangle_114" data-name="Rectangle 114" width="32.638" height="4.028" transform="translate(45.299 162.69)" fill="#400f49"/>
      <rect id="Rectangle_115" data-name="Rectangle 115" width="8.717" height="4.028" transform="translate(83.043 162.69)" fill="#400f49"/>
      <rect id="Rectangle_116" data-name="Rectangle 116" width="19.298" height="3.849" transform="translate(34.39 110.855)" fill="#400f49"/>
      <rect id="Rectangle_117" data-name="Rectangle 117" width="26.859" height="3.587" transform="translate(46.121 81.553)" fill="#400f49"/>
      <rect id="Rectangle_118" data-name="Rectangle 118" width="26.859" height="3.587" transform="translate(80.117 81.553)" fill="#400f49"/>
      <rect id="Rectangle_119" data-name="Rectangle 119" width="26.859" height="3.587" transform="translate(80.117 103.252)" fill="#400f49"/>
      <rect id="Rectangle_120" data-name="Rectangle 120" width="26.859" height="3.587" transform="translate(112.327 81.553)" fill="#400f49"/>
      <rect id="Rectangle_121" data-name="Rectangle 121" width="44.256" height="3.587" transform="translate(94.929 162.856)" fill="#400f49"/>
      <rect id="Rectangle_122" data-name="Rectangle 122" width="38.584" height="4.028" transform="translate(80.022 68.356)" fill="#400f49" opacity="0.48"/>
      <rect id="Rectangle_123" data-name="Rectangle 123" width="38.584" height="4.028" transform="translate(46.919 74.398)" fill="#400f49"/>
      <rect id="Rectangle_124" data-name="Rectangle 124" width="38.584" height="4.028" transform="translate(92.546 74.398)" fill="#400f49" opacity="0.48"/>
      <rect id="Rectangle_125" data-name="Rectangle 125" width="38.584" height="4.028" transform="translate(123.468 68.356)" fill="#400f49"/>
    </g>
    <path id="Path_651" data-name="Path 651" d="M123.447,103.926a3.044,3.044,0,0,1-.149-1.084,1.591,1.591,0,0,0,0-.477,1.787,1.787,0,0,0-.387-.6,1.924,1.924,0,0,1-.274-1.787c.411-.083.554-.405.7-.792a3.718,3.718,0,0,1,.495-1.132.31.31,0,0,1,.22-.137.28.28,0,0,1,.226.161c.173.346-.054.816.179,1.12.137.167.375.22.542.352.357.268.375.816.691,1.12a1.269,1.269,0,0,1,.2.2.632.632,0,0,1,.071.393,2.848,2.848,0,0,1-.53,1.472,2.455,2.455,0,0,0-.632,1.09,1.364,1.364,0,0,1-.048.381.512.512,0,0,1-.6.256C123.935,104.408,123.632,104.039,123.447,103.926Z" transform="translate(-51.326 -51.966)" fill="url(#linear-gradient-3)"/>
    <path id="Path_652" data-name="Path 652" d="M95.108,131.54a2.693,2.693,0,0,0-.6-.6,2.008,2.008,0,0,0-1.257-.31,9.835,9.835,0,0,0-1.3.214c-1.871.346-3.789-.089-5.69,0-2.133.125-2.931,2.383-3.307,3.289a19.066,19.066,0,0,0-1.394,5.475c-.089.894-.113,1.787-.137,2.693-.107,3.652-.352,7.269-.209,10.921l.238,5.994a1.621,1.621,0,0,0,.268,1.019,1.549,1.549,0,0,0,.8.423,37.464,37.464,0,0,0,10.421.995c1.787,0,3.825-.107,5-1.454,1.3-1.49.959-3.736.685-5.69C97.635,147.019,99.672,137.57,95.108,131.54Z" transform="translate(-34.612 -65.186)" fill="#68e1fd"/>
    <path id="Path_653" data-name="Path 653" d="M95.108,131.54a2.693,2.693,0,0,0-.6-.6,2.008,2.008,0,0,0-1.257-.31,9.835,9.835,0,0,0-1.3.214c-1.871.346-3.789-.089-5.69,0-2.133.125-2.931,2.383-3.307,3.289a19.066,19.066,0,0,0-1.394,5.475c-.089.894-.113,1.787-.137,2.693-.107,3.652-.352,7.269-.209,10.921l.238,5.994a1.621,1.621,0,0,0,.268,1.019,1.549,1.549,0,0,0,.8.423,37.464,37.464,0,0,0,10.421.995c1.787,0,3.825-.107,5-1.454,1.3-1.49.959-3.736.685-5.69C97.635,147.019,99.672,137.57,95.108,131.54Z" transform="translate(-34.612 -65.186)" fill="#47173c"/>
    <path id="Path_654" data-name="Path 654" d="M97.025,123.348a3.575,3.575,0,0,0,1.061-1.192,3.027,3.027,0,0,0,.173-1.424,5.154,5.154,0,0,0-.6-2.187,2.753,2.753,0,0,0-1.752-1.364,2.946,2.946,0,0,0-2.979,1.656,7.912,7.912,0,0,0-.709,3.575c-.042,1.543-1.227,3.9.22,4.445,1.674.626,2.979-1.192,3.259-1.99A3.473,3.473,0,0,1,97.025,123.348Z" transform="translate(-38.876 -59.734)" fill="url(#linear-gradient-4)"/>
    <path id="Path_655" data-name="Path 655" d="M96.838,113.363a2.824,2.824,0,0,1-.447,1.49,7.746,7.746,0,0,1-.894,1.37,3.2,3.2,0,0,0-.6.81,2.425,2.425,0,0,0,.131,1.555c-.256.131-.5-.453-.739-.292a.3.3,0,0,0-.089.149,1.066,1.066,0,0,0,.256,1.066.715.715,0,0,1,.191.232c.071.185-.083.375-.155.56-.179.453.137,1.007-.1,1.43a1.192,1.192,0,0,1-1.037.453c-.7.048-1.394.066-2.091.048a.8.8,0,0,1-.411-.083.858.858,0,0,1-.316-.6,22.14,22.14,0,0,1-.6-5.237,2.5,2.5,0,0,1,.346-1.49c.209-.28.512-.465.733-.721s.435-.745.727-1.066a3.247,3.247,0,0,1,1.555-.786C94.454,111.951,96.707,111.516,96.838,113.363Z" transform="translate(-38.152 -57.649)" fill="#3f3d56"/>
    <path id="Path_656" data-name="Path 656" d="M76.688,195.4a14.3,14.3,0,0,1,.066,2.717,13.232,13.232,0,0,1-.489,2.139,61.425,61.425,0,0,1-2.836,8.3c-.822,1.787-1.829,3.575-2.484,5.434a31.8,31.8,0,0,0-1.3,6.774,2.806,2.806,0,0,0,1.466-.947A74.4,74.4,0,0,0,84.291,201.7a18.845,18.845,0,0,0,1.787-4.474,21.634,21.634,0,0,0,.375-4.022,64.631,64.631,0,0,0-.131-8.728,3.475,3.475,0,0,0-1.192-2.687,3.2,3.2,0,0,0-1.394-.375,38.272,38.272,0,0,1-4.892-.357c-.6-.119-1.519-.691-1.96-.31s-.2,2.252-.22,2.765A96.3,96.3,0,0,0,76.688,195.4Z" transform="translate(-29.949 -85.39)" fill="#3f3d56"/>
    <path id="Path_657" data-name="Path 657" d="M76.688,195.4a14.3,14.3,0,0,1,.066,2.717,13.232,13.232,0,0,1-.489,2.139,61.425,61.425,0,0,1-2.836,8.3c-.822,1.787-1.829,3.575-2.484,5.434a31.8,31.8,0,0,0-1.3,6.774,2.806,2.806,0,0,0,1.466-.947A74.4,74.4,0,0,0,84.291,201.7a18.845,18.845,0,0,0,1.787-4.474,21.634,21.634,0,0,0,.375-4.022,64.631,64.631,0,0,0-.131-8.728,3.475,3.475,0,0,0-1.192-2.687,3.2,3.2,0,0,0-1.394-.375,38.272,38.272,0,0,1-4.892-.357c-.6-.119-1.519-.691-1.96-.31s-.2,2.252-.22,2.765A96.3,96.3,0,0,0,76.688,195.4Z" transform="translate(-29.949 -85.39)" fill="#a99f99"/>
    <path id="Path_658" data-name="Path 658" d="M96.07,203.771a29.194,29.194,0,0,1-.381,6.828l-1.543,11.57a1.192,1.192,0,0,0,1.7.4,3.491,3.491,0,0,0,1.192-1.537c2.341-4.6,4.713-9.289,5.583-14.371a40.074,40.074,0,0,0,.447-7.221,89.06,89.06,0,0,0-2.073-18.041,1.191,1.191,0,0,0-.363-.745,1.239,1.239,0,0,0-.87-.107l-5.309.667c-1.269.161-7.459-.03-7.459-.03s2.151,5.291,2.765,6.929C91.619,193.094,96.07,198.265,96.07,203.771Z" transform="translate(-36.961 -85.349)" fill="#a99f99"/>
    <path id="Path_659" data-name="Path 659" d="M67.542,247.731a1.633,1.633,0,0,0,.435.6,7.888,7.888,0,0,0,4.349,2.169,1.293,1.293,0,0,0,1.245-.3.953.953,0,0,0-.149-1.192,3.277,3.277,0,0,0-1.066-.685,3.116,3.116,0,0,1-1.74-1.7C69.764,243.781,66.809,245.4,67.542,247.731Z" transform="translate(-29.054 -111.459)" fill="url(#linear-gradient-5)"/>
    <path id="Path_660" data-name="Path 660" d="M97.9,252.868a2.532,2.532,0,0,0,1.281,1.043,6.563,6.563,0,0,0,4.129.786,1.74,1.74,0,0,0,1.043-.6.858.858,0,0,0-.036-1.114c-.322-.292-.828-.2-1.263-.25a1.787,1.787,0,0,1-1.257-.763c-.161-.238-.262-.512-.411-.757C100.1,249.061,96.8,250.6,97.9,252.868Z" transform="translate(-41.282 -113.51)" fill="url(#linear-gradient-6)"/>
    <path id="Path_661" data-name="Path 661" d="M67.116,246.054a1.037,1.037,0,0,1,.947-.334c.5.119.763.709,1.239.912.214.089.453.1.673.173a3.271,3.271,0,0,1,1.072.828c.846.775,2.067,1.192,2.627,2.175a.7.7,0,0,1,.077.679.667.667,0,0,1-.465.268,3.94,3.94,0,0,1-2.079.1,22.285,22.285,0,0,1-3.015-1.454c-.53-.322-.912-1.192-1.293-1.71C66.437,247.073,66.586,246.6,67.116,246.054Z" transform="translate(-28.729 -111.701)" fill="#3f3d56"/>
    <path id="Path_662" data-name="Path 662" d="M97.728,251.559c-.161-.066-.357-.149-.483-.03a.274.274,0,0,0-.066.1,1.919,1.919,0,0,0,.542,2.163,6.929,6.929,0,0,0,2.067,1.192,8.783,8.783,0,0,0,2.383.834,2.312,2.312,0,0,0,2.234-.834,1.192,1.192,0,0,0,.209-.852c-.125-.655-.87-.941-1.49-1.192-.786-.31-1.472-.876-2.282-1.126C99.807,251.47,98.7,251.958,97.728,251.559Z" transform="translate(-41.026 -114.03)" fill="#3f3d56"/>
    <path id="Path_663" data-name="Path 663" d="M103.912,122.268l4.683-2.33a8.5,8.5,0,0,0,1.662-.989c2.782-2.264,2.627-6.447,4.069-9.729a1.013,1.013,0,0,1,.411-.536,1.061,1.061,0,0,1,.53-.036l1.889.226-1.507,11.088a10.546,10.546,0,0,1-.524,2.383,8.748,8.748,0,0,1-.858,1.549,26.215,26.215,0,0,1-6.786,6.941,2.479,2.479,0,0,1-.953.477,1.829,1.829,0,0,1-1.192-.22c-1.293-.673-1.829-2.234-2.079-3.67a7.7,7.7,0,0,1,.655-5.154Z" transform="translate(-43.463 -56.294)" fill="#68e1fd"/>
    <path id="Path_664" data-name="Path 664" d="M103.912,122.268l4.683-2.33a8.5,8.5,0,0,0,1.662-.989c2.782-2.264,2.627-6.447,4.069-9.729a1.013,1.013,0,0,1,.411-.536,1.061,1.061,0,0,1,.53-.036l1.889.226-1.507,11.088a10.546,10.546,0,0,1-.524,2.383,8.748,8.748,0,0,1-.858,1.549,26.215,26.215,0,0,1-6.786,6.941,2.479,2.479,0,0,1-.953.477,1.829,1.829,0,0,1-1.192-.22c-1.293-.673-1.829-2.234-2.079-3.67a7.7,7.7,0,0,1,.655-5.154Z" transform="translate(-43.463 -56.294)" fill="#47173c"/>
    <path id="Path_674" data-name="Path 674" d="M0,0H197.276V11.07H0Z" transform="translate(56.153 197.782)" fill="#6f3619"/>
    <path id="Path_673" data-name="Path 673" d="M0,0H197.276V9.056H0Z" transform="translate(56.153 199.796)" fill="#c25517" opacity="0.301"/>
    <path id="Path_665" data-name="Path 665" d="M418.321,350.631a21.964,21.964,0,0,1-7.644,12.095c-8.067,6.78-18.5,8.538-25.834,8.824-.906.036-1.787.054-2.7.054a148.624,148.624,0,0,1-19.447-1.7l-4.492-.6c-7.6-.947-16.349-1.728-24.07.995l-.679-1.93-.709-2c8.574-3.027,17.9-2.2,25.971-1.192,1.507.185,3.015.387,4.528.6,7.042.929,14.329,1.895,21.449,1.621,6.679-.262,16.152-1.835,23.314-7.853a18.884,18.884,0,0,0,6.25-9.592,10.778,10.778,0,0,0-.149-5.91,9.986,9.986,0,0,0-1.066-2.264,15.856,15.856,0,0,0-8.782-6.172c-4.629-1.364-9.682-1.192-14.579-1.019H389.5l-.065-1.835-.083-2.33c5.029-.185,10.724-.393,16.087,1.192,6.238,1.835,10.963,6.006,12.631,11.147a15.33,15.33,0,0,1,.256,7.876Z" transform="translate(-136.293 -145.889)" fill="#6f3619"/>
    <path id="Path_666" data-name="Path 666" d="M418.235,360.63c-.357,4.665-2.723,10.027-7.978,14.448-8.067,6.774-18.506,8.538-25.84,8.818-.9.036-1.787.054-2.7.054a148.442,148.442,0,0,1-19.441-1.7l-4.5-.6c-7.6-.947-16.349-1.728-24.064.995l-1.388-3.932c.346-.119.691-.238,1.043-.346l.679,1.93c7.745-2.723,16.474-1.942,24.07-1l4.492.6a148.533,148.533,0,0,0,19.447,1.7c.9,0,1.787,0,2.7-.054,7.334-.286,17.767-2.044,25.834-8.824A21.964,21.964,0,0,0,418.235,360.63Z" transform="translate(-136.123 -158.153)" fill="url(#linear-gradient-7)"/>
    <path id="Path_667" data-name="Path 667" d="M288.659,337.21l28.181,6.435-5.368,24.66-18.649,8.943L267.27,366.124l17.141-7.662Z" transform="translate(-108.031 -136.3)" fill="#68e1fd"/>
    <path id="Path_668" data-name="Path 668" d="M288.659,337.21l28.181,6.435-5.368,24.66-18.649,8.943L267.27,366.124l17.141-7.662Z" transform="translate(-108.031 -136.3)" fill="#6f3619"/>
    <path id="Path_669" data-name="Path 669" d="M285.806,336.37l28.181,6.429-5.368,24.66-18.285,8.9-25.554-11.13,16.778-7.608Z" transform="translate(-107.024 -135.96)" fill="#a58e80"/>
    <path id="Path_670" data-name="Path 670" d="M298.94,360.046l21.812,6.882,4.528-19.965L302.634,342.1Z" transform="translate(-120.832 -138.276)" fill="#4c193c" opacity="0.557"/>
    <path id="Path_672" data-name="Path 672" d="M452.137,343.4l-.632-.119a15.856,15.856,0,0,0-8.782-6.173c-4.629-1.364-9.843-1.192-14.74-1.013l-.054-2s10.724-.6,17.076,2.455C449.033,338.5,452.137,343.4,452.137,343.4Z" transform="translate(-174.769 -147.41)" fill="url(#linear-gradient-8)"/>
  </g>
</svg>
