<svg xmlns="http://www.w3.org/2000/svg" xmlns:xlink="http://www.w3.org/1999/xlink" width="321.174" height="212.039" viewBox="0 0 321.174 212.039">
  <defs>
    <linearGradient id="linear-gradient" x1="-0.232" y1="0.5" x2="0.769" y2="0.5" gradientUnits="objectBoundingBox">
      <stop offset="0" stop-color="gray" stop-opacity="0.251"/>
      <stop offset="0.54" stop-color="gray" stop-opacity="0.122"/>
      <stop offset="1" stop-color="gray" stop-opacity="0.102"/>
    </linearGradient>
    <linearGradient id="linear-gradient-2" x1="-3.46" y1="0.929" x2="-3.46" y2="-0.082" xlink:href="#linear-gradient"/>
  </defs>
  <g id="undraw_compose_music_ovo2" transform="translate(0 -0.005)">
    <circle id="Ellipse_5" data-name="Ellipse 5" cx="6.32" cy="6.32" r="6.32" transform="translate(281.655 102.112)" fill="#c25517" opacity="0.1"/>
    <circle id="Ellipse_6" data-name="Ellipse 6" cx="10.592" cy="10.592" r="10.592" transform="translate(299.99 69.661)" fill="#c25517" opacity="0.1"/>
    <circle id="Ellipse_7" data-name="Ellipse 7" cx="6.32" cy="6.32" r="6.32" transform="translate(126.719 1.801)" fill="#c25517" opacity="0.1"/>
    <circle id="Ellipse_8" data-name="Ellipse 8" cx="6.32" cy="6.32" r="6.32" transform="translate(199.214 9.065)" fill="#c25517" opacity="0.1"/>
    <circle id="Ellipse_9" data-name="Ellipse 9" cx="10.592" cy="10.592" r="10.592" transform="translate(0 84.73)" fill="#c25517" opacity="0.1"/>
    <path id="Path_675" data-name="Path 675" d="M243.341,122.077c-18.91-.7-36.921-7.261-54.119-14.437s-34.236-15.121-52.679-18.922c-11.872-2.446-25.447-2.793-35.013,4.044-9.219,6.592-12.193,17.937-13.783,28.474-1.2,7.93-1.911,16.275,1.385,23.7,2.288,5.154,6.352,9.484,9.163,14.42,9.78,17.175,2.866,38.356-7.731,55.124-4.967,7.866-10.735,15.369-14.571,23.743s-5.619,17.97-2.27,26.513c3.325,8.473,11.252,14.826,19.84,19.284C111,293.1,131.547,295.7,151.594,297.165c44.36,3.261,88.96,1.85,133.44.435,16.459-.523,32.994-1.055,49.187-3.8,8.994-1.519,18.276-3.93,24.8-9.747,8.289-7.384,10.343-19.889,4.789-29.149-9.315-15.533-35.063-19.393-41.581-36.062-3.582-9.175.1-19.4,5.306-27.9,11.17-18.256,29.9-34.271,30.884-55.139.678-14.317-8.324-28.681-22.244-35.463-14.592-7.109-34.823-6.215-45.581,5.552C279.517,118.054,260.037,122.7,243.341,122.077Z" transform="translate(-65.659 -87.11)" fill="#c25517" opacity="0.1"/>
    <path id="Path_676" data-name="Path 676" d="M872.34,440.918a1.727,1.727,0,0,0,.389,1.011,5.746,5.746,0,0,0,1.554,1.321v1.584s4.675,3.907,5.636,5.382a16.01,16.01,0,0,0,3.191,3.892,2.878,2.878,0,0,0,1.189.631h.079a1.235,1.235,0,0,1-.456.292,1.081,1.081,0,0,0,1.274.915,2.129,2.129,0,0,0,.631-.316l1.852-1.2a5.309,5.309,0,0,0,.862-.646c.345-.348.584-.783.923-1.14.584-.608,1.414-.97,1.82-1.7a8.217,8.217,0,0,0,.456-1.5c.1-.327.251-.637.351-.964a3.483,3.483,0,0,0,.12-.6c.064.056.131.111.2.164.143-.094.418.152.354.31s-.219.272-.272.435c-.117.374.345.652.538.993a2.641,2.641,0,0,1,.114,1.169c.02.389.2.856.254,1.291.134,1.017-.368,2.089,0,3.05a.961.961,0,0,0-.95.739,2.8,2.8,0,0,0,.038,1.3,1.788,1.788,0,0,0-.877,1.633.4.4,0,0,1-.041.292.414.414,0,0,1-.166.1,1.648,1.648,0,0,0-1.017,1.531.76.76,0,0,1-.029.324.768.768,0,0,1-.24.245,1.905,1.905,0,0,0-.71,1.49,1.081,1.081,0,0,0,.5.976h.021a5.259,5.259,0,0,0-1.753,3.328,13.663,13.663,0,0,0,.228,3.445h.105v.085a1.534,1.534,0,0,0,.167.5,7.117,7.117,0,0,1,.628,2.56,2.267,2.267,0,0,0,.088.646,3.258,3.258,0,0,0,.33.567,6.027,6.027,0,0,1,.611,2.133,16.872,16.872,0,0,0,.745,2.8,7.914,7.914,0,0,1,.844,3.8,3.8,3.8,0,0,0-.117.938,2.744,2.744,0,0,0,.368.985,9.134,9.134,0,0,1,.409.912.736.736,0,0,0,.181.494c.035.1.064.2.094.292s.05.155.073.234a3.011,3.011,0,0,1,.091.4l-.018.307v.292a.728.728,0,0,1-.14.26,1.054,1.054,0,0,1-.076.085l-.07.079a.527.527,0,0,0-.079.114h0a.547.547,0,0,0-.023.336.533.533,0,0,0,.029.131c.073.316.152.631.231.944.023.1.05.19.073.292.064.245.129.494.2.739v.032l.044.164.167.6c.035.12.07.237.1.356l.129.435q.149.508.307,1.017a106.383,106.383,0,0,1,2.852,10.393,1.119,1.119,0,0,0,.418.625,2.407,2.407,0,0,0,.728.392c.067.517.234,1.148.254,1.461a7.091,7.091,0,0,1-.26,3.036.245.245,0,0,0-.222.07,9.056,9.056,0,0,0-.669.71l-1.37,1.461a2.263,2.263,0,0,0-.31.377,1.318,1.318,0,0,0-.131,1.078,1.461,1.461,0,0,0,.7.836,1.169,1.169,0,0,1,.222.126,1.313,1.313,0,0,0,.137.117.532.532,0,0,0,.292.055,10.435,10.435,0,0,0,2.3-.391,1.844,1.844,0,0,0,.95-.447,1.777,1.777,0,0,0,.324-.631l.275-.76a8.647,8.647,0,0,0,.418-1.417,2.921,2.921,0,0,0-.073-1.461.293.293,0,0,0-.07.12c.067-.424.131-.85.2-1.277.02-.126.038-.254.056-.386.088,1.137-.079,2.282-.026,3.422a3.992,3.992,0,0,0-.114.64,3.869,3.869,0,0,0,1.356,2.811,1.387,1.387,0,0,0,.465.242,1.642,1.642,0,0,0,.479,0,6.105,6.105,0,0,0,1.823-.345,2.241,2.241,0,0,0,1.312-1.245,2.922,2.922,0,0,0,.131-.9,3.455,3.455,0,0,0-.085-.95,7.238,7.238,0,0,0-.479-1.107,10.568,10.568,0,0,1-.543-1.63l-.254-.926c-.07-.263-.143-.526-.234-.783a1.312,1.312,0,0,0-.324-.617c-.105-.082-.175-.088-.222-.041v-.1a10.445,10.445,0,0,0,.067-1.084,4.592,4.592,0,0,0-.836-1.581,3.09,3.09,0,0,1-.333-.836c-.018-.064-.029-.126-.041-.193a.684.684,0,0,1,.167-.108l.52.292c-.459-3.448-.216-7.062-1.554-10.27-.584-1.4-1.709-2.852-1.584-4.357a1.227,1.227,0,0,1,.137-1.958c.225-.123.5-.181.657-.389a1.062,1.062,0,0,0,.149-.377,59.784,59.784,0,0,1,2.887-8.663c.26-.617.529-1.227.8-1.838l.906-2.06,1.1-2.507a3.476,3.476,0,0,0,.4-2.659,2.25,2.25,0,0,1-.354-1.014,6.353,6.353,0,0,1,.216-.669,1.665,1.665,0,0,0-.056-.728c-.073-.316-.155-.631-.24-.944a5.259,5.259,0,0,1,.7.134c.14-.237-.085-.511-.222-.751a2.54,2.54,0,0,1-.254-1.043l-.292-2.948a5.231,5.231,0,0,1-.023-1.227c.058-.432.225-.844.31-1.277a19.62,19.62,0,0,0,.053-2.525,11.318,11.318,0,0,1,.386-2.2c.026-.108.05-.213.076-.321a1.752,1.752,0,0,0,.424.073h.362a1.179,1.179,0,0,0,.161-.041h.035a1.758,1.758,0,0,0,.172-.067c-.07-.149-.134-.292-.2-.45-.026-.061-.05-.123-.073-.184s-.067-.172-.1-.26-.058-.161-.085-.24-.044-.134-.064-.2-.056-.184-.082-.292-.053-.193-.079-.292l.044-.091a2.564,2.564,0,0,0,.482.33c.584,1.008,1.113,2.045,1.6,3.091a.982.982,0,0,0,.149-.377,1.809,1.809,0,0,0,.207.266,3.1,3.1,0,0,0,.681.5,1.753,1.753,0,0,0,.806.292,1.5,1.5,0,0,0,1.031-.447,6.882,6.882,0,0,0,1.668-2.922,22,22,0,0,0,1.256-4.3,36.485,36.485,0,0,1,.584-4.774c-.406-.806-.663-1.7-1.119-2.478a11.089,11.089,0,0,1-.771-1.446,5,5,0,0,1-.137-3.343.459.459,0,0,0-.535.029,1.118,1.118,0,0,0-.321.467,4.147,4.147,0,0,0-.319,1.964.783.783,0,0,1-.055.479.6.6,0,0,1-.52.219,4.485,4.485,0,0,1-1.2-.219,11.186,11.186,0,0,0-3.354-.327,2.673,2.673,0,0,0-.292-.292l-.126-.1-.129-.1-.064-.053a1.465,1.465,0,0,1-.123-.108.81.81,0,0,1-.292-.511.658.658,0,0,1,0-.076.56.56,0,0,1,0-.07.985.985,0,0,1,.067-.2,1.356,1.356,0,0,1,.064-.131l.032-.067c0-.021.02-.044.032-.064a1.921,1.921,0,0,0,.093-.245,1.783,1.783,0,0,0,.061-.254,1.906,1.906,0,0,0,.026-.26V434.7a2.655,2.655,0,0,0-.108-.52,2.886,2.886,0,0,0-.14-.374,4.141,4.141,0,0,0-.248-.462,7.069,7.069,0,0,0-.625-.85l-.172-.2-.175-.2a6.938,6.938,0,0,1-.508-.622,2.422,2.422,0,0,1-.292-.52c-.023-.061-.044-.123-.061-.187a1.9,1.9,0,0,1-.053-.362v-.12a4.477,4.477,0,0,1,.023-.488c.023-.228.056-.459.088-.692.021-.155.044-.31.064-.465a1.554,1.554,0,0,1,.029-.231c.018-.155.035-.31.047-.465a4.453,4.453,0,0,0-.076-1.353,2.563,2.563,0,0,0-.137-.432,2.745,2.745,0,0,0-.292-.526,3.8,3.8,0,0,0-1.625-1.265,7.478,7.478,0,0,0-1.487-.476c-.2-.044-.406-.082-.608-.114a8.51,8.51,0,0,0-8.181,2.922,11.336,11.336,0,0,0-2.212,4.333,6.186,6.186,0,0,0,.7,4.725c.377.584.877,1.075,1.207,1.677.275.491.438,1.043.733,1.522a3.594,3.594,0,0,0,1.622,1.365l-.128.117a3.939,3.939,0,0,0-.909.018c-.31.053-.611.172-.923.21-.386.05-.78-.026-1.169.023a3.689,3.689,0,0,0-1.855,1.066A3.261,3.261,0,0,0,889.1,443.8v.023l-.43.584a2.3,2.3,0,0,0-.269.424,7.129,7.129,0,0,0-.169,1.309,2.8,2.8,0,0,1-.339.78,17.544,17.544,0,0,1-1.461,2.18,3.691,3.691,0,0,1-.909.9,1.636,1.636,0,0,1-.947.269,6.07,6.07,0,0,1-1.385-.926,8.931,8.931,0,0,1-1.224-1.522c-.7-1,1.461,2,.766.99L876.5,438.42a8.472,8.472,0,0,1-.245-1.478c0-.19-.079-.441-.272-.447a.33.33,0,0,0-.219.105,1.268,1.268,0,0,0-.406,1.081,1.5,1.5,0,0,0-.956.169.546.546,0,0,0-.12.777v.079a.415.415,0,0,0-.219.438,1.484,1.484,0,0,0-1.026.05c-.307.172-.424.678-.126.877a.9.9,0,0,0-.573.847Zm39.06,1.49a4.838,4.838,0,0,0,.546.14,8.719,8.719,0,0,1,1.695.584.929.929,0,0,1,.441.33.982.982,0,0,1-.053.83l-.771,2.083c-.123.327-.242.655-.394.967-.058.126-.126.251-.193.374q-.035-.105-.07-.2a17.1,17.1,0,0,1-.555-1.94c-.129-.567-.237-1.14-.327-1.712a8.37,8.37,0,0,0-.324-1.455Zm-.806-1.633.058.041a.657.657,0,0,1,.2.14.312.312,0,0,1,0,.292Zm-1.394-2.007.923.134a1.213,1.213,0,0,1,.622.213.418.418,0,0,1,.085.584,1.388,1.388,0,0,1-.2.137.584.584,0,0,0-.219.6,6.548,6.548,0,0,0-.529-.821,4.063,4.063,0,0,0-.617-.631C909.24,438.917,909.223,438.841,909.2,438.768Zm-8.874,66.423a.44.44,0,1,1,.286.83Z" transform="translate(-632.179 -325.313)" fill="url(#linear-gradient)"/>
    <path id="Path_677" data-name="Path 677" d="M946.666,425.915c1.6.257,3.386.877,4,2.378.462,1.137.105,2.413,0,3.635a2.759,2.759,0,0,0,.035.967,3.393,3.393,0,0,0,.847,1.329,7.081,7.081,0,0,1,1.221,1.709,2.489,2.489,0,0,1,.082,2.045,1.487,1.487,0,0,0-.2.538c-.02.418.415.681.736.947,1.2,1,1.151,2.811,1.169,4.383a22.124,22.124,0,0,0,2.092,9.245,2.825,2.825,0,0,1-3.161-.412,10.652,10.652,0,0,0,.719,2.069c-1.02.494-2.247-.318-2.755-1.327a22.708,22.708,0,0,1-.935-3.255c-.351-1.069-1.02-2.013-1.312-3.091a2.971,2.971,0,0,0-.365-1.034,2.631,2.631,0,0,0-.643-.546,6.252,6.252,0,0,1-2.264-3.074,12.047,12.047,0,0,1-3.8.438,4.181,4.181,0,0,1-3.237-1.779c-.292-.479-.459-1.031-.733-1.522-.336-.6-.833-1.1-1.21-1.674a6.181,6.181,0,0,1-.7-4.719,11.251,11.251,0,0,1,2.212-4.327A8.559,8.559,0,0,1,946.666,425.915Z" transform="translate(-677.291 -326.828)" fill="#3a3768"/>
    <path id="Path_678" data-name="Path 678" d="M946.666,425.915c1.6.257,3.386.877,4,2.378.462,1.137.105,2.413,0,3.635a2.759,2.759,0,0,0,.035.967,3.393,3.393,0,0,0,.847,1.329,7.081,7.081,0,0,1,1.221,1.709,2.489,2.489,0,0,1,.082,2.045,1.487,1.487,0,0,0-.2.538c-.02.418.415.681.736.947,1.2,1,1.151,2.811,1.169,4.383a22.124,22.124,0,0,0,2.092,9.245,2.825,2.825,0,0,1-3.161-.412,10.652,10.652,0,0,0,.719,2.069c-1.02.494-2.247-.318-2.755-1.327a22.708,22.708,0,0,1-.935-3.255c-.351-1.069-1.02-2.013-1.312-3.091a2.971,2.971,0,0,0-.365-1.034,2.631,2.631,0,0,0-.643-.546,6.252,6.252,0,0,1-2.264-3.074,12.047,12.047,0,0,1-3.8.438,4.181,4.181,0,0,1-3.237-1.779c-.292-.479-.459-1.031-.733-1.522-.336-.6-.833-1.1-1.21-1.674a6.181,6.181,0,0,1-.7-4.719,11.251,11.251,0,0,1,2.212-4.327A8.559,8.559,0,0,1,946.666,425.915Z" transform="translate(-677.291 -326.828)" fill="#3f3d56"/>
    <path id="Path_679" data-name="Path 679" d="M995.31,488.385c.091.584.2,1.145.33,1.715a16.4,16.4,0,0,0,.552,1.934,1.859,1.859,0,0,1,.172.877,1.64,1.64,0,0,1-.213.532c-.733,1.3-1.721,2.557-1.806,4.047a2.177,2.177,0,0,1-.2,1.078q-.85-1.823-1.873-3.559a10.958,10.958,0,0,1-1.709-3.822,7.247,7.247,0,0,1,.023-1.964,4.274,4.274,0,0,1,.707-2.066c.482-.631,1.812-1.587,2.671-1.391C994.974,486.013,995.182,487.57,995.31,488.385Z" transform="translate(-715.82 -369.262)" fill="#f86d70"/>
    <path id="Path_680" data-name="Path 680" d="M885.741,483.991a8.705,8.705,0,0,1-2.7-1.508,8.8,8.8,0,0,1-1.224-1.519l-2.253-3.255a5.874,5.874,0,0,1-1.2-2.519,8.289,8.289,0,0,1-2.253-5.113c0-.193-.076-.441-.269-.447a.339.339,0,0,0-.222.105,1.271,1.271,0,0,0-.4,1.081,1.5,1.5,0,0,0-.956.167c-.269.193-.339.669-.05.83a.412.412,0,0,0-.292.465,1.461,1.461,0,0,0-1.026.05c-.292.172-.424.675-.126.877a.877.877,0,0,0-.584.856,1.718,1.718,0,0,0,.389,1.008c.877,1.169,2.4,1.63,3.4,2.676a7.762,7.762,0,0,1,.877,1.169l2.907,4.424a15.9,15.9,0,0,0,3.191,3.883,2.887,2.887,0,0,0,1.186.631,1.312,1.312,0,0,0,1.248-.345,2.036,2.036,0,0,0,.365-1.245C885.819,485.516,885.691,484.742,885.741,483.991Z" transform="translate(-632.071 -357.858)" fill="#a1616a"/>
    <path id="Path_681" data-name="Path 681" d="M950.665,722.913a2.532,2.532,0,0,0-.31.377,1.318,1.318,0,0,0-.131,1.078,1.461,1.461,0,0,0,.7.833,1.378,1.378,0,0,1,.222.128,1.318,1.318,0,0,0,.137.117.531.531,0,0,0,.292.055,10.634,10.634,0,0,0,2.3-.391,1.843,1.843,0,0,0,.95-.447,1.891,1.891,0,0,0,.324-.628l.272-.76a8.9,8.9,0,0,0,.421-1.414,2.945,2.945,0,0,0-.076-1.461.476.476,0,0,0-.1.292,3.234,3.234,0,0,1-.584,1.417,1.444,1.444,0,0,1-.228.292,1.488,1.488,0,0,1-.684.292,8.409,8.409,0,0,1-1.461.187.456.456,0,0,1-.2-.023.348.348,0,0,1-.167-.207.877.877,0,0,1,0-.584c.131-.368.494-.611.669-.964.129-.26-.05-.546-.316-.327a8.1,8.1,0,0,0-.669.71Z" transform="translate(-687.263 -535.356)" fill="#3f3d56"/>
    <path id="Path_682" data-name="Path 682" d="M956.452,704.293a5.792,5.792,0,0,1-.538,3.571c-.24.371-.564.681-.839,1.028a1.206,1.206,0,0,0-.292.62.948.948,0,0,0,.824.915,2.727,2.727,0,0,0,1.324-.19,3.186,3.186,0,0,0,1.125-.529,3.239,3.239,0,0,0,.853-2.069l.272-1.753a5.532,5.532,0,0,0,.1-1.277,5.687,5.687,0,0,0-.342-1.376l-.45-1.315a.62.62,0,0,0-.2-.327.585.585,0,0,0-.342-.061c-.429.02-1.513.178-1.721.631C956.037,702.569,956.422,703.832,956.452,704.293Z" transform="translate(-690.531 -521.996)" fill="#ee8e9e"/>
    <path id="Path_683" data-name="Path 683" d="M956.452,704.293a5.792,5.792,0,0,1-.538,3.571c-.24.371-.564.681-.839,1.028a1.206,1.206,0,0,0-.292.62.948.948,0,0,0,.824.915,2.727,2.727,0,0,0,1.324-.19,3.186,3.186,0,0,0,1.125-.529,3.239,3.239,0,0,0,.853-2.069l.272-1.753a5.532,5.532,0,0,0,.1-1.277,5.687,5.687,0,0,0-.342-1.376l-.45-1.315a.62.62,0,0,0-.2-.327.585.585,0,0,0-.342-.061c-.429.02-1.513.178-1.721.631C956.037,702.569,956.422,703.832,956.452,704.293Z" transform="translate(-690.531 -521.996)" opacity="0.05"/>
    <path id="Path_684" data-name="Path 684" d="M927.547,579.428a.107.107,0,0,0,0,.032,1.46,1.46,0,0,0,.164.5,7.181,7.181,0,0,1,.631,2.557,2.165,2.165,0,0,0,.085.646,3.447,3.447,0,0,0,.33.567,6.013,6.013,0,0,1,.611,2.13,16.832,16.832,0,0,0,.745,2.793,7.9,7.9,0,0,1,.844,3.8,3.8,3.8,0,0,0-.117.935,2.7,2.7,0,0,0,.365.985,9.154,9.154,0,0,1,.412.912c.12.31.248.675.348,1.017a1.382,1.382,0,0,1-.076,1.253,1.426,1.426,0,0,0-.225.275.731.731,0,0,0,0,.473q.237,1,.508,2c.14.52.292,1.037.441,1.555,1.128,3.781,2.4,7.524,3.159,11.4.108.558.821.958,1.376,1.078a1.794,1.794,0,0,0,1.581-.424.978.978,0,0,0,.111-.108,3.322,3.322,0,0,0,.622-2.449c-.2-3.985-2.2-7.632-3.159-11.506a22.155,22.155,0,0,1-.62-4.269c-.225-4.812-.313-9.9,1.046-14.516a3.722,3.722,0,0,0,.108-2.922,2.85,2.85,0,0,0-1.5-1.1,9.672,9.672,0,0,0-7.506.193,2.334,2.334,0,0,0,0,.292,2.962,2.962,0,0,1-.152,1.327,1.628,1.628,0,0,0-.131.587Z" transform="translate(-671.254 -433.406)" fill="#400f49"/>
    <path id="Path_685" data-name="Path 685" d="M973.735,711.742l.254.926a10.347,10.347,0,0,0,.541,1.63,7.1,7.1,0,0,1,.482,1.1,3.572,3.572,0,0,1,.082.95,2.9,2.9,0,0,1-.131.9,2.241,2.241,0,0,1-1.312,1.245,6.193,6.193,0,0,1-1.82.342,1.458,1.458,0,0,1-.479,0,1.335,1.335,0,0,1-.465-.242,3.842,3.842,0,0,1-1.356-2.808,3.45,3.45,0,0,1,.143-.716c.064-.088.7.272.429.584-.4.447.78.216,1.382.178a5.533,5.533,0,0,0,.783-.129l.973-.208c.318-.07.687-.178.8-.485s-.134-.669-.324-.964a6.308,6.308,0,0,1-.76-2.679c-.023-.184-.251-1.367.219-1a1.315,1.315,0,0,1,.327.616C973.591,711.219,973.661,711.479,973.735,711.742Z" transform="translate(-700.971 -528.206)" fill="#3f3d56"/>
    <path id="Path_686" data-name="Path 686" d="M941.789,641.59a1.334,1.334,0,0,0,.076-1.251c-.047-.158-.094-.313-.146-.467l3.825-1.291c0,.342.029.684.044,1.026a22.218,22.218,0,0,0,.62,4.272c.955,3.871,2.963,7.518,3.159,11.5a3.2,3.2,0,0,1-.731,2.563,1.809,1.809,0,0,1-1.584.421c-.552-.12-1.268-.52-1.376-1.078-.757-3.872-2.045-7.614-3.159-11.4q-.526-1.753-.95-3.553a.743.743,0,0,1,0-.47A1.427,1.427,0,0,1,941.789,641.59Z" transform="translate(-681.151 -477.443)" fill="#400f49" opacity="0.05"/>
    <path id="Path_687" data-name="Path 687" d="M971.746,697a4.619,4.619,0,0,1,.833,1.578,9.039,9.039,0,0,1-.067,1.084,3.4,3.4,0,0,0,.161.877q.555,2.016,1.286,3.98a1.09,1.09,0,0,1,.1.541.953.953,0,0,1-.634.631,6.7,6.7,0,0,1-2.922.321,1.53,1.53,0,0,1-.824-.193,1.433,1.433,0,0,1-.465-1.148c-.067-1.242.143-2.49,0-3.725-.047-.45-.143-.894-.213-1.338a3.926,3.926,0,0,1,.058-1.87,4.279,4.279,0,0,1,.7-1.169,3.66,3.66,0,0,1,.973-.97c.117-.07.447-.292.564-.149.061.067.035.248.044.333a3.323,3.323,0,0,0,.067.386A3.169,3.169,0,0,0,971.746,697Z" transform="translate(-700.536 -517.66)" fill="#ee8e9e"/>
    <path id="Path_688" data-name="Path 688" d="M934.871,580.965a1.058,1.058,0,0,1,.073.877c-.129.529-.339,1.034-.511,1.552a21.587,21.587,0,0,0-.66,2.82,8.251,8.251,0,0,0-.359,2.688,19.15,19.15,0,0,0-2.045,6.373c-.079.57,1.189,1.309,1.169,1.885-.047,1.145-.961,1.236-.292,2.151.032.047-.254,1.069-.216,1.113.275.33.622.584.917.9a6.905,6.905,0,0,1,.967,1.417c1.753,3.15,4.263,6.72,3.486,10.227a.625.625,0,0,0,.333.631,1.722,1.722,0,0,0,.736.169h.123a3.322,3.322,0,0,0,.622-2.449c-.2-3.985-2.2-7.632-3.159-11.506a22.166,22.166,0,0,1-.619-4.269c-.225-4.812-.313-9.9,1.046-14.516a3.723,3.723,0,0,0,.108-2.922,2.85,2.85,0,0,0-1.5-1.1,9.671,9.671,0,0,0-7.506.193,2.31,2.31,0,0,0,0,.292,2.96,2.96,0,0,1-.152,1.327,1.626,1.626,0,0,0-.149.584s-.07-.774-.07-.763c1.563.225,3.194,1.245,4.757,1.461a10.87,10.87,0,0,1,2.384.526A1.034,1.034,0,0,1,934.871,580.965Z" transform="translate(-671.016 -433.392)" opacity="0.05"/>
    <path id="Path_689" data-name="Path 689" d="M945.012,559.533c.21.669.4,1.344.555,2.025a1.655,1.655,0,0,1,.055.725,6.376,6.376,0,0,0-.216.669,2.239,2.239,0,0,0,.354,1.011,3.486,3.486,0,0,1-.394,2.659l-1.107,2.5-.906,2.045c-.269.611-.538,1.221-.8,1.838a59.772,59.772,0,0,0-2.887,8.652,1.059,1.059,0,0,1-.149.377c-.155.2-.432.263-.657.389a1.224,1.224,0,0,0-.134,1.955c-.129,1.5,1,2.957,1.581,4.351,1.335,3.214,1.093,6.814,1.554,10.256l-.52-.292c-.5.228-.482.935-.748,1.411-.4.719-1.388.821-2.209.766a1.724,1.724,0,0,1-.739-.169.622.622,0,0,1-.33-.631c.774-3.506-1.753-7.086-3.489-10.227a6.812,6.812,0,0,0-.967-1.414c-.292-.313-.64-.584-.917-.906a4.909,4.909,0,0,1-.815-3.427A19.2,19.2,0,0,1,933.31,576a8.305,8.305,0,0,1,.362-2.688,21.1,21.1,0,0,1,.657-2.82c.172-.517.383-1.023.511-1.552a1.058,1.058,0,0,0-.07-.877,1.029,1.029,0,0,0-.494-.319,11,11,0,0,0-2.384-.526l-5.37-.771a13.66,13.66,0,0,1-.228-3.442,5.292,5.292,0,0,1,3.8-4.43.8.8,0,0,1,.7.044A28,28,0,0,1,945.012,559.533Z" transform="translate(-670.34 -420.48)" fill="#400f49"/>
    <path id="Path_690" data-name="Path 690" d="M955.135,457.3a2.63,2.63,0,0,0,.234,1.537,2.4,2.4,0,0,0,.611.675,4.525,4.525,0,0,0,1.771.877,1.886,1.886,0,0,1,1.058.465c.377.456.126,1.142-.2,1.639a4.192,4.192,0,0,1-2.32,1.92c-.792.216-1.639.085-2.449.225-.584.1-1.14.345-1.718.482a5.07,5.07,0,0,1-4.675-1.3,6.675,6.675,0,0,0,2.2-2.355,3.348,3.348,0,0,0,.167-2.25,5,5,0,0,1-.526-2.2,2.3,2.3,0,0,1,1.61-1.516,10.327,10.327,0,0,1,2.025-.409c.377-.053,2.782-.584,2.922-.321.085.149-.415,1.026-.476,1.218A4.692,4.692,0,0,0,955.135,457.3Z" transform="translate(-685.342 -347.292)" fill="#a1616a"/>
    <path id="Path_691" data-name="Path 691" d="M955.135,457.3a2.63,2.63,0,0,0,.234,1.537,2.4,2.4,0,0,0,.611.675,4.525,4.525,0,0,0,1.771.877,1.886,1.886,0,0,1,1.058.465c.377.456.126,1.142-.2,1.639a4.192,4.192,0,0,1-2.32,1.92c-.792.216-1.639.085-2.449.225-.584.1-1.14.345-1.718.482a5.07,5.07,0,0,1-4.675-1.3,6.675,6.675,0,0,0,2.2-2.355,3.348,3.348,0,0,0,.167-2.25,5,5,0,0,1-.526-2.2,2.3,2.3,0,0,1,1.61-1.516,10.327,10.327,0,0,1,2.025-.409c.377-.053,2.782-.584,2.922-.321.085.149-.415,1.026-.476,1.218A4.692,4.692,0,0,0,955.135,457.3Z" transform="translate(-685.342 -347.292)" opacity="0.05"/>
    <circle id="Ellipse_10" data-name="Ellipse 10" cx="4.877" cy="4.877" r="4.877" transform="translate(261.892 102.013)" fill="#a1616a"/>
    <path id="Path_692" data-name="Path 692" d="M942.011,476.517l-3.3.555a12.379,12.379,0,0,1-2.472.248,7.072,7.072,0,0,0-1.362,0c-.313.053-.611.172-.926.21-.386.05-.777-.023-1.169.026a3.684,3.684,0,0,0-1.855,1.064,3.23,3.23,0,0,0-1.373,2.045.584.584,0,0,0,.038.292.856.856,0,0,0,.245.257,7.825,7.825,0,0,1,1.382,1.9,7.338,7.338,0,0,0,1.642,1.771c.146-.094.421.152.357.31s-.219.272-.272.435c-.117.374.345.649.535.993a2.685,2.685,0,0,1,.117,1.169c.021.392.2.856.254,1.294.131,1.014-.368,2.083,0,3.045a.955.955,0,0,0-.95.739,2.79,2.79,0,0,0,.038,1.3,1.785,1.785,0,0,0-.877,1.63.292.292,0,0,1-.21.389,1.645,1.645,0,0,0-1.014,1.528.752.752,0,0,1-.029.324.713.713,0,0,1-.24.245,1.905,1.905,0,0,0-.71,1.49,1.093,1.093,0,0,0,.5.976,9.094,9.094,0,0,0,2.221.66,19.954,19.954,0,0,0,2.151.38,19.277,19.277,0,0,0,2.013.061l4.424-.018c1.242,0,2.487,0,3.728-.093a10.57,10.57,0,0,1,3.462.082c.14-.237-.085-.511-.222-.751a2.517,2.517,0,0,1-.254-1.04l-.278-2.948a5.182,5.182,0,0,1-.023-1.221c.061-.435.225-.847.31-1.277a19.585,19.585,0,0,0,.053-2.522,11.246,11.246,0,0,1,.386-2.194l.877-3.609a13.933,13.933,0,0,1,.432-1.809q1.008-2.6,2.118-5.154a.532.532,0,0,0-.038-.456l-.73-1.312a8.381,8.381,0,0,0-.669-1.066,4.222,4.222,0,0,0-2.469-1.516,4.366,4.366,0,0,0-2.869.427c-.342.181-.657.406-1.005.584A4.112,4.112,0,0,1,942.011,476.517Z" transform="translate(-672.668 -361.566)" fill="#f86d70"/>
    <path id="Path_693" data-name="Path 693" d="M917.795,491.5l-1.151,1.537a1.955,1.955,0,0,0-.269.424,6.855,6.855,0,0,0-.172,1.3,2.717,2.717,0,0,1-.336.78,18,18,0,0,1-1.461,2.18,3.907,3.907,0,0,1-.909.9,1.508,1.508,0,0,1-1.227.216.769.769,0,0,1,.4.365,4.459,4.459,0,0,1,.292,2.852,2.921,2.921,0,0,1-.321.935,1.4,1.4,0,0,1-.733.634,1.081,1.081,0,0,0,1.274.915,2.13,2.13,0,0,0,.631-.316l1.85-1.2a4.916,4.916,0,0,0,.862-.646c.345-.345.584-.78.923-1.137.584-.6,1.414-.967,1.82-1.7a7.988,7.988,0,0,0,.453-1.5c.1-.324.254-.634.351-.961a4.3,4.3,0,0,0-.38-3.08A13.159,13.159,0,0,0,917.795,491.5Z" transform="translate(-660.187 -373.338)" fill="#f86d70"/>
    <path id="Path_694" data-name="Path 694" d="M945.632,431.21a6.392,6.392,0,0,1,1.715-1.785,5.853,5.853,0,0,1,3.094-1.309,3.29,3.29,0,0,1,1.391.228c.023-1.379.365-2.294,1.224-2.156,1.6.257,3.386.877,4,2.378.462,1.137.105,2.413,0,3.635a2.759,2.759,0,0,0,.035.967,3.393,3.393,0,0,0,.847,1.329,7.083,7.083,0,0,1,1.221,1.709,2.489,2.489,0,0,1,.082,2.045,1.488,1.488,0,0,0-.2.538c-.02.418.415.681.736.947,1.2,1,1.151,2.811,1.169,4.383a22.124,22.124,0,0,0,2.092,9.245,2.826,2.826,0,0,1-3.161-.412,10.646,10.646,0,0,0,.719,2.069c-1.02.494-2.247-.318-2.755-1.327a22.707,22.707,0,0,1-.935-3.255c-.351-1.069-1.02-2.013-1.312-3.091a2.973,2.973,0,0,0-.365-1.034,2.631,2.631,0,0,0-.643-.546c-1.049-.754.5-6.463.088-7.687-.611.132-1.733-2.814-2.373-5.809a3.024,3.024,0,0,1-1.388.14,1.672,1.672,0,0,0-.5-.035,1.322,1.322,0,0,0-.432.175,10.67,10.67,0,0,1-1.476.76,8.485,8.485,0,0,1-3.349.292,3.319,3.319,0,0,1,.473-2.393Z" transform="translate(-683.682 -327.099)" fill="#3a3768"/>
    <path id="Path_695" data-name="Path 695" d="M945.632,431.21a6.392,6.392,0,0,1,1.715-1.785,5.853,5.853,0,0,1,3.094-1.309,3.29,3.29,0,0,1,1.391.228c.023-1.379.365-2.294,1.224-2.156,1.6.257,3.386.877,4,2.378.462,1.137.105,2.413,0,3.635a2.759,2.759,0,0,0,.035.967,3.393,3.393,0,0,0,.847,1.329,7.083,7.083,0,0,1,1.221,1.709,2.489,2.489,0,0,1,.082,2.045,1.488,1.488,0,0,0-.2.538c-.02.418.415.681.736.947,1.2,1,1.151,2.811,1.169,4.383a22.124,22.124,0,0,0,2.092,9.245,2.826,2.826,0,0,1-3.161-.412,10.646,10.646,0,0,0,.719,2.069c-1.02.494-2.247-.318-2.755-1.327a22.707,22.707,0,0,1-.935-3.255c-.351-1.069-1.02-2.013-1.312-3.091a2.973,2.973,0,0,0-.365-1.034,2.631,2.631,0,0,0-.643-.546c-1.049-.754.5-6.463.088-7.687-.611.132-1.733-2.814-2.373-5.809a3.024,3.024,0,0,1-1.388.14,1.672,1.672,0,0,0-.5-.035,1.322,1.322,0,0,0-.432.175,10.67,10.67,0,0,1-1.476.76,8.485,8.485,0,0,1-3.349.292,3.319,3.319,0,0,1,.473-2.393Z" transform="translate(-683.682 -327.099)" fill="#3f3d56"/>
    <g id="Group_27" data-name="Group 27" transform="translate(262.359 99.065)" opacity="0.1">
      <path id="Path_696" data-name="Path 696" d="M980.629,453.332a22.171,22.171,0,0,1-2.092-9.245c0-1.563.044-3.378-1.169-4.383-.321-.266-.757-.529-.739-.947a1.492,1.492,0,0,1,.2-.538,2.5,2.5,0,0,0-.082-2.045,7.086,7.086,0,0,0-1.221-1.709,3.4,3.4,0,0,1-.85-1.329,2.9,2.9,0,0,1-.035-.967c.12-1.221.479-2.5,0-3.635-.584-1.461-2.282-2.08-3.845-2.352a.876.876,0,0,1,.421-.026c1.6.257,3.386.877,4,2.378.462,1.137.105,2.413,0,3.635a2.757,2.757,0,0,0,.035.967,3.392,3.392,0,0,0,.847,1.329,7.081,7.081,0,0,1,1.221,1.709,2.489,2.489,0,0,1,.082,2.045,1.487,1.487,0,0,0-.2.538c-.02.418.415.681.736.947,1.2,1,1.151,2.811,1.169,4.383a22.124,22.124,0,0,0,2.092,9.245,2.732,2.732,0,0,1-1.549.292A2.643,2.643,0,0,0,980.629,453.332Z" transform="translate(-964.229 -426.141)"/>
      <path id="Path_697" data-name="Path 697" d="M994.349,519.859a10.46,10.46,0,0,1-.719-2.069,2.668,2.668,0,0,0,.693.459,10.88,10.88,0,0,0,.584,1.61,1.531,1.531,0,0,1-.944.12,1.486,1.486,0,0,0,.386-.12Z" transform="translate(-980.388 -491.011)"/>
      <path id="Path_698" data-name="Path 698" d="M963.919,433.058a3.366,3.366,0,0,0-.929-.219h.111a3.268,3.268,0,0,1,.824.061C963.922,432.947,963.919,433,963.919,433.058Z" transform="translate(-958.701 -430.879)"/>
      <path id="Path_699" data-name="Path 699" d="M950.209,448.321a10.7,10.7,0,0,0,1.479-.76,1.3,1.3,0,0,1,.432-.175,1.6,1.6,0,0,1,.456.026,1.83,1.83,0,0,0-.316.149,10.672,10.672,0,0,1-1.475.76,6.657,6.657,0,0,1-2.475.321A5.865,5.865,0,0,0,950.209,448.321Z" transform="translate(-948.31 -441.174)"/>
      <path id="Path_700" data-name="Path 700" d="M966.108,447l.026.132a2.864,2.864,0,0,1-.725.02,3.215,3.215,0,0,0,.7-.152Z" transform="translate(-960.414 -440.905)"/>
    </g>
    <path id="Path_701" data-name="Path 701" d="M994.6,481.944a1.782,1.782,0,0,0,.479,1.426,3.176,3.176,0,0,0,.678.5,1.84,1.84,0,0,0,.806.292,1.522,1.522,0,0,0,1.031-.45,6.865,6.865,0,0,0,1.666-2.907,21.815,21.815,0,0,0,1.259-4.3,36.43,36.43,0,0,1,.584-4.771c-.4-.806-.66-1.695-1.119-2.472a11.64,11.64,0,0,1-.771-1.446,5,5,0,0,1-.137-3.337.45.45,0,0,0-.532.026,1.119,1.119,0,0,0-.321.467,4.141,4.141,0,0,0-.318,1.961.78.78,0,0,1-.056.479.6.6,0,0,1-.52.219,4.619,4.619,0,0,1-1.2-.216,11.158,11.158,0,0,0-3.708-.307,1.753,1.753,0,0,0-.725.175.672.672,0,0,0-.371.6l2.963.435a1.224,1.224,0,0,1,.625.213.424.424,0,0,1,.085.584,1.169,1.169,0,0,1-.2.134.611.611,0,0,0,.023.976.625.625,0,0,1,.2.14c.123.164-.038.377-.091.584a.725.725,0,0,0,.356.739,2.607,2.607,0,0,0,.827.278,8.717,8.717,0,0,1,1.695.584.93.93,0,0,1,.441.33.99.99,0,0,1-.053.83l-.771,2.08c-.123.327-.243.652-.394.967-.2.406-.438.789-.64,1.2a11.927,11.927,0,0,0-.482,1.169C995.507,480.185,994.733,480.819,994.6,481.944Z" transform="translate(-716.394 -354.16)" fill="#a1616a"/>
    <path id="Path_702" data-name="Path 702" d="M477.354,249.17v98a32.46,32.46,0,0,0-10.118-1.56c-14.571,0-26.405,10.311-26.405,24.883s11.834,24.769,26.405,24.769,26.478-10.729,26.478-26.3V300.911h76.846v46.262a32.447,32.447,0,0,0-10.118-1.56c-14.571,0-26.405,10.311-26.405,24.883s11.834,24.769,26.405,24.769,26.478-10.729,26.478-26.3V249.17Zm93.208,36.524H493.716V265.533h76.846Z" transform="translate(-326.751 -201.814)" fill="#c25517" opacity="0.44"/>
    <path id="Path_703" data-name="Path 703" d="M209.441,212.17v65.772a24.88,24.88,0,1,0,12.447,21.505V237.094h24.953V212.17Z" transform="translate(-136.561 -175.625)" fill="#c25517" opacity="0.455"/>
    <path id="Path_704" data-name="Path 704" d="M228.677,722.049a15.877,15.877,0,0,0-4.573-1.619,20.912,20.912,0,0,0,3.422-.768c2.972-.941,4.47-2.2,3.346-2.82s-4.447-.357-7.419.584a11.456,11.456,0,0,0-2.849,1.265,5.709,5.709,0,0,0-2.446-2.124c-2.63-1.461-6.189-2.183-7.924-1.633s-1,2.168,1.639,3.62a15.816,15.816,0,0,0,4.091,1.522,24.064,24.064,0,0,0-2.82.5c-3.235.777-5.1,1.949-4.178,2.63s4.3.584,7.538-.187a14.087,14.087,0,0,0,3.389-1.2,5.458,5.458,0,0,0,2.489,2.224c2.63,1.461,6.189,2.183,7.924,1.633S231.306,723.5,228.677,722.049Z" transform="translate(-162.467 -531.358)" fill="#c25517"/>
    <path id="Path_705" data-name="Path 705" d="M317.264,658.091a7.743,7.743,0,0,0-2.218-.786,10.439,10.439,0,0,0,1.66-.371c1.443-.459,2.171-1.069,1.625-1.37a6.2,6.2,0,0,0-3.6.292,5.751,5.751,0,0,0-1.382.614,2.783,2.783,0,0,0-1.186-1.031,6.055,6.055,0,0,0-3.848-.792c-.841.266-.485,1.055.795,1.753a7.659,7.659,0,0,0,1.993.736,11.973,11.973,0,0,0-1.37.245c-1.569.374-2.478.944-2.028,1.271s2.089.292,3.658-.091a6.951,6.951,0,0,0,1.648-.584,2.625,2.625,0,0,0,1.207,1.078,6.056,6.056,0,0,0,3.848.795C318.906,659.584,318.547,658.795,317.264,658.091Z" transform="translate(-232.439 -488.752)" fill="#c25517"/>
    <path id="Path_706" data-name="Path 706" d="M154.622,587.2a4.858,4.858,0,0,0-1.4-.491,6.081,6.081,0,0,0,1.046-.234c.9-.292,1.359-.669,1.017-.856a3.912,3.912,0,0,0-2.253.178,3.59,3.59,0,0,0-.877.383,1.709,1.709,0,0,0-.742-.643,3.781,3.781,0,0,0-2.408-.5c-.529.167-.292.657.5,1.1a4.762,4.762,0,0,0,1.248.462,7.18,7.18,0,0,0-.859.155c-.982.234-1.552.584-1.271.795a3.965,3.965,0,0,0,2.291-.056,4.361,4.361,0,0,0,1.031-.365,1.627,1.627,0,0,0,.754.675,3.786,3.786,0,0,0,2.408.5C155.636,588.13,155.423,587.636,154.622,587.2Z" transform="translate(-119.875 -439.505)" fill="#c25517"/>
    <path id="Path_707" data-name="Path 707" d="M256.57,212.17V233H231.618v62.353A24.915,24.915,0,0,1,191.24,314.9a24.918,24.918,0,0,0,44.468-15.454V237.094h24.953V212.17Z" transform="translate(-150.088 -175.625)" opacity="0.1"/>
    <path id="Path_708" data-name="Path 708" d="M173.87,221.746l.085.637,2.761.392s.225-.169.584-.4a8.583,8.583,0,0,1,2.688-1.251c1.446-.292,6.045-2.352,4.564-2.487s-1.329.172-1.329.172a2.439,2.439,0,0,0-3.319-.137,23.06,23.06,0,0,1-5.373,2.823C174.121,221.656,173.87,221.746,173.87,221.746Z" transform="translate(-137.793 -179.79)" fill="#efb7b9"/>
    <path id="Path_709" data-name="Path 709" d="M201.736,204.788a4.675,4.675,0,0,1,1.324-.339,1.61,1.61,0,0,1,1.259.421c.178.184.292.421.467.608.842.9,2.475.228,3.489.926a3.465,3.465,0,0,1,1.037,1.975c.222.728.625,1.525,1.367,1.68a4.056,4.056,0,0,0,1.078-.041,1.061,1.061,0,0,1,.97.356c.345.523-.131,1.4.368,1.771.447.33,1.256-.131,1.569.327a.684.684,0,0,1-.108.76,5.281,5.281,0,0,0-.508.637.964.964,0,0,0,.95,1.408c.316-.032.652-.21.926-.056a.655.655,0,0,1,.292.517A1.359,1.359,0,0,1,215,217.168a3.021,3.021,0,0,1-1.511-.5,1.9,1.9,0,0,0-1.54-.248,2.379,2.379,0,0,0-.619.435,6.781,6.781,0,0,1-1.905,1.128,2.347,2.347,0,0,1-1.9.085c-.657-.336-1-1.154-1.692-1.4s-1.49.216-2.156.611-1.557.725-2.159.24c-.649-.523-.45-1.572-.844-2.305a2.265,2.265,0,0,0-.634-.7c-.444-.342-.95-.6-1.4-.935a2.337,2.337,0,0,1-.953-1.338,2.71,2.71,0,0,1,.543-1.9,5.263,5.263,0,0,0,.894-1.8c.088-.5,0-1.014.114-1.5a1.855,1.855,0,0,1,1.2-1.271c.327-.111.386-.082.552-.371A1.169,1.169,0,0,1,201.736,204.788Z" transform="translate(-154.629 -170.155)" fill="#3f3d56"/>
    <g id="Group_28" data-name="Group 28" transform="translate(43.03 40.422)" opacity="0.1">
      <path id="Path_710" data-name="Path 710" d="M249.464,225.44a2.486,2.486,0,0,1,.053.877A2.37,2.37,0,0,1,249.464,225.44Z" transform="translate(-234.316 -225.44)"/>
      <path id="Path_711" data-name="Path 711" d="M253.375,233.443a.955.955,0,0,0-.1.321.988.988,0,0,1,.035-.818,5.2,5.2,0,0,1,.508-.634,1.078,1.078,0,0,0,.146-.292l.023.026a.684.684,0,0,1-.105.757A5.224,5.224,0,0,0,253.375,233.443Z" transform="translate(-236.976 -230.097)"/>
      <path id="Path_712" data-name="Path 712" d="M198.589,231.322c.447.339.95.584,1.394.938a2.226,2.226,0,0,1,.634.7c.394.733.2,1.782.844,2.305.6.485,1.5.158,2.162-.24s1.426-.877,2.153-.611,1.034,1.066,1.695,1.4a2.383,2.383,0,0,0,1.9-.085,6.808,6.808,0,0,0,1.9-1.128,2.513,2.513,0,0,1,.619-.438,1.892,1.892,0,0,1,1.543.251,2.964,2.964,0,0,0,1.508.5,1.373,1.373,0,0,0,1.213-1.2.877.877,0,0,1,.064.257,1.356,1.356,0,0,1-1.213,1.438,3.035,3.035,0,0,1-1.508-.5,1.924,1.924,0,0,0-1.543-.251,2.58,2.58,0,0,0-.619.435,6.817,6.817,0,0,1-1.9,1.131,2.371,2.371,0,0,1-1.9.085c-.66-.336-1-1.154-1.695-1.4a2.76,2.76,0,0,0-2.153.611c-.663.4-1.56.725-2.162.237-.649-.523-.45-1.569-.844-2.305a2.249,2.249,0,0,0-.634-.7c-.441-.342-.947-.6-1.394-.938a2.338,2.338,0,0,1-.955-1.338,1.583,1.583,0,0,1-.029-.351A2.443,2.443,0,0,0,198.589,231.322Z" transform="translate(-197.668 -228.76)"/>
    </g>
    <path id="Path_713" data-name="Path 713" d="M202.442,286.059l-1,.213a1.715,1.715,0,0,0,2.51.558C205.472,285.764,202.442,286.059,202.442,286.059Z" transform="translate(-157.308 -227.898)" fill="#4c4981"/>
    <path id="Path_714" data-name="Path 714" d="M202.442,286.059l-1,.213a1.715,1.715,0,0,0,2.51.558C205.472,285.764,202.442,286.059,202.442,286.059Z" transform="translate(-157.308 -227.898)" opacity="0.1"/>
    <path id="Path_715" data-name="Path 715" d="M279.32,332.273s1.391.719,2.685,1.552a7.24,7.24,0,0,1,2.1,1.736c.69,1.169,4.041,2.437,4.041,2.437l3.325,2.53a4.751,4.751,0,0,1,1.858,1.639c.094.129.149.21.149.21l1.332-.172.7-.912s.178-2.01-1.207-1.987a1.906,1.906,0,0,1-.78-.2,16.474,16.474,0,0,1-3.573-2.732s-3.541-4.424-4.6-4.57a1.751,1.751,0,0,1-.333-.085,10.862,10.862,0,0,1-2.63-1.768Z" transform="translate(-212.432 -258.991)" fill="#efb7b9"/>
    <path id="Path_716" data-name="Path 716" d="M232.142,369.177a31.7,31.7,0,0,0,2.481,7.033,11.17,11.17,0,0,1,.979,3.15l.19,1.461a1.7,1.7,0,0,0,.21.567,3.088,3.088,0,0,0,.187.292l2.668-.821s-.155-.614-.389-1.318a5.947,5.947,0,0,0-.917-1.917c-.652-.64-.748-2.9-.748-2.9s-.543-4.342-.71-4.888a7.539,7.539,0,0,1-.292-1.6c-.026-.292-.044-.625-.047-1a20.48,20.48,0,0,0-.421-3.214l-3.112.564-.082,3.48a2.32,2.32,0,0,0,0,1.113Z" transform="translate(-178.99 -283.106)" fill="#efb7b9"/>
    <path id="Path_717" data-name="Path 717" d="M327.25,364.342c.094.129.149.21.149.21l1.332-.172.7-.912s.178-2.01-1.207-1.987a1.9,1.9,0,0,1-.78-.2c-.114.6.561,1.1.561,1.1s.292.2.213,1.148C328.176,364.173,327.607,364.31,327.25,364.342Z" transform="translate(-246.358 -281.167)" opacity="0.1"/>
    <path id="Path_718" data-name="Path 718" d="M326.75,357.925c.088.324.929.8,1.514,1.1.292.146.511.248.555.272.134.067.841-.719.938-1.353a11.77,11.77,0,0,1,1.782-2.606,7.072,7.072,0,0,0,.625-2.469c.064-.862-.292-.932-.716-.736a2.832,2.832,0,0,0-.8.628,2.14,2.14,0,0,1-1.037.538,5.074,5.074,0,0,0-1.493.637c-.409.263-.806.584-.877.877-.155.622.552,1.148.552,1.148s.292.2.213,1.148S326.741,357.9,326.75,357.925Z" transform="translate(-246.004 -274.627)" fill="#444053"/>
    <path id="Path_719" data-name="Path 719" d="M331.93,359.024c.292.146.511.248.555.272.134.067.841-.719.938-1.353a11.769,11.769,0,0,1,1.782-2.606,7.072,7.072,0,0,0,.625-2.469c.064-.862-.292-.932-.716-.736a9.729,9.729,0,0,1-.584,2.706C334.1,355.661,332.395,358.308,331.93,359.024Z" transform="translate(-249.67 -274.627)" opacity="0.1"/>
    <path id="Path_720" data-name="Path 720" d="M245.3,418.851l-.026.05a3.087,3.087,0,0,0,.187.292l2.668-.821s-.155-.614-.389-1.318c-1.055-.292-2.568,1.552-2.568,1.552Z" transform="translate(-188.26 -320.622)" opacity="0.1"/>
    <path id="Path_721" data-name="Path 721" d="M244.813,421.144a10.892,10.892,0,0,0,3.214.66c.763-.091.795-.444.742-1.169-.018-.234-.041-.5-.056-.812-.05-1.286-.567-1.546-.567-1.546-.847-2.221-3.287.76-3.287.76l.126.245a2.688,2.688,0,0,0-.248,1.213A3.54,3.54,0,0,0,244.813,421.144Z" transform="translate(-187.953 -320.929)" fill="#444053"/>
    <path id="Path_722" data-name="Path 722" d="M244.816,428.509a10.89,10.89,0,0,0,3.214.66c.763-.091.795-.444.742-1.169a2.358,2.358,0,0,1-1.814.52,7.138,7.138,0,0,1-2.218-.66A3.542,3.542,0,0,0,244.816,428.509Z" transform="translate(-187.956 -328.293)" opacity="0.1"/>
    <path id="Path_723" data-name="Path 723" d="M207.23,235.688l.877,3.8.178.783,1.61.2,1.66.21,1.806-.654a6.1,6.1,0,0,0,.088-3.007,1.9,1.9,0,0,0-.836-1.1,1.856,1.856,0,0,1-.348-.269,1.525,1.525,0,0,1-.292-.418,1.727,1.727,0,0,1-.155-.6,4.319,4.319,0,0,1,.558-2.148s-3.828-1.306-3.53-.462c.2.546-.345,1.5-.748,2.1-.219.324-.4.549-.4.549Z" transform="translate(-161.406 -189.475)" fill="#efb7b9"/>
    <circle id="Ellipse_11" data-name="Ellipse 11" cx="3.325" cy="3.325" r="3.325" transform="translate(45.952 38.099)" opacity="0.1"/>
    <circle id="Ellipse_12" data-name="Ellipse 12" cx="3.325" cy="3.325" r="3.325" transform="translate(45.938 37.977)" fill="#efb7b9"/>
    <path id="Path_724" data-name="Path 724" d="M207.151,256.8a8.138,8.138,0,0,0,.877,1.888l4.643,1.14,3.316-3.471v-.023c-.1-.324-1.367-4.418-.453-5.426.958-1.049.584-4.009.584-4.009s-1.657-1.905-1.993-2.367-2.487-.824-2.487-.824c.108.146.207.292.292.418a4.091,4.091,0,0,1,.529,1.122,1.677,1.677,0,0,1-.044,1.218,1.338,1.338,0,0,0-.114.313c-.362,1.587-2.016,1.365-2.674,1.207-.169-.041-.275-.076-.275-.076l-1.581.05-.993.032s.453,7.825.345,8.447A1,1,0,0,0,207.151,256.8Z" transform="translate(-161.088 -197.95)" fill="#f86d70"/>
    <path id="Path_725" data-name="Path 725" d="M206.82,258.653l2.878-.377h-.053c-.169-.041-.272-.076-.272-.076l-1.584.05-.991.032S206.806,258.41,206.82,258.653Z" transform="translate(-161.102 -208.206)" fill="#925978"/>
    <path id="Path_726" data-name="Path 726" d="M167.52,208.4l1.248.3,1.966-.257.511-.535Z" transform="translate(-118.573 -147.157)" fill="#925978"/>
    <path id="Path_727" data-name="Path 727" d="M174.63,211.065l.564.137.231-.242Z" transform="translate(-123.605 -149.316)" fill="#925978"/>
    <path id="Path_728" data-name="Path 728" d="M207.165,254.092c.742.076,1.426.114,1.426.114l3.825-.143v-3.994a5.665,5.665,0,0,0-1.543-1.017c-.666-.231-1.461-.938-1.3-2.8a2.673,2.673,0,0,1,.032-.333,4.287,4.287,0,0,0,.035-.628,3.36,3.36,0,0,0-1.061-2.46.5.5,0,0,0-.056-.05l-.622-2.9a.619.619,0,0,0-.126.018c-.219.324-.4.549-.4.549l-.459,1.005.877,3.8-.993.032s.453,7.825.345,8.447A1,1,0,0,0,207.165,254.092Z" transform="translate(-161.102 -195.239)" opacity="0.1"/>
    <path id="Path_729" data-name="Path 729" d="M198.8,254.254l3.825-.14v-4a5.7,5.7,0,0,0-1.54-1.017c-.7-.245-1.543-1.017-1.271-3.135a3.468,3.468,0,0,0-1.017-3.106l-.058-.05-.622-2.9a1.347,1.347,0,0,0-.985.564,2.47,2.47,0,0,1-.231.339.584.584,0,0,1-.768.228c-.4-.178-2.139-.912-2.527-.193s-.462,5-.462,5a3.27,3.27,0,0,1,1.125,1.85c.266,1.224.71,1.253.71,1.253l.479,3.506s.435.763.111,1.183" transform="translate(-151.433 -195.26)" fill="#400f49"/>
    <path id="Path_730" data-name="Path 730" d="M206,240.848l.652,1.952,1.245.108-.058-.05-.622-2.9a1.347,1.347,0,0,0-.985.564,2.47,2.47,0,0,1-.231.324Z" transform="translate(-160.535 -195.295)" fill="#444053"/>
    <path id="Path_731" data-name="Path 731" d="M173.87,230.1l.085.637,2.761.392s.225-.169.584-.4c-.292-.067-1.665-.365-2.384-.584-.266-.082-.441-.152-.447-.2s.018-.056.061-.091C174.121,230,173.87,230.1,173.87,230.1Z" transform="translate(-137.793 -188.139)" opacity="0.1"/>
    <path id="Path_732" data-name="Path 732" d="M160.974,232.089s3.129,2.376,5.069,2.758a13.414,13.414,0,0,1,3.8,1.753l1.169-4.506-.716-.494a2.494,2.494,0,0,1-1.592.354c-.736-.175-1.552-.292-1.552-.292a12,12,0,0,0-1.984-.543c-.526-.044-.313-.728.213-1.09a1.142,1.142,0,0,1,.219-.123.678.678,0,0,0,.877.2,2,2,0,0,0,.514-.479h0a6.672,6.672,0,0,0,.584-.877s-1.633-.351-2.446-.6c-.266-.082-.441-.152-.447-.2-.023-.187,1.461-.777,1.461-.777s-1.268-.614-1.782-.167c0,0,.333.248.064.494s-3.506,2.738-3.506,2.738S159.32,231.022,160.974,232.089Z" transform="translate(-128.135 -186.01)" fill="#400f49"/>
    <path id="Path_733" data-name="Path 733" d="M172,233.286l1.733.248a1.142,1.142,0,0,1,.219-.123.678.678,0,0,0,.877.2,2,2,0,0,0,.514-.479h0a6.853,6.853,0,0,0,.473-.739s-1.633-.351-2.446-.6Z" transform="translate(-136.47 -189.512)" opacity="0.1"/>
    <path id="Path_734" data-name="Path 734" d="M172.34,232.8l1.844.266a.678.678,0,0,0,.877.2,4.263,4.263,0,0,0,1.1-1.362s-1.633-.351-2.446-.6Z" transform="translate(-136.711 -189.166)" fill="#444053"/>
    <path id="Path_735" data-name="Path 735" d="M282.391,330l-3.071,2.323s1.391.719,2.685,1.552c1.131-.766,2.2-1.461,3.007-2.107A11.2,11.2,0,0,1,282.391,330Z" transform="translate(-212.432 -259.027)" opacity="0.1"/>
    <path id="Path_736" data-name="Path 736" d="M232.142,369.177a10.407,10.407,0,0,0,2.25-.538s.567-.123,1.408-.4c-.026-.292-.044-.625-.047-1a20.482,20.482,0,0,0-.421-3.214l-3.112.564-.082,3.48A2.32,2.32,0,0,0,232.142,369.177Z" transform="translate(-178.99 -283.106)" opacity="0.1"/>
    <path id="Path_737" data-name="Path 737" d="M208.837,298.653c.625.926,2.338,4.865,2.338,4.865a16.754,16.754,0,0,0,1.3,2.007c.681.856,1.151,2.782,1.668,4.321s-.152,1.251-.079,2.045,3-.234,3-.234,5.975-1.315,7.8-4.967,9.119-6.96,10.595-9.014-.418-1.207-.345-2.32a3.148,3.148,0,0,0-.768-2.045s-2.752-.777-3.2-1.318A19.224,19.224,0,0,0,228.5,290.1a14.711,14.711,0,0,1-2.338-1.21,15.118,15.118,0,0,0-3.471-1.461c-.751-.178-1.487-1.256-1.487-1.256s-.465.061-1.151-.6-3.568-1.239-3.568-1.239c-4.918,3.623-8.316,3.118-8.316,3.118l-.079.684C205.48,291.538,208.212,297.727,208.837,298.653Z" transform="translate(-161.231 -226.701)" fill="#400f49"/>
    <path id="Path_738" data-name="Path 738" d="M210.79,288.168s4.251,1.4,8.4-3.778c-4.92,3.606-8.319,3.1-8.319,3.1Z" transform="translate(-163.926 -226.743)" opacity="0.1"/>
    <path id="Path_739" data-name="Path 739" d="M235.83,305.588s5.709,8.243,6.063,8.544S236.131,305.486,235.83,305.588Z" transform="translate(-181.649 -241.747)" opacity="0.1"/>
    <path id="Path_740" data-name="Path 740" d="M226.8,303.43s3.953,6.136,3.874,6.966C230.674,310.4,226.858,304.5,226.8,303.43Z" transform="translate(-175.258 -240.22)" opacity="0.1"/>
    <path id="Path_741" data-name="Path 741" d="M218.028,309.2s.73,3.433-.368,5.379Z" transform="translate(-168.789 -244.304)" opacity="0.1"/>
    <path id="Path_742" data-name="Path 742" d="M212.8,309.88a15.972,15.972,0,0,1-.38,3.582Z" transform="translate(-165.08 -244.785)" opacity="0.1"/>
    <path id="Path_743" data-name="Path 743" d="M196.46,213.7l5.251,2.057-1.923.251Z" transform="translate(-139.057 -151.256)" opacity="0.1"/>
    <path id="Path_744" data-name="Path 744" d="M208.848,217.222c.263.175.482.453.795.494a1.251,1.251,0,0,0,.646-.158,2.375,2.375,0,0,1,1.657-.225c.771.254,1.2,1.142,1.964,1.405a1.4,1.4,0,0,0,.736.041,1.426,1.426,0,0,0,.415-.169,1.335,1.335,0,0,0,.584-.83,1.718,1.718,0,0,0-.584-1.619,3.585,3.585,0,0,0-1.633-.742,16.171,16.171,0,0,0-4.722-.108.686.686,0,0,0-.368.1,2.193,2.193,0,0,0-.564,1.379C207.889,217.182,208.8,216.889,208.848,217.222Z" transform="translate(-161.782 -177.765)" opacity="0.1"/>
    <path id="Path_745" data-name="Path 745" d="M208.8,216.8c.263.172.479.453.795.494a1.236,1.236,0,0,0,.643-.161,2.377,2.377,0,0,1,1.657-.225c.771.257,1.2,1.145,1.964,1.405a1.373,1.373,0,0,0,.736.041,1.344,1.344,0,0,0,.415-.167,1.367,1.367,0,0,0,.6-.83,1.727,1.727,0,0,0-.6-1.622,3.6,3.6,0,0,0-1.633-.739,16.17,16.17,0,0,0-4.722-.111.7.7,0,0,0-.368.1,2.2,2.2,0,0,0-.564,1.379C207.84,216.77,208.754,216.46,208.8,216.8Z" transform="translate(-161.747 -177.464)" fill="#3f3d56"/>
    <path id="Path_746" data-name="Path 746" d="M281,221.1l.5,2.031.652-.394L285.7,220.6s2.682-.1,2.89-2.256-2.98-.02-3.15.143-.555.453-.555.453l-3.3,1.841Z" transform="translate(-213.621 -179.315)" fill="#efb7b9"/>
    <path id="Path_747" data-name="Path 747" d="M281,229.311l.5,2.031.652-.394a4.836,4.836,0,0,0-.584-1.958Z" transform="translate(-213.621 -187.531)" opacity="0.1"/>
    <path id="Path_748" data-name="Path 748" d="M221.18,251.6l.722,4.237,4.272-.885c-.1-.324-1.367-4.418-.453-5.426.958-1.049.584-4.009.584-4.009s-1.657-1.905-1.993-2.367-2.487-.824-2.487-.824a1.727,1.727,0,0,1-.155-.6,2.432,2.432,0,0,0-.164.453,1.707,1.707,0,0,0,1.14,1.692c.073.035.149.067.231.1.129.053.272.1.424.149l.07.02a2.4,2.4,0,0,1,1.674,1.233,3.153,3.153,0,0,1,.625,2.221C225.537,248.887,221.18,251.6,221.18,251.6Z" transform="translate(-171.28 -196.541)" opacity="0.1"/>
    <path id="Path_749" data-name="Path 749" d="M222,242.485l.722,4.234,4.83-1.005a8.7,8.7,0,0,0-.482-2.247,11.881,11.881,0,0,1-.269-3.182c2.045-2.2.97-3.994.97-3.994s6.01-.976,6.113-1.169a17.776,17.776,0,0,1,2.107-1.262,11.278,11.278,0,0,0,2.472-.877,2.63,2.63,0,0,1,.356-.324.942.942,0,0,1,.117-.076l.161,1.388h.073a1.979,1.979,0,0,0,.947-.374c.5-.38-.132-4.544-.614-4.69a.555.555,0,0,0-.278,0,3.139,3.139,0,0,0-1.037.561l-.085.067-.029.026a20.459,20.459,0,0,0-3.264,1.557c-.543.491-4.774,1.113-4.774,1.113s-1.9.45-2.142.178-3.141-.716-3.384-.292-.915.348-.915.348c-.476-.549-.806-.336-1.008-.02a2.206,2.206,0,0,0-.257.611,1.785,1.785,0,0,0,1.37,1.791c.152.058.316.117.494.169a2.394,2.394,0,0,1,1.674,1.233,3.147,3.147,0,0,1,.628,2.221C226.365,239.774,222,242.485,222,242.485Z" transform="translate(-171.86 -187.46)" fill="#400f49"/>
    <path id="Path_750" data-name="Path 750" d="M278.3,229a.45.45,0,0,1,.155.018c.482.146,1.107,4.313.611,4.693a1.958,1.958,0,0,1-.844.365h-.073l-.161-1.388a.943.943,0,0,0-.117.076V232.7a3.605,3.605,0,0,0-.687-3.083Z" transform="translate(-210.917 -187.536)" opacity="0.1"/>
    <path id="Path_751" data-name="Path 751" d="M278.136,232.6l.161,1.388a1.943,1.943,0,0,0,1.031-.394c.5-.38-.131-4.544-.614-4.69-.38-.117-1.049.356-1.315.558A3.611,3.611,0,0,1,278.136,232.6Z" transform="translate(-211.073 -187.458)" fill="#444053"/>
    <path id="Path_752" data-name="Path 752" d="M224.54,243.432l.693-.649-1.806-1.753a2.206,2.206,0,0,0-.257.611A1.791,1.791,0,0,0,224.54,243.432Z" transform="translate(-172.689 -196.053)" fill="#444053"/>
    <path id="Path_753" data-name="Path 753" d="M208.778,219.964c.263.172.479.453.795.494a1.236,1.236,0,0,0,.643-.161,2.377,2.377,0,0,1,1.657-.225c.771.257,1.2,1.145,1.964,1.405a1.373,1.373,0,0,0,.736.041,1.323,1.323,0,0,0,1.049-1.367,1.385,1.385,0,0,1,0,.619,1.356,1.356,0,0,1-.6.83,1.315,1.315,0,0,1-.415.167,1.362,1.362,0,0,1-.733-.041c-.771-.26-1.2-1.148-1.966-1.405a2.393,2.393,0,0,0-1.657.225,1.236,1.236,0,0,1-.643.161c-.313-.041-.532-.321-.795-.494-.044-.339-.958-.029-1.072-.435a.486.486,0,0,1,0-.187C207.919,219.9,208.734,219.646,208.778,219.964Z" transform="translate(-161.759 -180.877)" opacity="0.1"/>
    <path id="Path_754" data-name="Path 754" d="M219.209,253.6s-.383,1.075.105,1.438c0,0-.535-1.423-.844-1.391" transform="translate(-169.362 -204.95)" opacity="0.1"/>
    <path id="Path_755" data-name="Path 755" d="M299.224,217.76s-2.469,2.136-.684,2.481S299.224,217.76,299.224,217.76Z" transform="translate(-225.578 -179.582)" fill="#efb7b9"/>
    <g id="Group_29" data-name="Group 29" transform="translate(126.518 47.356)" opacity="0.1">
      <path id="Path_756" data-name="Path 756" d="M596.9,420.25H520.052v68.062c0,15.562-11.907,26.3-26.478,26.3a29.255,29.255,0,0,1-10.174-1.785,28.5,28.5,0,0,0,13.972,3.538c14.571,0,26.478-10.729,26.478-26.3V422H596.9Z" transform="translate(-483.4 -370.262)"/>
      <path id="Path_757" data-name="Path 757" d="M558.42,232.2h3.8V213.793h73.053V212.04H558.42Z" transform="translate(-521.774 -197.436)"/>
      <path id="Path_758" data-name="Path 758" d="M839.042,249.17V367.214c0,15.562-11.907,26.3-26.478,26.3a29.258,29.258,0,0,1-10.174-1.785,28.5,28.5,0,0,0,13.972,3.538c14.571,0,26.478-10.729,26.478-26.3V249.17Z" transform="translate(-709.185 -249.17)"/>
    </g>
    <path id="Path_759" data-name="Path 759" d="M628.135,130.937c1.885,3.895,4.967,8.324,8.453,6.633s6.089-8.868,4.2-12.769-6.25-5.674-9.744-3.983S626.248,127.048,628.135,130.937Z" transform="translate(-458.716 -110.512)" fill="#a99f99"/>
    <path id="Path_760" data-name="Path 760" d="M651.433,181.918s.681-.114.421-.675a1.037,1.037,0,0,0-.082-.143,1.8,1.8,0,0,1-.26-.725,2.626,2.626,0,0,1,.032-.9l-1.855-.123s.722.614.637.935a.184.184,0,0,1-.085.111.292.292,0,0,1-.123.053l-.14.041c-.488.172-.292.418-.292.418C649.75,181.708,651.433,181.918,651.433,181.918Z" transform="translate(-474.554 -152.395)" fill="#c25517"/>
    <path id="Path_761" data-name="Path 761" d="M651.68,182.661l1.309.181a1.638,1.638,0,0,1-.038-.2c-.333-.015-.856-.058-1.186-.091A.184.184,0,0,1,651.68,182.661Z" transform="translate(-475.993 -154.66)" fill="#444053"/>
    <path id="Path_762" data-name="Path 762" d="M651.433,184.679s.681-.114.421-.675a2.1,2.1,0,0,1-.8.032,1.779,1.779,0,0,1-1.072-.786c-.488.172-.292.418-.292.418C649.75,184.468,651.433,184.679,651.433,184.679Z" transform="translate(-474.554 -155.155)" fill="#c25517"/>
    <path id="Path_763" data-name="Path 763" d="M651.433,184.679s.681-.114.421-.675a2.1,2.1,0,0,1-.8.032,1.779,1.779,0,0,1-1.072-.786c-.488.172-.292.418-.292.418C649.75,184.468,651.433,184.679,651.433,184.679Z" transform="translate(-474.554 -155.155)" opacity="0.1"/>
    <path id="Path_764" data-name="Path 764" d="M652.37,123.727s2.075-.251,2.662,1.131a1.669,1.669,0,0,0-.745.044,1.058,1.058,0,0,1-.485.094A2.782,2.782,0,0,0,652.37,123.727Z" transform="translate(-476.481 -113.011)" fill="#fff" opacity="0.1"/>
    <path id="Path_765" data-name="Path 765" d="M658.063,213.879a.735.735,0,0,0,.117-.117,1.579,1.579,0,0,1,.444-.351,1.551,1.551,0,0,1,.184-.094,2.708,2.708,0,0,1,.584-.175,2.342,2.342,0,0,1,.292-.032l-.263-1.256v-.018l-.114-.546a3.959,3.959,0,0,1-.263.459c-.134.2-.292.4-.467.4a.207.207,0,0,1-.131-.05.4.4,0,0,1-.082-.105c-.029-.047-.053-.088-.079-.126-.292-.421-.476-.158-.476-.158-.333.12-.47.517-.52.918a.568.568,0,0,1-.018.172,4.588,4.588,0,0,0,.029.85S657.6,214.282,658.063,213.879Z" transform="translate(-479.945 -175.002)" fill="#a99f99"/>
    <path id="Path_766" data-name="Path 766" d="M661.6,215.379a1.557,1.557,0,0,1,.184-.094c-.064-.272-.143-.681-.2-1v-.067a.2.2,0,0,0-.018-.1.207.207,0,0,1-.132-.05l.029.2v.079Z" transform="translate(-482.901 -176.97)" fill="#444053"/>
    <path id="Path_767" data-name="Path 767" d="M658.063,214.708a2.1,2.1,0,0,1-.245-.766,1.66,1.66,0,0,1,.055-.485c.015-.047.026-.094.044-.137a1.423,1.423,0,0,1,.368-.619c-.292-.421-.476-.158-.476-.158-.333.12-.47.517-.52.917a.57.57,0,0,1-.017.172,4.593,4.593,0,0,0,.029.85S657.6,215.112,658.063,214.708Z" transform="translate(-479.945 -175.832)" fill="#838180"/>
    <path id="Path_769" data-name="Path 769" d="M607.513,147.033a21.407,21.407,0,0,0,5.128,2.516,6.3,6.3,0,0,0,3.67.193,3.363,3.363,0,0,0,1.245-.719,3.549,3.549,0,0,0,.628-.748c1.236-1.931,1.213-5.327.234-8.266a9.087,9.087,0,0,0-3.311-4.815c-3.641-2.337-8.292-1.578-10.39,1.692S603.873,144.7,607.513,147.033Z" transform="translate(-442.032 -120.18)" fill="#a99f99"/>
    <path id="Path_771" data-name="Path 771" d="M645.9,187.109c.465.649,2-.047,2-.047s.523-.45,0-.792a1.242,1.242,0,0,0-.143-.082,1.629,1.629,0,0,1-.465-.33c-.047-.047-.093-.1-.137-.149a2.735,2.735,0,0,1-.327-.517,2.166,2.166,0,0,1-.114-.272l-1.648.877a3.735,3.735,0,0,1,.517.126c.237.076.47.187.514.339a.184.184,0,0,1,0,.14.347.347,0,0,1-.079.108,1.432,1.432,0,0,0-.1.108C645.593,187.006,645.9,187.109,645.9,187.109Z" transform="translate(-471.314 -156.337)" fill="#c25517"/>
    <path id="Path_772" data-name="Path 772" d="M648.58,188.351l1.207-.532c-.047-.047-.094-.1-.137-.149-.292.158-.757.394-1.058.541a.184.184,0,0,1-.012.14Z" transform="translate(-473.799 -158.284)" fill="#444053"/>
    <path id="Path_773" data-name="Path 773" d="M647.59,190.379c.465.649,2-.047,2-.047s.523-.45,0-.792a2.019,2.019,0,0,1-.669.444,1.779,1.779,0,0,1-1.321-.108C647.283,190.276,647.59,190.379,647.59,190.379Z" transform="translate(-473.004 -159.607)" fill="#c25517"/>
    <path id="Path_774" data-name="Path 774" d="M647.59,190.379c.465.649,2-.047,2-.047s.523-.45,0-.792a2.019,2.019,0,0,1-.669.444,1.779,1.779,0,0,1-1.321-.108C647.283,190.276,647.59,190.379,647.59,190.379Z" transform="translate(-473.004 -159.607)" opacity="0.1"/>
    <path id="Path_775" data-name="Path 775" d="M618.28,137.364s1.639-1.294,2.861-.424a1.683,1.683,0,0,0-.611.427,1.06,1.06,0,0,1-.368.333A2.785,2.785,0,0,0,618.28,137.364Z" transform="translate(-452.352 -122.164)" fill="#fff" opacity="0.1"/>
    <g id="Group_30" data-name="Group 30" transform="translate(181.108 27.011)" opacity="0.1">
      <path id="Path_776" data-name="Path 776" d="M677,181.36l-.38-1.82a3.5,3.5,0,0,1-.263.459,3.29,3.29,0,0,0,.351,1.4,2.045,2.045,0,0,1,.292-.035Z" transform="translate(-674.57 -179.54)"/>
      <path id="Path_777" data-name="Path 777" d="M671.041,182.132a.876.876,0,0,0,.117-.117,1.633,1.633,0,0,1,.444-.354,1.556,1.556,0,0,1,.184-.093,2.5,2.5,0,0,1,.584-.172,2.048,2.048,0,0,1,.292-.035l-.38-1.82a3.5,3.5,0,0,1-.263.459c-.134.2-.307.4-.467.406a.214.214,0,0,1-.129-.053.358.358,0,0,1-.091-.094c-.026-.047-.053-.088-.076-.126-.292-.421-.479-.155-.479-.155-.751.272-.508,1.94-.508,1.94S670.571,182.532,671.041,182.132Z" transform="translate(-670.232 -179.54)"/>
      <path id="Path_778" data-name="Path 778" d="M674.5,183.615a1.558,1.558,0,0,1,.184-.094c-.076-.318-.169-.836-.231-1.169a.213.213,0,0,1-.129-.053Z" transform="translate(-673.126 -181.494)"/>
      <path id="Path_779" data-name="Path 779" d="M671.062,182.964a2.141,2.141,0,0,1-.245-.768,1.794,1.794,0,0,1,.47-1.242c-.292-.421-.479-.155-.479-.155-.751.272-.508,1.94-.508,1.94S670.592,183.365,671.062,182.964Z" transform="translate(-670.253 -180.373)"/>
      <path id="Path_780" data-name="Path 780" d="M671.062,182.964a2.141,2.141,0,0,1-.245-.768,1.794,1.794,0,0,1,.47-1.242c-.292-.421-.479-.155-.479-.155-.751.272-.508,1.94-.508,1.94S670.592,183.365,671.062,182.964Z" transform="translate(-670.253 -180.373)" opacity="0.1"/>
    </g>
    <path id="Path_781" data-name="Path 781" d="M670.235,180.9a.729.729,0,0,0,.117-.117,1.633,1.633,0,0,1,.444-.351,1.558,1.558,0,0,1,.184-.094,2.5,2.5,0,0,1,.584-.172,2.044,2.044,0,0,1,.292-.035l-.38-1.82a3.724,3.724,0,0,1-.263.459c-.134.2-.292.4-.468.4a.193.193,0,0,1-.129-.05.4.4,0,0,1-.085-.105c-.026-.047-.053-.088-.076-.126-.292-.421-.479-.158-.479-.158-.751.275-.508,1.943-.508,1.943S669.765,181.3,670.235,180.9Z" transform="translate(-488.558 -151.659)" fill="#c25517"/>
    <path id="Path_782" data-name="Path 782" d="M673.675,182.392a1.558,1.558,0,0,1,.184-.094c-.076-.318-.169-.836-.231-1.169a.193.193,0,0,1-.129-.05Z" transform="translate(-491.437 -153.619)" fill="#444053"/>
    <path id="Path_783" data-name="Path 783" d="M670.278,181.729a2.108,2.108,0,0,1-.245-.766,1.794,1.794,0,0,1,.485-1.242c-.292-.421-.479-.158-.479-.158-.751.275-.508,1.943-.508,1.943S669.807,182.132,670.278,181.729Z" transform="translate(-488.601 -152.488)" fill="#c25517"/>
    <path id="Path_784" data-name="Path 784" d="M670.278,181.729a2.108,2.108,0,0,1-.245-.766,1.794,1.794,0,0,1,.485-1.242c-.292-.421-.479-.158-.479-.158-.751.275-.508,1.943-.508,1.943S669.807,182.132,670.278,181.729Z" transform="translate(-488.601 -152.488)" opacity="0.1"/>
    <g id="Group_31" data-name="Group 31" transform="translate(179.414 23.455)" opacity="0.1">
      <path id="Path_785" data-name="Path 785" d="M666.434,167.846a3.335,3.335,0,0,0,1.35.5,2.454,2.454,0,0,1,.134-.263l-1.718-.713A3.5,3.5,0,0,1,666.434,167.846Z" transform="translate(-665.684 -167.37)"/>
      <path id="Path_786" data-name="Path 786" d="M665.779,170.382s.681.114.617-.5a.945.945,0,0,0-.032-.164,1.614,1.614,0,0,1-.041-.564,1.551,1.551,0,0,1,.029-.2,2.813,2.813,0,0,1,.321-.844l-1.718-.713a3.509,3.509,0,0,1,.24.47c.094.228.158.482.07.614a.2.2,0,0,1-.117.079.309.309,0,0,1-.131,0h-.149c-.514,0-.4.292-.4.292C664.257,169.643,665.779,170.382,665.779,170.382Z" transform="translate(-664.445 -167.384)"/>
      <path id="Path_787" data-name="Path 787" d="M666.8,171.178l1.169.584a1.571,1.571,0,0,1,.029-.2c-.31-.12-.789-.333-1.093-.468A.2.2,0,0,1,666.8,171.178Z" transform="translate(-666.109 -170.003)"/>
      <path id="Path_788" data-name="Path 788" d="M665.768,173.22s.681.114.617-.5a2.1,2.1,0,0,1-.771-.228,1.8,1.8,0,0,1-.763-1.09c-.514,0-.4.292-.4.292C664.246,172.481,665.768,173.22,665.768,173.22Z" transform="translate(-664.434 -170.222)"/>
      <path id="Path_789" data-name="Path 789" d="M665.768,173.22s.681.114.617-.5a2.1,2.1,0,0,1-.771-.228,1.8,1.8,0,0,1-.763-1.09c-.514,0-.4.292-.4.292C664.246,172.481,665.768,173.22,665.768,173.22Z" transform="translate(-664.434 -170.222)" opacity="0.1"/>
    </g>
    <path id="Path_790" data-name="Path 790" d="M665.34,169.745s.681.114.617-.5a.9.9,0,0,0-.032-.164,1.637,1.637,0,0,1-.041-.567,1.518,1.518,0,0,1,.029-.2,2.386,2.386,0,0,1,.187-.584,2.454,2.454,0,0,1,.134-.263l-1.718-.716a3.508,3.508,0,0,1,.234.476c.094.231.158.482.07.617a.21.21,0,0,1-.117.076.359.359,0,0,1-.131,0h-.149c-.514,0-.4.292-.4.292C663.824,169.009,665.34,169.745,665.34,169.745Z" transform="translate(-484.718 -143.476)" fill="#c25517"/>
    <path id="Path_791" data-name="Path 791" d="M666.39,170.565l1.169.584a1.507,1.507,0,0,1,.029-.2c-.31-.12-.789-.333-1.093-.467A.211.211,0,0,1,666.39,170.565Z" transform="translate(-486.405 -146.117)" fill="#444053"/>
    <path id="Path_792" data-name="Path 792" d="M665.34,172.6s.681.114.617-.5a2.174,2.174,0,0,1-.771-.231,1.794,1.794,0,0,1-.763-1.087c-.514,0-.4.292-.4.292C663.824,171.861,665.34,172.6,665.34,172.6Z" transform="translate(-484.718 -146.329)" fill="#c25517"/>
    <path id="Path_793" data-name="Path 793" d="M665.34,172.6s.681.114.617-.5a2.174,2.174,0,0,1-.771-.231,1.794,1.794,0,0,1-.763-1.087c-.514,0-.4.292-.4.292C663.824,171.861,665.34,172.6,665.34,172.6Z" transform="translate(-484.718 -146.329)" opacity="0.1"/>
    <path id="Path_794" data-name="Path 794" d="M644.627,197.821a3.632,3.632,0,0,1,.266-.456c.14-.2.313-.4.47-.4a.184.184,0,0,1,.131.053.38.38,0,0,1,.082.1c.026.05.053.091.076.129.292.427.479.161.479.161.754-.263.526-1.937.526-1.937s-.292-.628-.76-.231a1.081,1.081,0,0,0-.12.114,1.868,1.868,0,0,1-.631.441,2.63,2.63,0,0,1-.584.167,1.857,1.857,0,0,1-.292.032Z" transform="translate(-470.748 -163.549)" fill="#c25517"/>
    <path id="Path_795" data-name="Path 795" d="M647.476,198.409a.184.184,0,0,1,.132.053l-.164-1.312a1.536,1.536,0,0,1-.184.091C647.336,197.562,647.424,198.079,647.476,198.409Z" transform="translate(-472.864 -164.994)" fill="#444053"/>
    <path id="Path_796" data-name="Path 796" d="M649,197.248c.292.427.479.161.479.161.754-.263.526-1.937.526-1.937s-.292-.628-.76-.231a2.045,2.045,0,0,1,.234.768A1.77,1.77,0,0,1,649,197.248Z" transform="translate(-474.096 -163.549)" fill="#c25517"/>
    <path id="Path_797" data-name="Path 797" d="M649,197.248c.292.427.479.161.479.161.754-.263.526-1.937.526-1.937s-.292-.628-.76-.231a2.045,2.045,0,0,1,.234.768A1.77,1.77,0,0,1,649,197.248Z" transform="translate(-474.096 -163.549)" opacity="0.1"/>
    <path id="Path_798" data-name="Path 798" d="M637.075,196.212a5.712,5.712,0,0,0,.877-2.922c.14-.2.313-.4.47-.4a.184.184,0,0,1,.131.053.379.379,0,0,1,.082.1c.026.05.053.091.076.129.292.427.479.161.479.161.754-.263.526-1.937.526-1.937s-.292-.628-.76-.231a1.075,1.075,0,0,0-.12.114,1.869,1.869,0,0,1-.631.441,2.63,2.63,0,0,1-.584.167,3.928,3.928,0,0,0-.541-.812,6.664,6.664,0,0,0-2.6-1.715C634.889,191.952,635.652,194.681,637.075,196.212Z" transform="translate(-463.819 -159.48)" opacity="0.1"/>
    <path id="Path_799" data-name="Path 799" d="M657.39,173.057a5.072,5.072,0,0,0,.628-.14,5.5,5.5,0,0,0,.558-.193l.12-.05c.155-.067.313-.14.47-.222s.237-.123.356-.19a13.256,13.256,0,0,0,5.347-6.481,8.5,8.5,0,0,0,.523-2.226,5.986,5.986,0,0,0-.018-1.213,8.557,8.557,0,0,0-1.087-3.275c-.064-.108-.126-.21-.193-.31a6.98,6.98,0,0,0-6.53-3.343,7.109,7.109,0,0,0,2.51,3.763c.094.231.158.482.07.617a.21.21,0,0,1-.117.076.36.36,0,0,1-.132,0h-.149c-.514,0-.4.292-.4.292-.2.774,1.315,1.514,1.315,1.514s.681.114.616-.5a.9.9,0,0,0-.032-.164,1.633,1.633,0,0,1-.041-.567,1.527,1.527,0,0,1,.029-.2,2.384,2.384,0,0,1,.187-.584,3.756,3.756,0,0,0,.976,0,5.184,5.184,0,0,0,1.332-.362c-.061.1-.117.193-.169.292a5.733,5.733,0,0,0-.877,2.922c-.134.2-.292.4-.467.4a.193.193,0,0,1-.129-.05.4.4,0,0,1-.085-.105c-.026-.047-.053-.088-.076-.126-.292-.421-.479-.158-.479-.158-.751.275-.508,1.943-.508,1.943s.292.625.763.222a.734.734,0,0,0,.117-.117,1.635,1.635,0,0,1,.444-.351,1.571,1.571,0,0,1,.184-.094,2.5,2.5,0,0,1,.584-.172,3.719,3.719,0,0,0,.546.809l.117.126-.041.038a23.093,23.093,0,0,0-2.592,2.758,10.345,10.345,0,0,0-.666.929q-.216.33-.4.657a5.748,5.748,0,0,0-.859,2.922c-.134.2-.292.4-.467.4a.207.207,0,0,1-.131-.05.4.4,0,0,1-.082-.105c-.029-.047-.053-.088-.079-.126-.292-.421-.476-.158-.476-.158A1.1,1.1,0,0,0,657.39,173.057Z" transform="translate(-480.034 -135.429)" opacity="0.1"/>
    <g id="Group_32" data-name="Group 32" transform="translate(170.414 19.84)" opacity="0.1">
      <path id="Path_800" data-name="Path 800" d="M666.487,161.833a1.053,1.053,0,0,0,.491.067,1.7,1.7,0,0,1,.719.2c-.111-1.5-2.156-1.928-2.156-1.928A2.776,2.776,0,0,1,666.487,161.833Z" transform="translate(-656.217 -158.659)"/>
      <path id="Path_801" data-name="Path 801" d="M633.7,163.62c.038.292.079.611.129.92a6.3,6.3,0,0,0,3.67.193c.237.076.47.187.514.339a.184.184,0,0,1,0,.14.347.347,0,0,1-.079.108q-.051.052-.1.108c-.327.4-.021.5-.021.5.465.649,2-.047,2-.047s.523-.45,0-.792a1.244,1.244,0,0,0-.143-.082,1.632,1.632,0,0,1-.465-.33c-.047-.047-.094-.1-.137-.149a2.735,2.735,0,0,1-.327-.517,3.549,3.549,0,0,0,.628-.748c1.236-1.931,1.213-5.327.234-8.266C635.812,155.538,633.177,159.383,633.7,163.62Z" transform="translate(-633.634 -155)"/>
      <path id="Path_802" data-name="Path 802" d="M645.42,212.459a3.331,3.331,0,0,0,1.347.505,2.141,2.141,0,0,1,.137-.263l-1.724-.7A4.044,4.044,0,0,1,645.42,212.459Z" transform="translate(-641.806 -195.345)"/>
      <path id="Path_803" data-name="Path 803" d="M644.764,214.977s.684.117.617-.5a.886.886,0,0,0-.029-.164,1.64,1.64,0,0,1-.041-.567,1.465,1.465,0,0,1,.026-.2,2.63,2.63,0,0,1,.187-.584,2.124,2.124,0,0,1,.137-.263l-1.721-.7a4.045,4.045,0,0,1,.234.473c.091.231.155.485.067.617a.193.193,0,0,1-.114.079.386.386,0,0,1-.134,0,1.319,1.319,0,0,0-.146,0c-.517,0-.4.292-.4.292C643.248,214.241,644.764,214.977,644.764,214.977Z" transform="translate(-640.567 -195.345)"/>
      <path id="Path_804" data-name="Path 804" d="M645.82,215.795l1.169.584a.763.763,0,0,1,.026-.2c-.307-.12-.789-.333-1.093-.468A.2.2,0,0,1,645.82,215.795Z" transform="translate(-642.259 -197.971)"/>
      <path id="Path_805" data-name="Path 805" d="M644.763,217.787s.681.114.617-.5a2.075,2.075,0,0,1-.771-.228,1.783,1.783,0,0,1-.763-1.087c-.517,0-.4.292-.4.292C643.244,217.051,644.763,217.787,644.763,217.787Z" transform="translate(-640.565 -198.155)"/>
      <path id="Path_806" data-name="Path 806" d="M644.763,217.787s.681.114.617-.5a2.075,2.075,0,0,1-.771-.228,1.783,1.783,0,0,1-.763-1.087c-.517,0-.4.292-.4.292C643.244,217.051,644.763,217.787,644.763,217.787Z" transform="translate(-640.565 -198.155)" opacity="0.1"/>
      <path id="Path_807" data-name="Path 807" d="M666.487,161.833a1.053,1.053,0,0,0,.491.067,1.7,1.7,0,0,1,.719.2c-.111-1.5-2.156-1.928-2.156-1.928A2.776,2.776,0,0,1,666.487,161.833Z" transform="translate(-656.217 -158.659)" opacity="0.1"/>
    </g>
    <path id="Path_808" data-name="Path 808" d="M635.138,164.287c.529,4.3,2.01,9.479,5.864,9s8.625-6.428,8.1-10.726-4.091-7.387-7.942-6.91S634.606,159.995,635.138,164.287Z" transform="translate(-464.237 -135.587)" fill="#a99f99"/>
    <path id="Path_809" data-name="Path 809" d="M646.183,215.752s.681.117.616-.5a1.282,1.282,0,0,0-.029-.164,1.571,1.571,0,0,1-.044-.567,1.159,1.159,0,0,1,.029-.2,2.629,2.629,0,0,1,.324-.844l-1.718-.716s.485.815.292,1.093a.2.2,0,0,1-.117.079.45.45,0,0,1-.131,0h-.146c-.517,0-.4.292-.4.292C644.666,215.019,646.183,215.752,646.183,215.752Z" transform="translate(-471.153 -176.043)" fill="#a99f99"/>
    <path id="Path_810" data-name="Path 810" d="M647.25,216.575l1.169.584a1.153,1.153,0,0,1,.029-.2c-.31-.12-.789-.333-1.093-.468A.2.2,0,0,1,647.25,216.575Z" transform="translate(-472.857 -178.683)" fill="#444053"/>
    <path id="Path_811" data-name="Path 811" d="M646.2,218.6s.681.117.617-.5a2.045,2.045,0,0,1-.771-.231,1.77,1.77,0,0,1-.76-1.087c-.517,0-.4.292-.4.292C644.684,217.864,646.2,218.6,646.2,218.6Z" transform="translate(-471.17 -178.888)" fill="#838180"/>
    <path id="Path_813" data-name="Path 813" d="M667,161s2.045.432,2.156,1.928a1.677,1.677,0,0,0-.722-.2,1.064,1.064,0,0,1-.488-.07A2.8,2.8,0,0,0,667,161Z" transform="translate(-486.837 -139.406)" fill="#fff" opacity="0.1"/>
    <path id="Path_814" data-name="Path 814" d="M644.889,218.1A1.245,1.245,0,0,1,646,219.631c-.257.862-1.315,1.134-2,1.709a3.514,3.514,0,0,0-1.1,2.393,5.867,5.867,0,0,0,1.686,4.64c.619.611,1.367,1.078,1.978,1.7a10.1,10.1,0,0,1,1.709,2.606,6.1,6.1,0,0,1,.757,2.191,5.165,5.165,0,0,1-1.256,3.4,23.239,23.239,0,0,0-2.2,2.974,6.25,6.25,0,0,0-.359,4.9.634.634,0,0,0,.207.327.231.231,0,0,0,.339-.073" transform="translate(-469.754 -179.822)" fill="none" stroke="#444053" stroke-miterlimit="10" stroke-width="1"/>
    <path id="Path_815" data-name="Path 815" d="M647.713,217.36a.584.584,0,0,1,.026.742.9.9,0,0,1-.713.33c-.33,0-.7-.1-.97.091a.838.838,0,0,0-.292.634,3.233,3.233,0,0,1-.073.716,1.425,1.425,0,0,1-.316.514,1.581,1.581,0,0,1-.584.427c-.488.19-1.052.018-1.552.175a2.178,2.178,0,0,0-1.21,1.578,4.544,4.544,0,0,0-.143,2.449,8.474,8.474,0,0,0,.663,1.5,3.4,3.4,0,0,1,.432,1.566,1.437,1.437,0,0,1-.824,1.315" transform="translate(-468.987 -179.299)" fill="none" stroke="#444053" stroke-miterlimit="10" stroke-width="1"/>
    <path id="Path_816" data-name="Path 816" d="M567.252,277.607c-.786,1.046-1.084,2.717-2.37,2.972a2.945,2.945,0,0,1-1.914-.538,13.648,13.648,0,0,0-4.383-1.8,4.736,4.736,0,0,0-4.354,1.312c-.7.824-.993,1.928-1.613,2.817a5.78,5.78,0,0,1-3.273,2.151,13.392,13.392,0,0,1-3.968.339,2.157,2.157,0,0,1-1.4-.38,3.406,3.406,0,0,1-.584-.891,3.9,3.9,0,0,0-3.124-1.727,8.21,8.21,0,0,0-3.6.763,3.837,3.837,0,0,1-1.794.453,3.289,3.289,0,0,1-2.063-1.476,29.218,29.218,0,0,1-3.544-5.768" transform="translate(-389.35 -220.684)" fill="none" stroke="#444053" stroke-miterlimit="10" stroke-width="1"/>
    <path id="Path_817" data-name="Path 817" d="M497.876,369.081c.313-1.137.517-2.136.517-2.136a4.47,4.47,0,0,1,.584-2.165l.015-.313h0l.088-2.305a7.759,7.759,0,0,0-.535-1.23c-.389-.739.132-3.381.132-3.381s1.683-3.685,1.4-6.072,3.565-10.425,3.565-10.425a10.339,10.339,0,0,0-.243-2.338,1.992,1.992,0,0,1-.026-.491v-.041a18.251,18.251,0,0,1,1.461-4.453l.05-5.6a16.457,16.457,0,0,1,.8-7.711c.508-1.528.844-2.752,1.064-3.7.026-.108.05-.21.07-.31-2.63-.508-4.652-.923-4.652-.923s1.785-6.378,2.869-7.465,2.045-4.6,2.045-4.6.716-4.526-.108-5.888a8.782,8.782,0,0,1-.847-3.673s-1.94-1.525-2.165-2.18a10.675,10.675,0,0,1-.555-2.884c.029-.766.292-1.44.237-1.844s.657-1.911.351-2.647a2.045,2.045,0,0,1-.105-.7s0,0,0-.02a9.791,9.791,0,0,1,.248-1.882,5.33,5.33,0,0,1,2.016-.979l.05-.172.129-.447c.07-.044.137-.079.2-.111v-.164l.044-.654-.257-1.481c-.514-2.577,2.922-2.828,2.922-2.828a1.794,1.794,0,0,1,1-.809c.7-.216-.035,3.848-.365,4.091a15.874,15.874,0,0,0-1.426,2.045h0l-.064.1a1.437,1.437,0,0,1,.152.169l-.164.877-.026.134a3.689,3.689,0,0,1,.508.95,1.979,1.979,0,0,0-.555,1.432,4.517,4.517,0,0,1-.275,1.753c.038-.038.5-.5.929-.365s1.645.546,1.645.546.909.2.818.394.584,1.11.584,1.11l2.56-2.2c.026-.07.055-.137.079-.21a5.756,5.756,0,0,0,.254-1.011,5.6,5.6,0,0,1-.777-.292,1.688,1.688,0,0,1-.663-.462,2.63,2.63,0,0,1-.354-1.075,15.174,15.174,0,0,0-.836-2.069,6.629,6.629,0,0,1-.351-3.673,2.413,2.413,0,0,1,.421-1.055c.421-.538,1.169-.733,1.7-1.151s.915-1.081,1.543-1.388a2.947,2.947,0,0,1,1.873-.088,10.022,10.022,0,0,1,3.436,1.4,1.774,1.774,0,0,0,1.148.427,1.546,1.546,0,0,0,.877-.584v-.032l.026-.032a4.338,4.338,0,0,1,.313,1.855,1.233,1.233,0,0,1-.023.292v.1a.418.418,0,0,0,0,.085h0a.5.5,0,0,0,0,.132.944.944,0,0,0,.216.342,1.748,1.748,0,0,1,.19.292.338.338,0,0,0-.029-.1,1.461,1.461,0,0,1,.225.786.783.783,0,0,1-.2.546,2.535,2.535,0,0,1-.415.307,4.675,4.675,0,0,1-2.431,4.789c-.029.067-.061.137-.091.207a5.875,5.875,0,0,0-.549,2.665.569.569,0,0,0,.023.2,1.283,1.283,0,0,1,.082.105h0s4.056.2,5.046-.634,2.338,2.209,2.338,2.209,1.446.336,1.753.067,2,.035,2,.035a3.661,3.661,0,0,1,2.571-.827,7.513,7.513,0,0,1,1.9-.964h.047a2.1,2.1,0,0,1,.917-.082,18.718,18.718,0,0,0,2.676-2.434c.617-.862,3.506-4.044,3.53-4.056l.015-.161.05-.476a1.778,1.778,0,0,0,.248.032c.018-.047.038-.1.064-.164a8.7,8.7,0,0,1,.64-1.329s.023-.6-.149-.763a10.24,10.24,0,0,1,.167-2.364s1.958-4.134,3.451-.935c0,0,2.966,2.151.318,4.418,0,0-1.037.453-1.2.839-.105.251-.479.95-.728,1.411-.044.076-.082.146-.114.207l.029.026-.053.392-.023.152c.473.292.789.584.7.78a4.487,4.487,0,0,0-.333,1.075s-3.705,4.289-4.237,6.165c0,0-9.7,5.259-12.83,5.552l.432,2.837s.1,1.7.035,2.3.245,3.357.245,3.357.386,4.044.821,4.625.26,2.992.26,2.992a20.2,20.2,0,0,0,.494,3.445,8.815,8.815,0,0,1,0,3.427s1.44,3.685-2.247,1.081c0,0-1.855-.187-3.991-.342v.216c0,.275,0,.584-.023.877-.05,2.077-.149,4.938-.324,7.1-.316,3.816-1.771,11.337-1.771,11.337l-.146,3.8a4.95,4.95,0,0,1,.067,1.09,7.06,7.06,0,0,1-1.169,3.766l-.447,2.51a9.937,9.937,0,0,0-.8,2.63,1.247,1.247,0,0,0,.021.242,1.781,1.781,0,0,1,.017.392,21.449,21.449,0,0,1-.8,3.88s-.149,2.776-.584,2.922c-.359.126.415,1.619.646,2.045a.777.777,0,0,0,.018-.079l.05.088a1.967,1.967,0,0,1,.1.707,1.011,1.011,0,0,1-.5.958c-.809.45-1.248.839-.584,1.023.254.073.526.1.728.184,0-.032.026-.064.038-.094a.444.444,0,0,1,.254.5,2.045,2.045,0,0,1-.292.932,9.973,9.973,0,0,1-1.2,2.007l-.318-.047a1.559,1.559,0,0,0,.172.351,1.354,1.354,0,0,0,.453.435,1.462,1.462,0,0,0,.561.216,1.6,1.6,0,0,1,1.169.619,1.226,1.226,0,0,1-.219,1.9l-3.013.912s-5.142.468-4.827-.669.52-2.136.52-2.136a4.541,4.541,0,0,1,.508-2,2.1,2.1,0,0,1,.193-.292l-.181-.029s-.275-2.548-.757-3.05c-.111-.117-.134-.2-.1-.269-.047-.14.085-.216.254-.254a.439.439,0,0,0,.032.1,2.655,2.655,0,0,1,.5-.035s.219-1.321-.292-1.826a.511.511,0,0,1-.091-.4,2.165,2.165,0,0,1,.079-.541l.018.032a19.575,19.575,0,0,1,1.312-3.074,3.793,3.793,0,0,0-.225-1.7c-.316-.494.292-6.56.292-6.56a20.766,20.766,0,0,1,.415-4.3,4.913,4.913,0,0,0-.345-2.995v-.088a.064.064,0,0,0,0-.02l.067-.462v.029c.114-.774.327-2.177.468-2.826.2-.917.167-5.353.167-5.353l-.678-1.923-1.461,3.214-1.572,4.275a3.713,3.713,0,0,0-.789,1.82v.137a2.43,2.43,0,0,1,0,.292,2.583,2.583,0,0,1-.491,1.534,6.71,6.71,0,0,1-1.055,2.539,2.306,2.306,0,0,0-.64,1.5,26.91,26.91,0,0,1-1.169,3.462,5.306,5.306,0,0,0-.371,2.013h0v.108s-.14,1.061-.169,1.958v.3a3.247,3.247,0,0,0,.058.728v-.108a7.561,7.561,0,0,1,.143,1.864,4.765,4.765,0,0,1-.912,3.05c-1.169,1.245-1.873,1.058-1.873,1.058s.479,1.63,1.131,1.978a.291.291,0,0,1,.07.047.161.161,0,0,1,.02-.094.786.786,0,0,1,.172.608,4.289,4.289,0,0,1-.917,2.355,1.317,1.317,0,0,1-.584.307l.1.07c.082.047.155.085.225.117a1.07,1.07,0,0,0,.336.1,1.587,1.587,0,0,1,1.169.619,1.224,1.224,0,0,1-.216,1.9l-3.015.912S497.561,370.217,497.876,369.081Z" transform="translate(-367.119 -218.217)" fill="url(#linear-gradient-2)"/>
    <path id="Path_818" data-name="Path 818" d="M553.177,598.626l2.922-.915a1.259,1.259,0,0,0,.213-1.905,1.526,1.526,0,0,0-1.116-.616,1.383,1.383,0,0,1-.543-.216,1.3,1.3,0,0,1-.438-.435,2.123,2.123,0,0,1-.292-1.125s-3.126-1.046-4.026-.155a2.38,2.38,0,0,0-.4.546,4.675,4.675,0,0,0-.482,2.022s-.2,1-.5,2.136S553.177,598.626,553.177,598.626Z" transform="translate(-402.957 -445.11)" fill="#2d293d"/>
    <path id="Path_819" data-name="Path 819" d="M505.119,591.952l2.922-.915a1.256,1.256,0,0,0,.213-1.9,1.514,1.514,0,0,0-1.119-.616,1.144,1.144,0,0,1-.324-.1,1.459,1.459,0,0,1-.216-.117,1.826,1.826,0,0,1-.742-1.546s-3.124-1.046-4.023-.155a2.307,2.307,0,0,0-.318.4,4.567,4.567,0,0,0-.567,2.168s-.2,1-.505,2.136S505.119,591.952,505.119,591.952Z" transform="translate(-368.932 -440.396)" fill="#2d293d"/>
    <path id="Path_820" data-name="Path 820" d="M552.313,593.258a2.381,2.381,0,0,0-.4.546h0l4.716.73a2.125,2.125,0,0,1-.292-1.125S553.213,592.366,552.313,593.258Z" transform="translate(-405.374 -445.108)" opacity="0.1"/>
    <path id="Path_821" data-name="Path 821" d="M504.1,586.985l-.035.877c.69,1.245,4.263,1.116,5.321.546a1.459,1.459,0,0,1-.216-.117,1.808,1.808,0,0,1-.739-1.537s-3.124-1.046-4.023-.155A2.31,2.31,0,0,0,504.1,586.985Z" transform="translate(-371.506 -440.396)" opacity="0.1"/>
    <path id="Path_822" data-name="Path 822" d="M502.422,462.26a7.78,7.78,0,0,1,.517,1.23l-.123,3.179c.754,1.359,4.967,1.078,5.552.374s1.268-2.571.637-2.922-1.093-1.978-1.093-1.978.678.187,1.814-1.058.923-4.117.748-4.809a14.23,14.23,0,0,1,.117-2.977,5.959,5.959,0,0,1,.362-2.121,26.461,26.461,0,0,0,1.142-3.465,2.37,2.37,0,0,1,.622-1.508,6.872,6.872,0,0,0,1.023-2.539,2.63,2.63,0,0,0,.47-1.715,3.506,3.506,0,0,1,.766-2.066l1.534-4.3,1.414-3.214.64,1.943s.029,4.435-.167,5.356-.532,3.366-.532,3.366a4.966,4.966,0,0,1,.327,2.995,20.533,20.533,0,0,0-.406,4.3s-.584,6.066-.292,6.56a4.124,4.124,0,0,1,.216,1.7s-1.788,3.48-1.283,3.983.292,1.826.292,1.826-1.125-.044-.66.459.751,3.036.751,3.036l4.844.751a10.168,10.168,0,0,0,1.169-2.01c.7-1.461-.067-1.335-.71-1.519s-.216-.584.567-1.026.383-1.557.383-1.557-1.093-2.019-.684-2.165.558-2.922.558-2.922.929-3.27.763-4.164a8.09,8.09,0,0,1,.76-2.995l.38-2.525a6.969,6.969,0,0,0,1.069-4.754l.152-3.9s1.417-7.524,1.727-11.343c.2-2.443.292-5.788.342-7.874.026-1.169.035-1.946.035-1.946l-17.318-2.481a14.179,14.179,0,0,1-.415,2.571c-.213.95-.541,2.174-1.034,3.7a16.959,16.959,0,0,0-.78,7.711l-.056,5.6s-1.674,3.684-1.4,4.985a10.626,10.626,0,0,1,.234,2.337s-3.737,8.038-3.465,10.425-1.362,6.075-1.362,6.075S502.048,461.521,502.422,462.26Z" transform="translate(-370.251 -319.516)" fill="#a99f99"/>
    <path id="Path_823" data-name="Path 823" d="M526.8,502.979l-5.259-.909S524.415,505.243,526.8,502.979Z" transform="translate(-383.878 -380.82)" opacity="0.05"/>
    <path id="Path_824" data-name="Path 824" d="M523.937,484.47s-.254,1.864.877,2.612C524.8,487.082,522.763,486.67,523.937,484.47Z" transform="translate(-385.317 -368.362)" opacity="0.1"/>
    <path id="Path_825" data-name="Path 825" d="M526.71,464.12s4.286,3.813,5.905,3.573S526.71,464.12,526.71,464.12Z" transform="translate(-387.538 -353.958)" opacity="0.1"/>
    <path id="Path_826" data-name="Path 826" d="M561.77,511.89s3.331.894,3.378,2.247S561.77,511.89,561.77,511.89Z" transform="translate(-412.354 -387.77)" opacity="0.1"/>
    <path id="Path_827" data-name="Path 827" d="M554.906,569.24s4.713,1.067,3.343,1.619a22.911,22.911,0,0,1-3.594.941S553.121,571.832,554.906,569.24Z" transform="translate(-406.884 -428.363)" opacity="0.05"/>
    <g id="Group_33" data-name="Group 33" transform="translate(132.03 98.299)" opacity="0.05">
      <path id="Path_828" data-name="Path 828" d="M569.507,576.562a.935.935,0,0,0,.459-.672l.047.088s.4,1.1-.383,1.554l-.254.155c-.14-.032-.292-.059-.435-.1C568.3,577.4,568.739,577.015,569.507,576.562Z" transform="translate(-549.24 -531.369)"/>
      <path id="Path_829" data-name="Path 829" d="M550.513,574.27c-.126-.126-.108-.435-.015-.83a2.236,2.236,0,0,1,.225,1.169A.95.95,0,0,0,550.513,574.27Z" transform="translate(-536.353 -529.635)"/>
      <path id="Path_830" data-name="Path 830" d="M555.714,507.85a5.4,5.4,0,0,1,.263,1.49,6.053,6.053,0,0,0-.327-1.031S555.673,508.13,555.714,507.85Z" transform="translate(-540.052 -483.21)"/>
      <path id="Path_831" data-name="Path 831" d="M518.859,498.111a1.888,1.888,0,0,1-.026-.441c.047.292.079.584.1.83C518.911,498.371,518.879,498.243,518.859,498.111Z" transform="translate(-513.99 -476.004)"/>
      <path id="Path_832" data-name="Path 832" d="M554.149,554.65a2.6,2.6,0,0,1-.088-.9,3.024,3.024,0,0,1,.19,1.14A1.134,1.134,0,0,0,554.149,554.65Z" transform="translate(-538.922 -515.698)"/>
      <path id="Path_833" data-name="Path 833" d="M549.356,582.68a15.667,15.667,0,0,1,.462,2.492l4.844.751a10.166,10.166,0,0,0,1.169-2.01c.061-.129.111-.245.152-.351.292.146.389.453-.029,1.321a10.151,10.151,0,0,1-1.169,2.013l-4.845-.751s-.266-2.551-.73-3.053C548.971,582.847,549.129,582.733,549.356,582.68Z" transform="translate(-535.409 -536.175)"/>
      <path id="Path_834" data-name="Path 834" d="M571.075,463.044s-.146,2.776-.555,2.922h0c-.184-.467-.292-.909-.12-.973.409-.146.555-2.922.555-2.922s.932-3.27.766-4.164a8.069,8.069,0,0,1,.76-2.992l.38-2.525a6.978,6.978,0,0,0,1.069-4.757l.149-3.9s1.42-7.524,1.727-11.34c.2-2.446.292-5.788.345-7.874,0-.377.015-.713.018-1l.14.02s0,.777-.035,1.946c-.047,2.086-.146,5.432-.342,7.874-.31,3.819-1.727,11.343-1.727,11.343l-.152,3.9a6.969,6.969,0,0,1-1.069,4.754l-.38,2.525a8.087,8.087,0,0,0-.76,2.995C572.01,459.775,571.075,463.044,571.075,463.044Z" transform="translate(-550.431 -423.52)"/>
      <path id="Path_835" data-name="Path 835" d="M509.529,583.745a4.726,4.726,0,0,0,.844-1.885c.479.468-.161,2.188-.722,2.855s-4.795.985-5.552-.374l.029-.766C505.181,584.694,508.968,584.408,509.529,583.745Z" transform="translate(-503.564 -535.595)"/>
      <path id="Path_836" data-name="Path 836" d="M502.288,571.859a8.149,8.149,0,0,1,.517,1.23l-.023.564c-.082-.208-.2-.488-.371-.821a2.4,2.4,0,0,1-.137-1Z" transform="translate(-502.266 -528.496)"/>
      <path id="Path_837" data-name="Path 837" d="M521.479,560.667a7.623,7.623,0,0,1-.359-.973s.678.187,1.812-1.058c.83-.906.941-2.674.877-3.836.175.692.389,3.562-.748,4.809A2.894,2.894,0,0,1,521.479,560.667Z" transform="translate(-515.611 -516.441)"/>
      <path id="Path_838" data-name="Path 838" d="M529.987,491.567a21.111,21.111,0,0,0-.172,2.381,3.748,3.748,0,0,0-.07-.377,14.245,14.245,0,0,1,.117-2.977,5.988,5.988,0,0,1,.365-2.121,26.5,26.5,0,0,0,1.14-3.462,2.365,2.365,0,0,1,.622-1.508,6.88,6.88,0,0,0,1.026-2.542,2.65,2.65,0,0,0,.468-1.715,3.506,3.506,0,0,1,.766-2.066l1.537-4.3,1.411-3.214.652,1.92v.614l-.526-1.56-1.405,3.214-1.534,4.3a3.507,3.507,0,0,0-.766,2.066,2.63,2.63,0,0,1-.47,1.715,6.869,6.869,0,0,1-1.023,2.539,2.373,2.373,0,0,0-.622,1.508,26.439,26.439,0,0,1-1.142,3.462A6.034,6.034,0,0,0,529.987,491.567Z" transform="translate(-521.676 -456.186)"/>
    </g>
    <path id="Path_839" data-name="Path 839" d="M528.767,281.931l.245,1.481-.041.654-.032.482,1.671.237.2-.342h0A14.446,14.446,0,0,1,532.2,282.4c.321-.251,1.031-4.316.356-4.091a1.753,1.753,0,0,0-.967.812S528.271,279.354,528.767,281.931Z" transform="translate(-388.958 -222.432)" fill="#ffcdd3"/>
    <path id="Path_840" data-name="Path 840" d="M529.48,298.1l1.671.237.2-.342h0a1.475,1.475,0,0,0-1.841-.377Z" transform="translate(-389.498 -235.987)" opacity="0.1"/>
    <path id="Path_841" data-name="Path 841" d="M527.92,299.26l2.194.584.061-.327.158-.877a1.525,1.525,0,0,0-2.133-.377l-.126.45Z" transform="translate(-388.394 -236.366)" fill="#dce6f2"/>
    <path id="Path_842" data-name="Path 842" d="M651.12,279.137l2.317,1.359.231-.438c.242-.462.6-1.169.707-1.411.155-.386,1.169-.841,1.169-.841,2.565-2.27-.292-4.415-.292-4.415-1.44-3.2-3.343.938-3.343.938a10.77,10.77,0,0,0-.161,2.364c.164.158.143.76.143.76a8.808,8.808,0,0,0-.622,1.332A2.734,2.734,0,0,0,651.12,279.137Z" transform="translate(-475.596 -218.098)" fill="#ffcdd3"/>
    <path id="Path_843" data-name="Path 843" d="M651.12,295.156l2.317,1.359.231-.438c-.324-.292-1.461-1.3-1.858-1.268a2.775,2.775,0,0,1-.561,0C651.164,295.016,651.12,295.156,651.12,295.156Z" transform="translate(-475.596 -234.117)" opacity="0.1"/>
    <path id="Path_844" data-name="Path 844" d="M650.2,296.121l2.606,1.411.076-.584.053-.392s-1.49-1.379-1.946-1.347a2.4,2.4,0,0,1-.693-.029l-.05.479Z" transform="translate(-474.945 -234.381)" fill="#dce6f2"/>
    <path id="Path_845" data-name="Path 845" d="M549.65,303.477s11.533,1.753,9.394.964a2.914,2.914,0,0,1-2.136-2.6,6.056,6.056,0,0,1,.535-2.662,11.466,11.466,0,0,1,1.116-2.045s-8.666-5.213-7.065-.716a7.118,7.118,0,0,1,.421,2.118,5.923,5.923,0,0,1-.31,2.113A6.35,6.35,0,0,1,549.65,303.477Z" transform="translate(-403.775 -233.964)" fill="#ffcdd3"/>
    <path id="Path_846" data-name="Path 846" d="M555.516,296.385a7.115,7.115,0,0,1,.421,2.118,4.084,4.084,0,0,0,2.9.766,5.227,5.227,0,0,0,2.63-.114,11.467,11.467,0,0,1,1.116-2.045S553.9,291.888,555.516,296.385Z" transform="translate(-407.785 -233.941)" opacity="0.1"/>
    <circle id="Ellipse_13" data-name="Ellipse 13" cx="4.792" cy="4.792" r="4.792" transform="translate(146.573 56.057)" fill="#ffcdd3"/>
    <path id="Path_847" data-name="Path 847" d="M549.65,317.081s11.533,1.753,9.394.964a2.914,2.914,0,0,1-2.136-2.6,6.384,6.384,0,0,0-2.428-1.411,3.48,3.48,0,0,0-2.1-.114,2.958,2.958,0,0,0-.777.324A6.348,6.348,0,0,1,549.65,317.081Z" transform="translate(-403.775 -247.569)" opacity="0.1"/>
    <path id="Path_848" data-name="Path 848" d="M527.92,300.87l2.194.584.061-.327a1.958,1.958,0,0,0-2.1-.809Z" transform="translate(-388.394 -237.976)" opacity="0.1"/>
    <path id="Path_849" data-name="Path 849" d="M650.2,297.282l2.606,1.411.076-.584a19.624,19.624,0,0,0-2.63-1.289Z" transform="translate(-474.945 -235.541)" opacity="0.1"/>
    <path id="Path_850" data-name="Path 850" d="M530.12,418.041c4.459.877,10.811,2.045,11.831,1.779a29.553,29.553,0,0,1,5.867.076c.026-1.169.035-1.946.035-1.946l-17.318-2.481A14.184,14.184,0,0,1,530.12,418.041Z" transform="translate(-389.951 -319.523)" opacity="0.1"/>
    <path id="Path_851" data-name="Path 851" d="M515,333.288s14.674,3.1,16.278,2.682,9.721.415,9.721.415c3.568,2.595,2.18-1.087,2.18-1.087a8.868,8.868,0,0,0,0-3.424,21,21,0,0,1-.47-3.445s.172-2.411-.248-2.992-.789-4.625-.789-4.625-.292-2.752-.234-3.354-.032-2.3-.032-2.3l-.415-2.837c3.033-.292,12.427-5.569,12.427-5.569.517-1.873,4.108-6.171,4.108-6.171a4.559,4.559,0,0,1,.321-1.075c.269-.634-3.3-2.045-3.3-2.045s-2.826,3.2-3.422,4.059a18.4,18.4,0,0,1-2.595,2.44,1.972,1.972,0,0,0-.877.082H547.6a7.172,7.172,0,0,0-1.844.967,3.506,3.506,0,0,0-2.489.83s-1.642-.292-1.934-.035-1.689-.064-1.689-.064-1.294-3.033-2.253-2.2-4.888.64-4.888.64a5.792,5.792,0,0,0-2.536-1.552,3.48,3.48,0,0,0-2.1-.117,2.676,2.676,0,0,0-.844.371l-2.472,2.241s-.652-.912-.564-1.11-.789-.394-.789-.394-1.169-.406-1.592-.543-.862.324-.9.365a4.7,4.7,0,0,0,.269-1.753,2.02,2.02,0,0,1,.538-1.429c-1.274-3.506-4.567-.742-4.567-.742a6.62,6.62,0,0,0-.14,2.615c.3.736-.409,2.241-.345,2.647s-.2,1.081-.231,1.847a10.968,10.968,0,0,0,.535,2.881c.216.652,2.092,2.177,2.092,2.177a9.1,9.1,0,0,0,.827,3.661c.795,1.362.1,5.888.1,5.888s-.941,3.506-1.993,4.6S515,333.288,515,333.288Z" transform="translate(-379.249 -235.994)" fill="#400f49"/>
    <path id="Path_852" data-name="Path 852" d="M591.954,326.462s.494-1.312.9-1.417a9.323,9.323,0,0,0,1.189-.479l-.24-.506s-1.528.356-1.788.792A3.453,3.453,0,0,0,591.954,326.462Z" transform="translate(-433.667 -254.822)" opacity="0.1"/>
    <path id="Path_853" data-name="Path 853" d="M620.2,320.912c.067.4,3.635.906,3.635.906l-1.753-1.888h-.044A7.172,7.172,0,0,0,620.2,320.912Z" transform="translate(-453.711 -251.899)" opacity="0.1"/>
    <path id="Path_854" data-name="Path 854" d="M551.223,369.6c.041-.044-9.473,11.062-16.263,4.172C534.972,373.772,546.031,375.709,551.223,369.6Z" transform="translate(-393.377 -287.056)" opacity="0.1"/>
    <path id="Path_855" data-name="Path 855" d="M585.366,349.94a17.513,17.513,0,0,1-2.244,3.524,14.153,14.153,0,0,1-3.422,3.056S585.246,350.682,585.366,349.94Z" transform="translate(-425.045 -273.14)" opacity="0.1"/>
    <path id="Path_856" data-name="Path 856" d="M597.662,328.58s-1.058,3.874-3.442,5.113Z" transform="translate(-435.322 -258.022)" opacity="0.1"/>
    <path id="Path_857" data-name="Path 857" d="M602.957,330.117c.026-.073.687,3.124-3.2,4.728C599.76,334.845,601.4,334.357,602.957,330.117Z" transform="translate(-439.243 -259.109)" opacity="0.1"/>
    <path id="Path_858" data-name="Path 858" d="M523.9,317.986a28.053,28.053,0,0,0-2.481,1.718C521.42,319.71,522.758,317.867,523.9,317.986Z" transform="translate(-383.793 -250.519)" opacity="0.1"/>
    <path id="Path_859" data-name="Path 859" d="M554.37,283.914a1,1,0,0,1-.4.631.969.969,0,0,1-.456.085,9.533,9.533,0,0,1-4.316-.584,1.63,1.63,0,0,1-.64-.462,2.676,2.676,0,0,1-.342-1.072,15.784,15.784,0,0,0-.806-2.069,6.837,6.837,0,0,1-.333-3.655,2.475,2.475,0,0,1,.406-1.058c.409-.538,1.122-.733,1.651-1.154s.877-1.081,1.5-1.388a2.673,2.673,0,0,1,1.812-.091,9.464,9.464,0,0,1,3.325,1.4,1.7,1.7,0,0,0,1.113.427,1.548,1.548,0,0,0,.85-.6,4.4,4.4,0,0,1,.292,2.1.958.958,0,0,0,0,.316.982.982,0,0,0,.21.339,1.218,1.218,0,0,1,.172,1.511c-.161.181-.4.272-.561.453-.292.324-.213.812-.222,1.245a.64.64,0,0,1-.123.421.622.622,0,0,1-.584.117,1.66,1.66,0,0,0-.628-.085,1.066,1.066,0,0,0-.564.4A7.123,7.123,0,0,0,554.37,283.914Z" transform="translate(-401.877 -218.671)" fill="#3f3d56"/>
    <g id="Group_34" data-name="Group 34" transform="translate(146.492 55.584)" opacity="0.1">
      <path id="Path_860" data-name="Path 860" d="M551.8,293.554a1.621,1.621,0,0,0,.643.462,9.859,9.859,0,0,0,4.316.584,1.046,1.046,0,0,0,.456-.085,1,1,0,0,0,.4-.634,7.531,7.531,0,0,1,1.329-2.785,1.055,1.055,0,0,1,.564-.4,1.66,1.66,0,0,1,.628.085.616.616,0,0,0,.584-.12.64.64,0,0,0,.123-.421,1.853,1.853,0,0,1,.219-1.242c.158-.184.4-.275.564-.453a.938.938,0,0,0,.129-.955,1.1,1.1,0,0,1,.02,1.283c-.164.178-.406.272-.564.453-.292.324-.21.812-.219,1.245a.64.64,0,0,1-.123.421.622.622,0,0,1-.584.117,1.674,1.674,0,0,0-.628-.085,1.055,1.055,0,0,0-.564.4,7.391,7.391,0,0,0-1.329,2.787,1,1,0,0,1-.4.631.97.97,0,0,1-.456.085,9.533,9.533,0,0,1-4.316-.584,1.621,1.621,0,0,1-.643-.462,1.3,1.3,0,0,1-.193-.394Z" transform="translate(-551.76 -284.592)"/>
      <path id="Path_861" data-name="Path 861" d="M584.015,279.673a.692.692,0,0,1-.137-.248.876.876,0,0,1,0-.313,4.456,4.456,0,0,0-.158-1.753l.026-.029a4.439,4.439,0,0,1,.278,2.1,1.547,1.547,0,0,0-.009.242Z" transform="translate(-574.382 -277.33)"/>
    </g>
    <path id="Path_862" data-name="Path 862" d="M559.059,319.569s-6.016.561-6.519-.359" transform="translate(-405.82 -251.389)" opacity="0.1"/>
    <path id="Path_863" data-name="Path 863" d="M525.451,310.422s-3.325-.123-4.091,1.1" transform="translate(-383.751 -245.166)" opacity="0.1"/>
  </g>
</svg>
