<svg xmlns="http://www.w3.org/2000/svg" width="355.194" height="460.994" viewBox="0 0 355.194 460.994">
  <g id="undraw_Letter_re_8m03" transform="translate(-0.001 -0.001)">
    <path id="Path_865" data-name="Path 865" d="M455.709,360.641l-99.145-21.387-1.288-.277a3.567,3.567,0,0,0-3.955,5.067l39.364,79.94a3.563,3.563,0,0,0,5.781.876l27.341-28.829a2.076,2.076,0,0,1,1.525-.666,2.147,2.147,0,0,1,1.911,1.111l5.6,10.359a3.485,3.485,0,0,0,3.9,1.788l.028-.006a3.489,3.489,0,0,0,2.765-3.314l1.122-23.912a2.182,2.182,0,0,1,.219-.859,2.323,2.323,0,0,1,.562-.694l15.774-12.948a3.57,3.57,0,0,0-1.506-6.247Zm.605,5.146-15.773,12.948a3.51,3.51,0,0,0-.555.561l-83.6-37.914a1.243,1.243,0,0,0-.23-.081,1.428,1.428,0,0,0-1.19,2.542L423.7,394.337a3.423,3.423,0,0,0-.931.71l-27.341,28.829a2.139,2.139,0,0,1-3.469-.525L352.6,343.411a2.145,2.145,0,0,1,2.373-3.038l1.319.285L455.4,362.038a2.144,2.144,0,0,1,.91,3.75Z" transform="translate(-350.951 -187.626)" fill="#c25517"/>
    <path id="Path_866" data-name="Path 866" d="M519.568,602.871c-8.893-2.4-19.717-12.392-17.4-26.124,1.149-6.81,5.56-11.218,10.133-14.069,6.326-3.943,13.53-5.429,20.473-5.8,8.008-.433,16.007.659,23.955,1.813,7.847,1.14,15.693,2.16,23.575,2.783a303.908,303.908,0,0,0,92.016-6.832q11.16-2.575,22.187-6.043a152.439,152.439,0,0,0,20.38-7.617c8.74-4.2,22.953-12.361,21.793-27.482-.615-8.018-5.336-14.421-10.1-18.883-5.759-5.394-12.422-8.944-18.949-12.39-30.357-16.032-60.773-31.873-91.16-47.808-7.092-3.719-14.231-7.339-21.114-11.7-6.444-4.08-12.858-8.82-18.044-15.374-4.529-5.724-8.577-13.409-8.434-22a27.641,27.641,0,0,1,7.331-17.688c9.83-11.186,23.736-15.721,36.3-18.1,15.615-2.951,31.455-2.936,47.08-5.786,12.616-2.3,26.1-6.744,36.356-17.154a32.518,32.518,0,0,0,8.863-15.485,30.433,30.433,0,0,0-1.823-18.375A47.391,47.391,0,0,0,691.12,276.5a71.252,71.252,0,0,0-18.01-12.032c-13.858-6.6-28.43-10.042-42.624-15.109-6.961-2.485-13.993-5.211-20.457-9.479-5.476-3.617-11.442-8.492-14.489-15.741-6.286-14.957,8.711-23.871,17.209-27.248a110.65,110.65,0,0,1,17.785-5.092c1.282-.275.738-2.833-.538-2.559a106.413,106.413,0,0,0-18.677,5.453c-5.125,2.129-10.412,4.927-14.437,9.742a20.279,20.279,0,0,0-4.582,15.856c1.066,7.177,5.7,12.706,10.053,16.712,5.756,5.3,12.319,8.756,18.972,11.575,7.008,2.97,14.164,5.284,21.318,7.554,14.3,4.536,29.232,8.579,42.137,18.231,9.027,6.752,21.291,19.413,18.288,35.105-1.333,6.966-5.381,12.412-9.749,16.418a56.758,56.758,0,0,1-17.46,10.616c-28.6,11.509-60.07,3.279-87.931,18.91-9.473,5.315-20.979,14.991-21.071,30.217-.048,7.909,3.122,15.163,7.042,20.9,4.694,6.867,10.773,11.945,16.959,16.19a197.408,197.408,0,0,0,20.251,11.725q11.432,6,22.868,11.993L680.247,470.7l22.989,12.055c7.016,3.679,14.213,7.209,20.592,12.61,5.223,4.422,11.395,11.678,10.862,20.687-.423,7.155-5.176,12.318-9.519,15.77-5.624,4.47-11.942,7.361-18.228,9.764-7.25,2.771-14.62,5.07-22,7.137a297.1,297.1,0,0,1-46.164,9.036,303.56,303.56,0,0,1-46.9,1.748q-11.864-.477-23.692-1.9c-8.128-.979-16.221-2.487-24.369-3.156-7.37-.605-14.812-.465-22.071,1.48-6.061,1.624-12.463,4.519-17.064,10.168a22.493,22.493,0,0,0-4.775,15.192,27.281,27.281,0,0,0,5.593,15.055,25.308,25.308,0,0,0,13.529,9.082c1.27.343,1.814-2.214.538-2.559Z" transform="translate(-393.675 -144.686)" fill="#e6e6e6"/>
    <rect id="Rectangle_140" data-name="Rectangle 140" width="231.068" height="1.598" transform="translate(124.127 459.397)" fill="#3f3d56"/>
    <circle id="Ellipse_14" data-name="Ellipse 14" cx="15.095" cy="15.095" r="15.095" transform="translate(321.587 353.937)" fill="#e6e6e6"/>
    <circle id="Ellipse_15" data-name="Ellipse 15" cx="15.095" cy="15.095" r="15.095" transform="translate(294.048 141.18)" fill="#e6e6e6"/>
    <path id="Path_867" data-name="Path 867" d="M717.9,127.4,675.99,145.62a7.626,7.626,0,0,0-3.949,10.022l13.015,29.938a7.626,7.626,0,0,0,10.022,3.949l41.914-18.221a7.626,7.626,0,0,0,3.949-10.022l-13.015-29.938A7.626,7.626,0,0,0,717.9,127.4Zm1.735,3.992a3.247,3.247,0,0,1,.783-.226L706.252,157.9l-29.1-7.965a3.262,3.262,0,0,1,.578-.324Zm15.618,35.926-41.914,18.221a3.268,3.268,0,0,1-4.3-1.692l-12.9-29.67,30.635,8.383a2.176,2.176,0,0,0,2.5-1.08L724.114,133.5l12.836,29.526A3.268,3.268,0,0,1,735.257,167.317Z" transform="translate(-442.89 -126.767)" fill="#e6e6e6"/>
    <circle id="Ellipse_16" data-name="Ellipse 16" cx="38.165" cy="38.165" r="38.165" transform="translate(189.838 183.994)" fill="#c25517"/>
    <path id="Path_868" data-name="Path 868" d="M656.152,732.628H645.627a4.64,4.64,0,0,1-4.635-4.635V640.272a4.64,4.64,0,0,1,4.635-4.635h10.525a4.64,4.64,0,0,1,4.635,4.635v87.721A4.64,4.64,0,0,1,656.152,732.628Z" transform="translate(-434.163 -272.761)" fill="#2f2e41"/>
    <path id="Path_869" data-name="Path 869" d="M685.344,732.628H674.819a4.64,4.64,0,0,1-4.635-4.635V640.272a4.64,4.64,0,0,1,4.635-4.635h10.525a4.64,4.64,0,0,1,4.635,4.635v87.721A4.64,4.64,0,0,1,685.344,732.628Z" transform="translate(-442.538 -272.761)" fill="#2f2e41"/>
    <path id="Path_870" data-name="Path 870" d="M734.2,592.383a4.665,4.665,0,0,1-1.364-.205,4.607,4.607,0,0,1-2.735-2.259l-41.121-77.486a4.635,4.635,0,0,1,1.922-6.267l9.3-4.934a4.634,4.634,0,0,1,6.267,1.921l41.12,77.486a4.633,4.633,0,0,1-1.921,6.267l-9.3,4.934A4.607,4.607,0,0,1,734.2,592.383Z" transform="translate(-447.773 -234.045)" fill="#c25517"/>
    <path id="Path_871" data-name="Path 871" d="M597.688,508.956a4.606,4.606,0,0,1-1.628-.3h0l-82.062-31a4.631,4.631,0,0,1-2.692-5.974l3.713-9.846a4.648,4.648,0,0,1,5.98-2.694l82.06,30.994a4.648,4.648,0,0,1,2.7,5.972l-3.719,9.848A4.656,4.656,0,0,1,597.688,508.956Z" transform="translate(-396.869 -222.04)" fill="#c25517"/>
    <rect id="Rectangle_141" data-name="Rectangle 141" width="56.379" height="110.157" rx="6" transform="translate(199.379 266.953)" fill="#2f2e41"/>
    <path id="Path_872" data-name="Path 872" d="M688.561,385.237c2.242,4.921,4.389,10.868,1.975,16.132a8.15,8.15,0,0,1-12.151,4.01c-4.854-2.526-7.982-7.219-12.315-10.435a14.644,14.644,0,0,0-6.777-2.921c-2.847-.371-5.674.3-8.459.819-2.962.552-6.024.843-8.765-.659a12.867,12.867,0,0,1-5.377-6.144c-.565-1.253-2.409-.167-1.847,1.08,2.331,5.175,7.152,8.7,12.944,8.293,3.065-.216,6.025-1.205,9.1-1.347a12.154,12.154,0,0,1,7.775,2.485c4.758,3.392,7.987,8.6,13.445,11.063a10.912,10.912,0,0,0,8.24.646,10.8,10.8,0,0,0,5.517-4.8c3.582-6.168,1.281-13.3-1.453-19.3C689.838,382.906,687.993,383.992,688.561,385.237Z" transform="translate(-432.369 -200.453)" fill="#2f2e41"/>
    <path id="Path_873" data-name="Path 873" d="M672.64,446.407c-2.357-.066-5.292-.148-7.552-1.8a5.8,5.8,0,0,1-2.282-4.33,3.9,3.9,0,0,1,1.327-3.2,5.032,5.032,0,0,1,4.763-.685l-1.926-14.067,1.413-.194,2.263,16.537-1.18-.541c-1.367-.627-3.246-.948-4.413.039a2.507,2.507,0,0,0-.822,2.064,4.383,4.383,0,0,0,1.7,3.229c1.759,1.285,4.1,1.451,6.751,1.525Z" transform="translate(-440.419 -211.506)" fill="#2f2e41"/>
    <rect id="Rectangle_142" data-name="Rectangle 142" width="7.681" height="1.426" transform="translate(211.883 212.029)" fill="#2f2e41"/>
    <rect id="Rectangle_143" data-name="Rectangle 143" width="7.681" height="1.426" transform="translate(236.129 212.029)" fill="#2f2e41"/>
    <path id="Path_874" data-name="Path 874" d="M615.668,514.485,581.943,504.2a4.279,4.279,0,0,1-2.9-5.145l3.937-15.513a4.279,4.279,0,0,1,5.984-2.812l33.45,15.9a4.287,4.287,0,0,1,2.492,5.512l-3.72,9.848A4.286,4.286,0,0,1,615.668,514.485Z" transform="translate(-416.352 -228.2)" fill="#2f2e41"/>
    <path id="Path_875" data-name="Path 875" d="M689.842,511.411l14.463,32.155a4.279,4.279,0,0,0,5.47,2.225l14.891-5.866a4.279,4.279,0,0,0,2.033-6.291l-20-31.173a4.287,4.287,0,0,0-5.783-1.776l-9.3,4.935A4.286,4.286,0,0,0,689.842,511.411Z" transform="translate(-448.035 -233.902)" fill="#2f2e41"/>
    <path id="Path_876" data-name="Path 876" d="M455.709,360.641l-99.145-21.387-1.288-.277a3.567,3.567,0,0,0-3.955,5.067l39.364,79.94a3.563,3.563,0,0,0,5.781.876l27.341-28.829a2.076,2.076,0,0,1,1.525-.666,2.147,2.147,0,0,1,1.911,1.111l5.6,10.359a3.485,3.485,0,0,0,3.9,1.788l.028-.006a3.489,3.489,0,0,0,2.765-3.314l1.122-23.912a2.182,2.182,0,0,1,.219-.859,2.323,2.323,0,0,1,.562-.694l15.774-12.948a3.57,3.57,0,0,0-1.506-6.247Zm.605,5.146-15.773,12.948a3.51,3.51,0,0,0-.555.561,3.313,3.313,0,0,0-.38.6,3.415,3.415,0,0,0-.259.678l0,.007a3.377,3.377,0,0,0-.112.748l-1.122,23.911a2.071,2.071,0,0,1-1.656,1.988l-.014,0a2.076,2.076,0,0,1-2.347-1.066L428.5,395.8a3.558,3.558,0,0,0-2.924-1.858h-.007c-.081,0-.163-.008-.242,0a3.47,3.47,0,0,0-1.62.4,3.423,3.423,0,0,0-.931.71l-27.341,28.829a2.139,2.139,0,0,1-3.469-.525L352.6,343.411a2.145,2.145,0,0,1,2.373-3.038l1.319.285L455.4,362.038a2.144,2.144,0,0,1,.91,3.75Z" transform="translate(-350.951 -187.626)" fill="#3f3d56"/>
    <path id="Path_877" data-name="Path 877" d="M441.678,380.389l-.589,1.3-.364-.161v-.007l-83.534-37.878,69.753,51.247.007,0,.185.142-.841,1.15-1.213-.893-68.738-50.493a1.428,1.428,0,0,1,1.19-2.542,1.235,1.235,0,0,1,.23.081l83.6,37.914Z" transform="translate(-352.326 -188.576)" fill="#3f3d56"/>
  </g>
</svg>
