<svg xmlns="http://www.w3.org/2000/svg" width="661.78" height="568.191" viewBox="0 0 661.78 568.191">
  <g id="JavaScript_frameworks-amico" data-name="JavaScript frameworks-amico" transform="translate(-12.47 -40.595)">
    <g id="freepik--Floor--inject-61" transform="translate(12.47 256.053)" opacity="0">
      <ellipse id="freepik--floor--inject-61-2" data-name="freepik--floor--inject-61" cx="330.89" cy="176.366" rx="330.89" ry="176.366" fill="#f0f0f0"/>
    </g>
    <g id="freepik--Shadows--inject-61" transform="translate(104.584 290.848)">
      <ellipse id="freepik--Shadow--inject-61" cx="49.106" cy="26.173" rx="49.106" ry="26.173" transform="translate(0 198.139)" fill="#a95f35"/>
      <path id="freepik--shadow--inject-61-2" data-name="freepik--shadow--inject-61" d="M336.8,429.564l54.939-29.272c1.944-1.033,1.944-2.712,0-3.744L89.043,235.173a8.372,8.372,0,0,0-6.993,0L27.125,264.444c-1.93,1.033-1.93,2.712,0,3.744L329.8,429.564a8.341,8.341,0,0,0,6.993,0Z" transform="translate(157.999 -234.407)" fill="#a95f35"/>
    </g>
    <g id="freepik--Device--inject-61" transform="translate(192.174 40.595)">
      <g id="freepik--PC--inject-61" transform="translate(104.303)">
        <g id="freepik--Monitor--inject-61">
          <path id="Path_370" data-name="Path 370" d="M193.354,377.863l-44.225-23.6c-4.56-2.44-6.839-5.617-6.839-8.806v-5.681l53.19-27.826a8.927,8.927,0,0,0,4.406-7.05V254.54l77.247,41.2V346.1a8.928,8.928,0,0,1-4.406,7.037l-46.365,24.714C217.243,382.718,202.459,382.718,193.354,377.863Z" transform="translate(-80.932 21.708)" fill="#ba68c8"/>
          <g id="Group_16" data-name="Group 16" transform="translate(61.358 276.248)" opacity="0.5">
            <path id="Path_371" data-name="Path 371" d="M193.354,377.863l-44.225-23.6c-4.56-2.44-6.839-5.617-6.839-8.806v-5.681l53.19-27.826a8.927,8.927,0,0,0,4.406-7.05V254.54l77.247,41.2V346.1a8.928,8.928,0,0,1-4.406,7.037l-46.365,24.714C217.243,382.718,202.459,382.718,193.354,377.863Z" transform="translate(-142.29 -254.54)"/>
          </g>
          <path id="Path_372" data-name="Path 372" d="M142.28,347.5v5.655l14.154-7.528a8.927,8.927,0,0,0,4.406-7.05V288.218l-14.728-7.838c-.294,3.448-.629,7.011-.937,10.485l10.322,5.513v39.33a8.837,8.837,0,0,1-4.392,7.037Z" transform="translate(35.375 29.233)" fill="#ba68c8"/>
          <path id="Path_373" data-name="Path 373" d="M142.28,347.5v5.655l14.154-7.528a8.927,8.927,0,0,0,4.406-7.05V288.218l-14.728-7.838c-.294,3.448-.629,7.011-.937,10.485l10.322,5.513v39.33a8.837,8.837,0,0,1-4.392,7.037Z" transform="translate(35.375 29.233)" opacity="0.7"/>
          <path id="Path_374" data-name="Path 374" d="M275.642,341.423a8.852,8.852,0,0,1-4.406,7.037l-41.022,21.873c-9.119,4.868-23.9,4.868-33.022,0l-44.253-23.6c-9.119-4.855-9.119-12.731,0-17.586l41.05-21.886a8.852,8.852,0,0,0,4.406-7.037V260.89l77.247,41.2Z" transform="translate(-84.77 23.558)" fill="#ba68c8"/>
          <path id="Path_375" data-name="Path 375" d="M275.642,341.423a8.852,8.852,0,0,1-4.406,7.037l-41.022,21.873c-9.119,4.868-23.9,4.868-33.022,0l-44.253-23.6c-9.119-4.855-9.119-12.731,0-17.586l41.05-21.886a8.852,8.852,0,0,0,4.406-7.037V260.89l77.247,41.2Z" transform="translate(-84.77 23.558)" opacity="0.3"/>
          <path id="Path_376" data-name="Path 376" d="M146.1,312.048h0l8.965-4.777a8.852,8.852,0,0,0,4.406-7.037V260.89l77.247,41.2v39.33a8.852,8.852,0,0,1-4.406,7.037l-8.811,4.7Z" transform="translate(-45.846 23.558)" fill="#ba68c8" opacity="0.7"/>
          <path id="Path_377" data-name="Path 377" d="M146.1,312.048h0l8.965-4.777a8.852,8.852,0,0,0,4.406-7.037V260.89l77.247,41.2v39.33a8.852,8.852,0,0,1-4.406,7.037l-8.811,4.7Z" transform="translate(-45.846 23.558)" opacity="0.6"/>
          <path id="Path_378" data-name="Path 378" d="M190.93,320.56v5.733c0,3.189,2.294,6.353,6.839,8.793l44.225,23.487a35.267,35.267,0,0,0,15.763,3.615v-5.655a35.267,35.267,0,0,1-15.763-3.615L197.769,329.3C193.224,326.939,190.93,323.711,190.93,320.56Z" transform="translate(-129.586 40.934)" fill="#ba68c8"/>
          <path id="Path_379" data-name="Path 379" d="M190.93,320.56v5.733c0,3.189,2.294,6.353,6.839,8.793l44.225,23.487a35.267,35.267,0,0,0,15.763,3.615v-5.655a35.267,35.267,0,0,1-15.763-3.615L197.769,329.3C193.224,326.939,190.93,323.711,190.93,320.56Z" transform="translate(-129.586 40.934)" opacity="0.2"/>
          <path id="Path_380" data-name="Path 380" d="M368.629,459.883a12.7,12.7,0,0,1-10.672-.181L59.237,300.483a11.119,11.119,0,0,1-5.5-8.806V50.3A10.688,10.688,0,0,1,58.9,41.686a12.623,12.623,0,0,1,10.658.181L368.28,201.086a11.07,11.07,0,0,1,5.5,8.793V451.335A10.767,10.767,0,0,1,368.629,459.883Z" transform="translate(-53.726 -40.595)" fill="#ba68c8"/>
          <path id="Path_381" data-name="Path 381" d="M368.629,459.883a12.7,12.7,0,0,1-10.672-.181L59.237,300.483a11.119,11.119,0,0,1-5.5-8.806V50.3A10.688,10.688,0,0,1,58.9,41.686a12.623,12.623,0,0,1,10.658.181L368.28,201.086a11.07,11.07,0,0,1,5.5,8.793V451.335A10.767,10.767,0,0,1,368.629,459.883Z" transform="translate(-53.726 -40.595)" opacity="0.3"/>
          <path id="Path_382" data-name="Path 382" d="M365.352,458.321,66.631,299.1a11.085,11.085,0,0,1-5.511-8.793V48.917c0-3.241,2.476-4.545,5.511-2.931L365.352,205.205a11.114,11.114,0,0,1,5.5,8.858V455.39C370.848,458.631,368.387,459.948,365.352,458.321Z" transform="translate(-61.12 -39.226)" fill="#ba68c8"/>
          <path id="Path_383" data-name="Path 383" d="M365.352,458.321,66.631,299.1a11.085,11.085,0,0,1-5.511-8.793V48.917c0-3.241,2.476-4.545,5.511-2.931L365.352,205.205a11.114,11.114,0,0,1,5.5,8.858V455.39C370.848,458.631,368.387,459.948,365.352,458.321Z" transform="translate(-61.12 -39.226)" fill="#ba68c8"/>
          <path id="Path_384" data-name="Path 384" d="M365.352,458.321,66.631,299.1a11.085,11.085,0,0,1-5.511-8.793V48.917c0-3.241,2.476-4.545,5.511-2.931L365.352,205.205a11.114,11.114,0,0,1,5.5,8.858V455.39C370.848,458.631,368.387,459.948,365.352,458.321Z" transform="translate(-61.12 -39.226)" opacity="0.5"/>
          <path id="Path_385" data-name="Path 385" d="M53.78,373.574a12.761,12.761,0,0,0,9.79-.194,10.712,10.712,0,0,0,5.161-8.625V337.64l-10.322,5.513v27.115C58.479,373.226,56.451,374.556,53.78,373.574Z" transform="translate(251.263 45.908)" fill="#ba68c8"/>
          <path id="Path_386" data-name="Path 386" d="M53.78,373.574a12.761,12.761,0,0,0,9.79-.194,10.712,10.712,0,0,0,5.161-8.625V337.64l-10.322,5.513v27.115C58.479,373.226,56.451,374.556,53.78,373.574Z" transform="translate(251.263 45.908)" opacity="0.7"/>
          <path id="Path_387" data-name="Path 387" d="M370.848,379.12v27.115c0,3.241-2.462,4.558-5.5,2.931L66.631,249.973a11.085,11.085,0,0,1-5.511-8.793V214Z" transform="translate(-61.12 9.903)" fill="#ba68c8"/>
          <g id="Group_17" data-name="Group 17" transform="translate(0 223.903)" opacity="0.5">
            <path id="Path_388" data-name="Path 388" d="M370.848,379.12v27.115c0,3.241-2.462,4.558-5.5,2.931L66.631,249.973a11.085,11.085,0,0,1-5.511-8.793V214Z" transform="translate(-61.12 -214)"/>
          </g>
          <path id="Path_389" data-name="Path 389" d="M357.626,404.711v-191.1a6.619,6.619,0,0,0-3.3-5.281L71.8,57.763c-1.818-.968-3.3-.181-3.3,1.769V250.58a6.657,6.657,0,0,0,3.3,5.281L354.326,406.416C356.158,407.436,357.626,406.648,357.626,404.711Z" transform="translate(-58.22 -35.716)" fill="#a95f35"/>
          <path id="Path_390" data-name="Path 390" d="M173.311,286.628a10.382,10.382,0,0,1,5.161,8.251c0,3.034-2.308,4.274-5.161,2.75a10.407,10.407,0,0,1-5.161-8.251C168.15,286.331,170.458,285.1,173.311,286.628Z" transform="translate(-18.44 30.862)" fill="#ba68c8"/>
          <path id="Path_391" data-name="Path 391" d="M173.311,286.628a10.382,10.382,0,0,1,5.161,8.251c0,3.034-2.308,4.274-5.161,2.75a10.407,10.407,0,0,1-5.161-8.251C168.15,286.331,170.458,285.1,173.311,286.628Z" transform="translate(-18.44 30.862)" fill="#fff" opacity="0.5"/>
          <path id="Path_392" data-name="Path 392" d="M53.73,173.3a10.231,10.231,0,0,1,1.622,5.087V392.571l10.322-5.513V172.833a10.089,10.089,0,0,0-1.622-5.023Z" transform="translate(254.39 -3.548)" fill="#ba68c8"/>
          <path id="Path_393" data-name="Path 393" d="M53.73,173.3a10.231,10.231,0,0,1,1.622,5.087V392.571l10.322-5.513V172.833a10.089,10.089,0,0,0-1.622-5.023Z" transform="translate(254.39 -3.548)" opacity="0.7"/>
        </g>
      </g>
      <g id="freepik--Keyboard--inject-61" transform="translate(0 344.784)">
        <path id="freepik--shadow--inject-61-3" data-name="freepik--shadow--inject-61" d="M442.9,435.611l-74.631,39.9a9.919,9.919,0,0,1-8.392,0L139.4,358.216c-2.322-1.291-2.322-3.228,0-4.468l74.645-39.9a9.918,9.918,0,0,1,8.392,0L442.9,431.156C445.212,432.383,445.226,434.4,442.9,435.611Z" transform="translate(-137.659 -306.075)" fill="#e0e0e0"/>
        <g id="freepik--keyboard--inject-61-2" data-name="freepik--keyboard--inject-61" transform="translate(6.207)">
          <path id="Path_394" data-name="Path 394" d="M141.07,348.138A2.748,2.748,0,0,1,142.8,345.9l70.114-37.355a9.918,9.918,0,0,1,8.392,0L435.3,422.77a2.759,2.759,0,0,1,1.72,2.234V431.8a2.711,2.711,0,0,1-1.734,2.221L365.2,471.384a9.964,9.964,0,0,1-8.392,0L142.818,357.332a2.737,2.737,0,0,1-1.734-2.221Z" transform="translate(-141.018 -307.619)" fill="#ba68c8"/>
          <path id="Path_395" data-name="Path 395" d="M141.07,348.138A2.748,2.748,0,0,1,142.8,345.9l70.114-37.355a9.918,9.918,0,0,1,8.392,0L435.3,422.77a2.759,2.759,0,0,1,1.72,2.234V431.8a2.711,2.711,0,0,1-1.734,2.221L365.2,471.384a9.964,9.964,0,0,1-8.392,0L142.818,357.332a2.737,2.737,0,0,1-1.734-2.221Z" transform="translate(-141.018 -307.619)" opacity="0.5"/>
          <path id="Path_396" data-name="Path 396" d="M365.241,464.435l70.086-37.2c2.308-1.227,2.322-3.215,0-4.455L221.335,308.56a9.919,9.919,0,0,0-8.392,0L142.83,345.928c-2.308,1.291-2.308,3.228,0,4.468L356.821,464.448A9.963,9.963,0,0,0,365.241,464.435Z" transform="translate(-141.099 -307.616)" fill="#ba68c8"/>
          <path id="Path_397" data-name="Path 397" d="M365.241,464.435l70.086-37.2c2.308-1.227,2.322-3.215,0-4.455L221.335,308.56a9.919,9.919,0,0,0-8.392,0L142.83,345.928c-2.308,1.291-2.308,3.228,0,4.468L356.821,464.448A9.963,9.963,0,0,0,365.241,464.435Z" transform="translate(-141.099 -307.616)" opacity="0.3"/>
          <path id="Path_398" data-name="Path 398" d="M141.1,438.88v6.947a9.514,9.514,0,0,0,3.93-.891l70.058-37.368a2.75,2.75,0,0,0,1.748-2.234v-6.8a2.789,2.789,0,0,1-1.748,2.234L145.03,437.976a9.133,9.133,0,0,1-3.93.9Z" transform="translate(79.126 -281.145)" fill="#ba68c8"/>
          <path id="Path_399" data-name="Path 399" d="M141.1,438.88v6.947a9.514,9.514,0,0,0,3.93-.891l70.058-37.368a2.75,2.75,0,0,0,1.748-2.234v-6.8a2.789,2.789,0,0,1-1.748,2.234L145.03,437.976a9.133,9.133,0,0,1-3.93.9Z" transform="translate(79.126 -281.145)" opacity="0.7"/>
          <path id="Path_400" data-name="Path 400" d="M275.1,346.474l-7.986,4.261a1.166,1.166,0,0,1-.518.116l-7.357-3.783,8.588-4.468Z" transform="translate(-144.373 -297.432)" fill="#37474f"/>
          <path id="Path_401" data-name="Path 401" d="M281.97,342.511l-8.028,4.274a1.063,1.063,0,0,1-.476.09h-.294l-7.063-3.77,8.588-4.455Z" transform="translate(-160.852 -298.582)" fill="#37474f"/>
          <path id="Path_402" data-name="Path 402" d="M268.076,353.711l-8.014,4.274a1.109,1.109,0,0,1-.476.09l-11.916-6.211,8.588-4.455Z" transform="translate(-121.167 -296.031)" fill="#37474f"/>
          <path id="Path_403" data-name="Path 403" d="M256.661,357.134l-8,4.261a1.167,1.167,0,0,1-.49.1l-7.371-3.783,8.588-4.455Z" transform="translate(-100.142 -294.328)" fill="#37474f"/>
          <path id="Path_404" data-name="Path 404" d="M210.7,410.038l-7.371-3.783,8.588-4.455,7.273,3.874-8.014,4.287A1.413,1.413,0,0,1,210.7,410.038Z" transform="translate(-10.266 -280.192)" fill="#37474f"/>
          <path id="Path_405" data-name="Path 405" d="M249.78,361.094l-7.986,4.261a1.06,1.06,0,0,1-.517.116l-7.357-3.783,8.588-4.468Z" transform="translate(-83.64 -293.174)" fill="#37474f"/>
          <path id="Path_406" data-name="Path 406" d="M275.6,347.09l7.273,3.874-8,4.261a1,1,0,0,1-.49.1l-7.371-3.783Z" transform="translate(-163.011 -296.124)" fill="#37474f"/>
          <path id="Path_407" data-name="Path 407" d="M254.291,375.858l-7.371-3.783,8.6-4.455,7.273,3.874-8.014,4.274A1.124,1.124,0,0,1,254.291,375.858Z" transform="translate(-114.836 -290.146)" fill="#37474f"/>
          <path id="Path_408" data-name="Path 408" d="M281.277,351.371l-7.357-3.783,8.588-4.468,7.273,3.874-8.028,4.274A1.063,1.063,0,0,1,281.277,351.371Z" transform="translate(-179.585 -297.28)" fill="#37474f"/>
          <path id="Path_409" data-name="Path 409" d="M247.407,379.861l-7.357-3.783,8.588-4.468,7.273,3.874-7.986,4.261A1.06,1.06,0,0,1,247.407,379.861Z" transform="translate(-98.344 -288.984)" fill="#37474f"/>
          <path id="Path_410" data-name="Path 410" d="M240.537,383.861l-7.357-3.783,8.588-4.468,7.273,3.874-8.014,4.274A1.167,1.167,0,0,1,240.537,383.861Z" transform="translate(-81.865 -287.819)" fill="#37474f"/>
          <path id="Path_411" data-name="Path 411" d="M273.455,370.238,258,362.142l19.441-10.252,8.238,4.416-10.168,5.41a.468.468,0,0,0-.294.387.414.414,0,0,0,.252.349l6.42,3.422-7.972,4.248A1.087,1.087,0,0,1,273.455,370.238Z" transform="translate(-153.217 -294.727)" fill="#37474f"/>
          <path id="Path_412" data-name="Path 412" d="M236.04,369.034l-8.014,4.274a1.063,1.063,0,0,1-.476.09l-7.371-3.783,8.6-4.455Z" transform="translate(-50.682 -290.862)" fill="#37474f"/>
          <path id="Path_413" data-name="Path 413" d="M261.171,371.928l-7.371-3.783,8.588-4.455,7.273,3.874L261.7,371.8a1.1,1.1,0,0,1-.532.129Z" transform="translate(-131.325 -291.29)" fill="#37474f"/>
          <path id="Path_414" data-name="Path 414" d="M182.861,408.171l-7.371-3.783,8.6-4.468,7.273,3.874-7.986,4.248A1.161,1.161,0,0,1,182.861,408.171Z" transform="translate(56.499 -280.74)" fill="#37474f"/>
          <path id="Path_415" data-name="Path 415" d="M181.061,400.768l-8.028,4.287a1.259,1.259,0,0,1-.462.09h-.294l-7.077-3.77,8.6-4.455Z" transform="translate(81.195 -281.613)" fill="#37474f"/>
          <path id="Path_416" data-name="Path 416" d="M192.307,411.605h-.294l-6.993-3.77,8.588-4.455,7.273,3.874-8.028,4.274A1.293,1.293,0,0,1,192.307,411.605Z" transform="translate(33.654 -279.732)" fill="#37474f"/>
          <path id="Path_417" data-name="Path 417" d="M196.951,417.968l-7.371-3.783,8.6-4.455,7.273,3.874-7.986,4.248a1,1,0,0,1-.517.116Z" transform="translate(22.702 -277.883)" fill="#37474f"/>
          <path id="Path_418" data-name="Path 418" d="M187.931,396.8l-8.014,4.287a1.413,1.413,0,0,1-.476.09l-7.371-3.783,8.6-4.455Z" transform="translate(64.716 -282.772)" fill="#37474f"/>
          <path id="Path_419" data-name="Path 419" d="M203.817,414.011l-7.357-3.8,8.588-4.455,7.259,3.874-8.014,4.274a1.106,1.106,0,0,1-.476.1Z" transform="translate(6.227 -279.039)" fill="#37474f"/>
          <path id="Path_420" data-name="Path 420" d="M208.551,384.874l-8,4.274a1.17,1.17,0,0,1-.49.09l-7.371-3.77,8.6-4.468Z" transform="translate(15.256 -286.249)" fill="#37474f"/>
          <path id="Path_421" data-name="Path 421" d="M215.421,380.934l-7.986,4.261a1.059,1.059,0,0,1-.5.116l-7.371-3.783,8.588-4.468Z" transform="translate(-1.223 -287.397)" fill="#37474f"/>
          <path id="Path_422" data-name="Path 422" d="M222.291,376.961l-7.972,4.261a1.135,1.135,0,0,1-.518.116l-7.371-3.783,8.588-4.455Z" transform="translate(-17.701 -288.55)" fill="#37474f"/>
          <path id="Path_423" data-name="Path 423" d="M201.685,388.874l-7.986,4.248a1.085,1.085,0,0,1-.5.129l-7.385-3.8L194.426,385Z" transform="translate(31.745 -285.085)" fill="#37474f"/>
          <path id="Path_424" data-name="Path 424" d="M229.171,373l-8.014,4.274a1.228,1.228,0,0,1-.476.09l-7.371-3.783,8.6-4.455Z" transform="translate(-34.204 -289.706)" fill="#37474f"/>
          <path id="Path_425" data-name="Path 425" d="M194.8,392.874l-8.014,4.261a1.167,1.167,0,0,1-.49.1l-7.357-3.783L187.528,389Z" transform="translate(48.237 -283.92)" fill="#37474f"/>
          <path id="Path_426" data-name="Path 426" d="M242.911,365.064l-8.028,4.287a1.258,1.258,0,0,1-.462.09l-7.371-3.783,8.588-4.468Z" transform="translate(-67.161 -292.018)" fill="#37474f"/>
          <path id="Path_427" data-name="Path 427" d="M260.081,364.121l-7.986,4.248a1.089,1.089,0,0,1-.517.116h-.294l-7.063-3.77,8.588-4.455Z" transform="translate(-108.346 -292.289)" fill="#37474f"/>
          <path id="Path_428" data-name="Path 428" d="M297.171,333.744l-7.986,4.248a1.12,1.12,0,0,1-.5.116l-7.371-3.783,8.6-4.455Z" transform="translate(-197.311 -301.139)" fill="#37474f"/>
          <path id="Path_429" data-name="Path 429" d="M304.04,329.774l-7.986,4.248a1.058,1.058,0,0,1-.5.116l-7.371-3.783,8.588-4.455Z" transform="translate(-213.79 -302.295)" fill="#37474f"/>
          <path id="Path_430" data-name="Path 430" d="M253.211,368.084l-7.986,4.261a1.12,1.12,0,0,1-.5.116l-7.371-3.783,8.588-4.468Z" transform="translate(-91.867 -291.139)" fill="#37474f"/>
          <path id="Path_431" data-name="Path 431" d="M310.91,325.8l-7.986,4.261a1.149,1.149,0,0,1-.5.116l-7.371-3.8,8.588-4.455Z" transform="translate(-230.269 -303.451)" fill="#37474f"/>
          <path id="Path_432" data-name="Path 432" d="M258.447,364.515h-.294l-7.063-3.77,8.588-4.455,7.273,3.874-7.986,4.248a1.138,1.138,0,0,1-.517.1Z" transform="translate(-124.824 -293.445)" fill="#37474f"/>
          <path id="Path_433" data-name="Path 433" d="M304.931,338.224l-7.972,4.248a1.221,1.221,0,0,1-.531.129l-7.357-3.783,8.588-4.468Z" transform="translate(-215.925 -299.834)" fill="#37474f"/>
          <path id="Path_434" data-name="Path 434" d="M318.681,330.281l-7.972,4.248a1.086,1.086,0,0,1-.518.129l-7.371-3.783,8.616-4.455Z" transform="translate(-248.906 -302.144)" fill="#37474f"/>
          <path id="Path_435" data-name="Path 435" d="M303.291,338.631l-7.371-3.783,8.6-4.468,7.273,3.874-8.014,4.274A1.167,1.167,0,0,1,303.291,338.631Z" transform="translate(-232.369 -300.99)" fill="#37474f"/>
          <path id="Path_436" data-name="Path 436" d="M317.508,336.389a1.244,1.244,0,0,1-.448.09h-.308l-7.063-3.757,19.455-10.252,7.273,3.874Z" transform="translate(-276.252 -303.294)" fill="#37474f"/>
          <path id="Path_437" data-name="Path 437" d="M246.345,372.048l-8,4.261a1.045,1.045,0,0,1-.5.116h-.294l-7.077-3.757,8.6-4.468Z" transform="translate(-75.379 -289.977)" fill="#37474f"/>
          <path id="Path_438" data-name="Path 438" d="M311.067,343.1h-.294l-7.063-3.77,8.588-4.455,7.273,3.874L311.584,343A1.136,1.136,0,0,1,311.067,343.1Z" transform="translate(-251.041 -299.68)" fill="#37474f"/>
          <path id="Path_439" data-name="Path 439" d="M317.951,339.138l-7.371-3.783,8.6-4.455,7.273,3.874-7.972,4.248a1.181,1.181,0,0,1-.532.116Z" transform="translate(-267.533 -300.839)" fill="#37474f"/>
          <path id="Path_440" data-name="Path 440" d="M211.971,391.874l-7.986,4.248a1.131,1.131,0,0,1-.518.129l-7.357-3.783L204.7,388Z" transform="translate(7.053 -284.211)" fill="#37474f"/>
          <path id="Path_441" data-name="Path 441" d="M198.231,399.874l-7.972,4.248a1.09,1.09,0,0,1-.517.116h-.294l-7.077-3.77,8.6-4.468Z" transform="translate(40.01 -281.881)" fill="#37474f"/>
          <path id="Path_442" data-name="Path 442" d="M206.181,403.681,198.81,399.9l8.616-4.468,7.259,3.874-8.028,4.274a1.017,1.017,0,0,1-.476.1Z" transform="translate(0.562 -282.047)" fill="#37474f"/>
          <path id="Path_443" data-name="Path 443" d="M199.291,407.638l-7.371-3.783,8.6-4.455,7.273,3.874-8.028,4.274a1.065,1.065,0,0,1-.476.09Z" transform="translate(17.089 -280.891)" fill="#37474f"/>
          <path id="Path_444" data-name="Path 444" d="M213.061,399.7h-.308l-7.063-3.757,8.588-4.468,7.273,3.874-7.972,4.248a1.093,1.093,0,0,1-.518.1Z" transform="translate(-15.926 -283.198)" fill="#37474f"/>
          <path id="Path_445" data-name="Path 445" d="M239.461,376.021l-8,4.261a1.153,1.153,0,0,1-.5.1h-.294l-7.063-3.77,8.588-4.455Z" transform="translate(-58.886 -288.824)" fill="#37474f"/>
          <path id="Path_446" data-name="Path 446" d="M226.8,391.768l-7.371-3.783,8.6-4.455L235.3,387.4l-7.986,4.248a1.164,1.164,0,0,1-.517.116Z" transform="translate(-48.898 -285.513)" fill="#37474f"/>
          <path id="Path_447" data-name="Path 447" d="M219.917,395.723,212.56,392l8.588-4.455,7.273,3.874-8.028,4.287A1.349,1.349,0,0,1,219.917,395.723Z" transform="translate(-32.405 -284.342)" fill="#37474f"/>
          <path id="Path_448" data-name="Path 448" d="M225.721,383.964l-7.972,4.248a1.091,1.091,0,0,1-.518.116l-7.371-3.783,8.588-4.455Z" transform="translate(-25.929 -286.514)" fill="#37474f"/>
          <path id="Path_449" data-name="Path 449" d="M205.1,395.874l-7.972,4.248a1.151,1.151,0,0,1-.531.116l-7.357-3.783L197.828,392Z" transform="translate(23.531 -283.046)" fill="#37474f"/>
          <path id="Path_450" data-name="Path 450" d="M232.59,379.994l-7.986,4.248a1.09,1.09,0,0,1-.517.116l-7.357-3.783,8.588-4.455Z" transform="translate(-42.407 -287.671)" fill="#37474f"/>
          <path id="Path_451" data-name="Path 451" d="M218.861,387.918l-7.972,4.261a1.09,1.09,0,0,1-.517.116h-.294L203,388.537l8.6-4.468Z" transform="translate(-9.474 -285.355)" fill="#37474f"/>
          <path id="Path_452" data-name="Path 452" d="M233.681,387.8l-7.371-3.783,8.6-4.455,7.259,3.874-8,4.261a1,1,0,0,1-.49.1Z" transform="translate(-65.386 -286.669)" fill="#37474f"/>
          <path id="Path_453" data-name="Path 453" d="M288.861,338.544l-8.014,4.274a1.153,1.153,0,0,1-.476.09L273,339.125l8.6-4.455Z" transform="translate(-177.379 -299.741)" fill="#37474f"/>
          <path id="Path_454" data-name="Path 454" d="M166.922,400.87l7.273,3.874-8.028,4.274a1.064,1.064,0,0,1-.476.09H165.4l-7.077-3.77Z" transform="translate(97.683 -280.463)" fill="#37474f"/>
          <path id="Path_455" data-name="Path 455" d="M174.678,403.89l10.811,5.759-8.028,4.287a1.26,1.26,0,0,1-.462.09h-.308l-10.6-5.655Z" transform="translate(75.521 -279.584)" fill="#37474f"/>
          <path id="Path_456" data-name="Path 456" d="M157.478,394.8l8.8,4.687-8,4.248a1.044,1.044,0,0,1-.5.116l-8.881-4.584Z" transform="translate(118.792 -282.231)" fill="#37474f"/>
          <path id="Path_457" data-name="Path 457" d="M190.218,413.7,199,418.387l-7.972,4.248a1.164,1.164,0,0,1-.518.116l-8.881-4.6Z" transform="translate(40.274 -276.727)" fill="#37474f"/>
          <path id="Path_458" data-name="Path 458" d="M182.462,407.34l13.329,7.1-8.014,4.274a1.156,1.156,0,0,1-.476.09h-.294l-13.147-7Z" transform="translate(54.352 -278.579)" fill="#37474f"/>
          <path id="Path_459" data-name="Path 459" d="M167.157,397.348l-7.357-3.783,8.644-4.455,7.273,3.874-7.986,4.261a1.094,1.094,0,0,1-.573.1Z" transform="translate(94.091 -283.888)" fill="#37474f"/>
          <path id="Path_460" data-name="Path 460" d="M208.789,423.109,200.8,427.37a1.243,1.243,0,0,1-.5.1L189.39,421.8l8.588-4.455Z" transform="translate(19.633 -275.664)" fill="#37474f"/>
          <path id="Path_461" data-name="Path 461" d="M174.091,393.378l-7.371-3.783,8.6-4.455,7.259,3.874-8.014,4.274A1.153,1.153,0,0,1,174.091,393.378Z" transform="translate(77.549 -285.044)" fill="#37474f"/>
          <path id="Path_462" data-name="Path 462" d="M204.571,375.785h-.294l-7.077-3.77,8.6-4.455,7.259,3.874-7.986,4.261a1.065,1.065,0,0,1-.5.09Z" transform="translate(4.438 -290.163)" fill="#37474f"/>
          <path id="Path_463" data-name="Path 463" d="M211.441,371.861l-7.371-3.783,8.588-4.468,7.273,3.874-8,4.261A1.03,1.03,0,0,1,211.441,371.861Z" transform="translate(-12.04 -291.314)" fill="#37474f"/>
          <path id="Path_464" data-name="Path 464" d="M197.557,379.745h-.294l-6.993-3.77,8.588-4.455,7.273,3.874-8.014,4.235a1.136,1.136,0,0,1-.559.116Z" transform="translate(21.061 -289.01)" fill="#37474f"/>
          <path id="Path_465" data-name="Path 465" d="M187.831,385.445h-.308l-7.063-3.757,8.588-4.468,7.273,3.874-8,4.261A.974.974,0,0,1,187.831,385.445Z" transform="translate(44.591 -287.35)" fill="#37474f"/>
          <path id="Path_466" data-name="Path 466" d="M180.961,389.421l-7.371-3.783,8.588-4.468,7.273,3.874-8.014,4.274A1.061,1.061,0,0,1,180.961,389.421Z" transform="translate(61.07 -286.2)" fill="#37474f"/>
          <path id="Path_467" data-name="Path 467" d="M341.907,343.741l-8.028,4.287a1.261,1.261,0,0,1-.462.077h-.294l-6.993-3.77,8.588-4.455Z" transform="translate(-304.734 -298.224)" fill="#37474f"/>
          <path id="Path_468" data-name="Path 468" d="M306.171,364.414l-7.972,4.248a1.012,1.012,0,0,1-.518.129l-7.371-3.783,8.588-4.468Z" transform="translate(-218.899 -292.208)" fill="#37474f"/>
          <path id="Path_469" data-name="Path 469" d="M337.849,352.837l-7.986,4.248a1.119,1.119,0,0,1-.5.116h-.294l-16.686-8.9,8.588-4.455Z" transform="translate(-281.446 -297.068)" fill="#37474f"/>
          <path id="Path_470" data-name="Path 470" d="M313.054,360.454l-7.972,4.235a1.057,1.057,0,0,1-.531.129l-7.371-3.783,8.6-4.455Z" transform="translate(-235.392 -293.361)" fill="#37474f"/>
          <path id="Path_471" data-name="Path 471" d="M319.92,356.484l-7.944,4.222a.965.965,0,0,1-.545.142l-7.371-3.783,8.6-4.455Z" transform="translate(-251.88 -294.517)" fill="#37474f"/>
          <path id="Path_472" data-name="Path 472" d="M218.3,367.858h-.308l-7.063-3.77,8.588-4.468,7.273,3.874-7.972,4.248a1.136,1.136,0,0,1-.518.116Z" transform="translate(-28.495 -292.476)" fill="#37474f"/>
          <path id="Path_473" data-name="Path 473" d="M344.671,331.41l7.273,3.874-18.9,10.071a1.259,1.259,0,0,1-.461.09h-.294l-7.063-3.77Z" transform="translate(-313.513 -300.691)" fill="#37474f"/>
          <path id="Path_474" data-name="Path 474" d="M224.131,412.847l-7.972,4.248a1.165,1.165,0,0,1-.518.116l-8.881-4.6,8.644-4.455Z" transform="translate(-20.003 -278.34)" fill="#37474f"/>
          <path id="Path_475" data-name="Path 475" d="M278.138,413.786l-7.972,4.248a1.148,1.148,0,0,1-.531.129h-.294L214.71,389.008l8.6-4.468Z" transform="translate(-85.13 -285.219)" fill="#37474f"/>
          <path id="Path_476" data-name="Path 476" d="M217.571,406.068l-7.371-3.783,8.588-4.455,7.273,3.874-8.014,4.261A1.149,1.149,0,0,1,217.571,406.068Z" transform="translate(-26.744 -281.348)" fill="#37474f"/>
          <path id="Path_477" data-name="Path 477" d="M216.171,417.437l-7.972,4.248a1.177,1.177,0,0,1-.518.129l-8.881-4.6,8.588-4.468Z" transform="translate(-0.91 -277.004)" fill="#37474f"/>
          <path id="Path_478" data-name="Path 478" d="M272.961,384.635l-7.986,4.261a1.223,1.223,0,0,1-.5.116h-.308l-8.574-4.571L264.178,380Z" transform="translate(-137.129 -286.541)" fill="#37474f"/>
          <path id="Path_479" data-name="Path 479" d="M288.885,375.451l-8.014,4.274a1.093,1.093,0,0,1-.49.1h-.294l-8.588-4.571,8.588-4.468Z" transform="translate(-175.305 -289.223)" fill="#37474f"/>
          <path id="Path_480" data-name="Path 480" d="M280.925,380.057l-8.028,4.274a1.154,1.154,0,0,1-.475.09l-8.881-4.6,8.588-4.455Z" transform="translate(-156.212 -287.889)" fill="#37474f"/>
          <path id="Path_481" data-name="Path 481" d="M298.859,371.106l-7.986,4.248a1.09,1.09,0,0,1-.518.116h-.294l-10.6-5.656,8.588-4.455Z" transform="translate(-196.412 -290.804)" fill="#37474f"/>
          <path id="Path_482" data-name="Path 482" d="M288.171,347.4h-.294l-7.077-3.757,8.532-4.493,7.273,3.874L288.59,347.3a1.117,1.117,0,0,1-.42.1Z" transform="translate(-196.032 -298.437)" fill="#37474f"/>
          <path id="Path_483" data-name="Path 483" d="M296.791,360.335H296.5l-7.077-3.77,8.588-4.455,7.273,3.874-8,4.274A1.127,1.127,0,0,1,296.791,360.335Z" transform="translate(-216.764 -294.663)" fill="#37474f"/>
          <path id="Path_484" data-name="Path 484" d="M285.195,375.851,265.18,365.315l8.6-4.455L293.7,371.474l-8.028,4.274a1.031,1.031,0,0,1-.476.1Z" transform="translate(-171.279 -292.114)" fill="#37474f"/>
          <path id="Path_485" data-name="Path 485" d="M311.981,351.555h-.308l-7.063-3.77,8.588-4.455,7.273,3.874-8.014,4.274a1.156,1.156,0,0,1-.476.077Z" transform="translate(-253.2 -297.219)" fill="#37474f"/>
          <path id="Path_486" data-name="Path 486" d="M318.837,347.595h-.294l-7.063-3.757,8.588-4.468,7.273,3.874-8,4.274A1.187,1.187,0,0,1,318.837,347.595Z" transform="translate(-269.678 -298.372)" fill="#37474f"/>
          <path id="Path_487" data-name="Path 487" d="M265.681,378.3l-7.371-3.783,8.588-4.468,7.273,3.874-7.986,4.261A1.2,1.2,0,0,1,265.681,378.3Z" transform="translate(-142.143 -289.438)" fill="#37474f"/>
          <path id="Path_488" data-name="Path 488" d="M304.157,347.078h-.294l-7.063-3.77,8.644-4.468,7.273,3.874-7.972,4.235a1.014,1.014,0,0,1-.588.129Z" transform="translate(-234.522 -298.527)" fill="#37474f"/>
          <path id="Path_489" data-name="Path 489" d="M231.3,398.128l-7.371-3.783,8.6-4.455,7.259,3.874-8.014,4.274a1.063,1.063,0,0,1-.476.09Z" transform="translate(-59.677 -283.661)" fill="#37474f"/>
          <path id="Path_490" data-name="Path 490" d="M258.811,382.264l-7.371-3.783,8.6-4.48,7.259,3.874-8.028,4.287A1.359,1.359,0,0,1,258.811,382.264Z" transform="translate(-125.664 -288.288)" fill="#37474f"/>
          <path id="Path_491" data-name="Path 491" d="M224.307,402.095h-.294l-6.993-3.77,8.588-4.455,7.273,3.874-8.028,4.274a1.068,1.068,0,0,1-.545.078Z" transform="translate(-43.103 -282.502)" fill="#37474f"/>
          <path id="Path_492" data-name="Path 492" d="M238.171,394.171l-7.371-3.783,8.616-4.468,7.273,3.874-8.042,4.287a1.079,1.079,0,0,1-.476.09Z" transform="translate(-76.184 -284.817)" fill="#37474f"/>
          <path id="Path_493" data-name="Path 493" d="M245.075,390.186h-.322l-7.063-3.77L246.306,382l7.273,3.874-7.986,4.261a1.07,1.07,0,0,1-.517.052Z" transform="translate(-92.711 -285.958)" fill="#37474f"/>
          <path id="Path_494" data-name="Path 494" d="M251.931,386.225h-.294l-7.077-3.77,8.6-4.455,7.273,3.874-8.028,4.274a1.293,1.293,0,0,1-.476.077Z" transform="translate(-109.175 -287.123)" fill="#37474f"/>
          <path id="Path_495" data-name="Path 495" d="M234.993,358.191l-7.343-3.783,8.6-4.468,7.273,3.874-7.986,4.248A.984.984,0,0,1,234.993,358.191Z" transform="translate(-68.614 -295.294)" fill="#37474f"/>
          <path id="Path_496" data-name="Path 496" d="M325.721,343.625h-.294l-7.077-3.757,8.6-4.468,7.273,3.874L326.2,343.56A1.3,1.3,0,0,1,325.721,343.625Z" transform="translate(-286.171 -299.529)" fill="#37474f"/>
          <path id="Path_497" data-name="Path 497" d="M248.777,350.251l-7.357-3.783L250.008,342l7.273,3.874-7.972,4.248a1.148,1.148,0,0,1-.531.129Z" transform="translate(-101.63 -297.607)" fill="#37474f"/>
          <path id="Path_498" data-name="Path 498" d="M264.061,341.441l-7.371-3.783,8.6-4.468,7.259,3.874-7.986,4.261A1.045,1.045,0,0,1,264.061,341.441Z" transform="translate(-138.257 -300.172)" fill="#37474f"/>
          <path id="Path_499" data-name="Path 499" d="M257.157,345.411l-7.357-3.783,8.6-4.468,7.273,3.874-7.986,4.261a1.135,1.135,0,0,1-.531.116Z" transform="translate(-121.744 -299.016)" fill="#37474f"/>
          <path id="Path_500" data-name="Path 500" d="M228.181,362.161l-7.371-3.8,8.6-4.455,7.259,3.874-7.986,4.261a1.225,1.225,0,0,1-.5.116Z" transform="translate(-52.194 -294.138)" fill="#37474f"/>
          <path id="Path_501" data-name="Path 501" d="M241.851,354.212h-.308l-6.993-3.77L243.068,346l7.273,3.874-7.972,4.248A1.14,1.14,0,0,1,241.851,354.212Z" transform="translate(-85.081 -296.442)" fill="#37474f"/>
          <path id="Path_502" data-name="Path 502" d="M270.931,337.468l-7.371-3.783,8.588-4.455,7.273,3.874-7.986,4.248a1.044,1.044,0,0,1-.5.116Z" transform="translate(-154.735 -301.325)" fill="#37474f"/>
          <path id="Path_503" data-name="Path 503" d="M300.657,319.133,293.3,315.35l4.671-2.35,7.273,3.874L301.16,319A1.236,1.236,0,0,1,300.657,319.133Z" transform="translate(-222.155 -306.052)" fill="#37474f"/>
          <path id="Path_504" data-name="Path 504" d="M309.291,326.2l-7.371-3.783,8.6-4.416,7.273,3.874-7.986,4.261a1.175,1.175,0,0,1-.518.065Z" transform="translate(-246.761 -304.596)" fill="#37474f"/>
          <path id="Path_505" data-name="Path 505" d="M280.077,331.035h-.294l-7.063-3.77,4.671-2.324,7.273,3.874-4.07,2.13a1.334,1.334,0,0,1-.518.09Z" transform="translate(-172.791 -302.575)" fill="#37474f"/>
          <path id="Path_506" data-name="Path 506" d="M286.847,327.056h-.294L279.56,323.3l4.587-2.3,7.273,3.874-4.1,2.13A1.161,1.161,0,0,1,286.847,327.056Z" transform="translate(-189.114 -303.722)" fill="#37474f"/>
          <path id="Path_507" data-name="Path 507" d="M293.8,323.095l-7.371-3.783L291.1,317l7.273,3.874-4.112,2.143a1.263,1.263,0,0,1-.461.077Z" transform="translate(-205.676 -304.887)" fill="#37474f"/>
        </g>
      </g>
    </g>
    <g id="freepik--Windows--inject-61" transform="translate(185.202 63.498)">
      <g id="Group_19" data-name="Group 19" transform="translate(90.366 2.876)" opacity="0.8">
        <path id="Path_508" data-name="Path 508" d="M91.29,63.39V255.07a8.685,8.685,0,0,0,4.308,6.9L375.451,411.409a2.968,2.968,0,0,0,1.4.387,2.64,2.64,0,0,0,.545,0,1.692,1.692,0,0,0,.364-.116l.238-.129.252-.155a1.669,1.669,0,0,0,.238-.194,3.268,3.268,0,0,0,.8-1.046,4.682,4.682,0,0,0,.448-2.014V217.353a8.736,8.736,0,0,0-4.322-6.908L95.6,61.117a3.369,3.369,0,0,0-2.9-.336,2.611,2.611,0,0,0-.378.194h0a1.073,1.073,0,0,0-.28.271.635.635,0,0,0-.126.142.692.692,0,0,0-.14.207,1.722,1.722,0,0,0-.252.5,1.394,1.394,0,0,0-.1.362.084.084,0,0,0,0,.077,1.514,1.514,0,0,0-.07.362A1.354,1.354,0,0,0,91.29,63.39Z" transform="translate(-91.29 -60.549)" fill="#455a64"/>
        <path id="Path_509" data-name="Path 509" d="M93.652,61.851a1.2,1.2,0,0,0-.42.077h-.084l-.112.142h0l-.112.142v.065h0l-.126.374h0a.667.667,0,0,1,0,.09V255.081a7.407,7.407,0,0,0,3.609,5.785L376.121,410.31a1.483,1.483,0,0,0,.727.207h.392l.182-.116h0v-.065a1.7,1.7,0,0,0,.462-.607,3.38,3.38,0,0,0,.336-1.5V217.365a7.385,7.385,0,0,0-3.622-5.785L94.882,62.213a2.874,2.874,0,0,0-1.231-.362m0-1.291a4.126,4.126,0,0,1,1.916.529l279.854,149.38a8.738,8.738,0,0,1,4.322,6.9V408.076a4.682,4.682,0,0,1-.448,2.014,3.268,3.268,0,0,1-.8,1.046,1.675,1.675,0,0,1-.238.194l-.252.155-.238.129a1.685,1.685,0,0,1-.364.116,2.632,2.632,0,0,1-.545,0h-.07a2.968,2.968,0,0,1-1.4-.387L95.568,261.976a8.685,8.685,0,0,1-4.308-6.9V62.9a1.516,1.516,0,0,1,.07-.362.084.084,0,0,1,0-.077,1.39,1.39,0,0,1,.1-.362,1.721,1.721,0,0,1,.252-.5.693.693,0,0,1,.14-.207.633.633,0,0,1,.126-.142,1.076,1.076,0,0,1,.28-.271h0a2.617,2.617,0,0,1,.378-.194,2.441,2.441,0,0,1,.979-.194Z" transform="translate(-91.26 -60.56)" fill="#455a64"/>
        <g id="Group_18" data-name="Group 18" transform="translate(0 0.049)" opacity="0.7">
          <path id="Path_510" data-name="Path 510" d="M91.29,63.39V255.07a8.685,8.685,0,0,0,4.308,6.9L375.451,411.409a2.968,2.968,0,0,0,1.4.387,2.64,2.64,0,0,0,.545,0,1.692,1.692,0,0,0,.364-.116l.238-.129.252-.155a1.669,1.669,0,0,0,.238-.194,3.268,3.268,0,0,0,.8-1.046,4.682,4.682,0,0,0,.448-2.014V217.353a8.736,8.736,0,0,0-4.322-6.908L95.6,61.117a3.369,3.369,0,0,0-2.9-.336,2.611,2.611,0,0,0-.378.194h0a1.073,1.073,0,0,0-.28.271.635.635,0,0,0-.126.142.692.692,0,0,0-.14.207,1.722,1.722,0,0,0-.252.5,1.394,1.394,0,0,0-.1.362.084.084,0,0,0,0,.077,1.514,1.514,0,0,0-.07.362A1.354,1.354,0,0,0,91.29,63.39Z" transform="translate(-91.29 -60.598)" fill="#455a64"/>
        </g>
      </g>
      <path id="Path_511" data-name="Path 511" d="M87.32,61.4a3.369,3.369,0,0,1,2.9.336l279.854,149.38a8.738,8.738,0,0,1,4.322,6.9v13.015l5.511-2.983V215.133a8.686,8.686,0,0,0-4.308-6.882L95.726,58.871a3.187,3.187,0,0,0-3.133-.232C91.824,59.065,88.243,60.963,87.32,61.4Z" transform="translate(4.459 -58.333)" fill="#ba68c8"/>
      <path id="Path_512" data-name="Path 512" d="M91.26,63.362c0-2.5,1.944-3.525,4.308-2.26l279.867,149.38a8.686,8.686,0,0,1,4.308,6.882V230.38L91.26,76.429Z" transform="translate(-0.894 -57.685)" fill="#ba68c8"/>
      <g id="Group_20" data-name="Group 20" transform="translate(91.793)" opacity="0.4">
        <path id="Path_513" data-name="Path 513" d="M91.141,61.777,370.995,211.131a8.3,8.3,0,0,1,3.035,3.009l5.483-2.918a8.344,8.344,0,0,0-2.993-2.918L96.652,58.871a3.232,3.232,0,0,0-3.133-.245c-.769.439-4.35,2.324-5.259,2.776a3.26,3.26,0,0,1,2.881.374Z" transform="translate(-88.26 -58.333)" fill="#fff"/>
      </g>
      <path id="Path_514" data-name="Path 514" d="M94.131,193.6V180.687a7.743,7.743,0,0,0-1.315-3.977l-5.5,2.905a7.546,7.546,0,0,1,1.3,3.964v13.015Z" transform="translate(290.229 -23.86)" opacity="0.15"/>
      <path id="Path_515" data-name="Path 515" d="M279.694,74.263a5.787,5.787,0,0,1,2.434,4.765c0,1.911-1.091,2.879-2.434,2.169a5.787,5.787,0,0,1-2.434-4.765C277.33,74.521,278.421,73.552,279.694,74.263Z" transform="translate(-163.425 -53.762)" fill="#455a64"/>
      <path id="Path_516" data-name="Path 516" d="M285.969,70.648A5.75,5.75,0,0,1,288.4,75.4c0,1.911-1.091,2.879-2.434,2.169a5.8,5.8,0,0,1-2.49-4.765C283.48,70.893,284.626,69.886,285.969,70.648Z" transform="translate(-178.4 -54.821)" fill="#455a64"/>
      <path id="Path_517" data-name="Path 517" d="M292.184,67.06a5.749,5.749,0,0,1,2.434,4.765c0,1.911-1.091,2.879-2.434,2.156a5.749,5.749,0,0,1-2.434-4.765C289.75,67.254,290.841,66.286,292.184,67.06Z" transform="translate(-193.384 -55.869)" fill="#455a64"/>
      <path id="Path_518" data-name="Path 518" d="M87.32,373.8l.531-.284a14.364,14.364,0,0,1,1.4-.684h0l.727-.374h0l1.133-.594c.364-.207.685-.374.951-.5s.448-.232.531-.271a2.282,2.282,0,0,0,.741-.555,2.974,2.974,0,0,0,.573-.8,4.533,4.533,0,0,0,.5-2.1V189.78L88.9,192.763v177.7a5.583,5.583,0,0,1-.448,2.014,3.267,3.267,0,0,1-.8,1.046.685.685,0,0,1-.238.194Z" transform="translate(289.949 -20.054)" fill="#37474f" opacity="0.9"/>
      <path id="Path_519" data-name="Path 519" d="M129.23,245.04s10.182-6.082,11.5-6.12l28.952-.839-11.511,5.655v.465Z" transform="translate(156.064 -5.989)" fill="#263238"/>
      <path id="Path_520" data-name="Path 520" d="M172.294,274.291V257.505L122.67,200.55v22.209l28.938,31.854v.465l-28.938.839v22.209Z" transform="translate(162.624 -16.918)" fill="#fafafa"/>
      <path id="Path_521" data-name="Path 521" d="M114.44,201.97l11.5-6.12,49.638,56.955-11.511,6.12Z" transform="translate(170.854 -18.287)" fill="#455a64"/>
      <path id="Path_522" data-name="Path 522" d="M125.951,239.96v16.734l-11.511,6.12V246.08Z" transform="translate(220.478 -5.441)" fill="#37474f"/>
      <path id="Path_523" data-name="Path 523" d="M206.505,281.393l15.385,8.212-38.407-129.96L168.63,151.73Z" transform="translate(48.746 -31.135)" fill="#fafafa"/>
      <path id="Path_524" data-name="Path 524" d="M187.85,153.11l11.511-6.12,14.854,7.915-11.5,6.12Z" transform="translate(29.54 -32.515)" fill="#455a64"/>
      <path id="Path_525" data-name="Path 525" d="M171.887,153.12l-11.5,6.12L198.783,289.2l11.511-6.12Z" transform="translate(71.868 -30.73)" fill="#37474f"/>
      <path id="Path_526" data-name="Path 526" d="M249.375,211.911l-11.5,6.12L208.94,185.88l11.5-6.12Z" transform="translate(-35.117 -22.972)" fill="#263238"/>
      <path id="Path_527" data-name="Path 527" d="M237.846,189.736l28.938-1.007V166.52l-49.624,4.054V187.36l49.624,56.813V221.887L237.846,190.2Z" transform="translate(-64.023 -26.828)" fill="#fafafa"/>
      <path id="Path_528" data-name="Path 528" d="M270.074,161.78l-11.5,6.12-49.638,4.054,11.511-6.12Z" transform="translate(-55.817 -28.208)" fill="#455a64"/>
      <path id="Path_529" data-name="Path 529" d="M208.94,167.9v22.209l11.5-6.12V161.78" transform="translate(-6.179 -28.208)" fill="#37474f"/>
      <path id="Path_530" data-name="Path 530" d="M220.437,204.66l-11.5,6.12v22.209l11.5-6.12Z" transform="translate(-6.179 -15.721)" fill="#37474f"/>
      <g id="Group_22" data-name="Group 22" transform="translate(0 35.931)" opacity="0.8">
        <path id="Path_531" data-name="Path 531" d="M270.69,89v191.68a8.7,8.7,0,0,0,4.322,6.908L394.3,351.114a2.8,2.8,0,0,0,1.4.387,2.625,2.625,0,0,0,.545-.065l.378-.116.224-.129.252-.155a1.672,1.672,0,0,0,.238-.194,3.074,3.074,0,0,0,.8-1.046,4.682,4.682,0,0,0,.448-2.014V157.071a8.721,8.721,0,0,0-4.308-6.908L275.068,86.7a3.368,3.368,0,0,0-2.909-.349,2,2,0,0,0-.364.207h0a1.349,1.349,0,0,0-.28.258.631.631,0,0,0-.126.142.692.692,0,0,0-.14.207,1.677,1.677,0,0,0-.266.516,1.3,1.3,0,0,0-.1.349.084.084,0,0,0,0,.077,1.519,1.519,0,0,0-.07.362A.975.975,0,0,0,270.69,89Z" transform="translate(-270.69 -86.157)" fill="#455a64"/>
        <path id="Path_532" data-name="Path 532" d="M273.12,87.451a.941.941,0,0,0-.42.09h-.084l-.126.142h0l-.1.155h0l-.14.374h0a.205.205,0,0,0,0,.09,3.217,3.217,0,0,0,0,.387v191.99a7.423,7.423,0,0,0,3.623,5.785l119.136,63.54a1.482,1.482,0,0,0,.727.207h.392l.182-.1h0a1.848,1.848,0,0,0,.448-.607,3.381,3.381,0,0,0,.336-1.5V157.073a7.408,7.408,0,0,0-3.608-5.785L274.2,87.826a2.691,2.691,0,0,0-1.217-.374m0-1.291a4.2,4.2,0,0,1,1.916.542l119.29,63.463a8.721,8.721,0,0,1,4.308,6.908V347.785a4.682,4.682,0,0,1-.448,2.014,3.073,3.073,0,0,1-.8,1.046,1.667,1.667,0,0,1-.238.194l-.252.155-.224.129-.378.116a2.631,2.631,0,0,1-.545.065h0a2.834,2.834,0,0,1-1.4-.387L275.092,287.589a8.724,8.724,0,0,1-4.322-6.908V88.5a1.513,1.513,0,0,1,.07-.362.084.084,0,0,1,0-.077,1.3,1.3,0,0,1,.1-.349,1.677,1.677,0,0,1,.266-.516.7.7,0,0,1,.14-.207.634.634,0,0,1,.126-.142,1.355,1.355,0,0,1,.28-.258h0a1.993,1.993,0,0,1,.364-.207,2.5,2.5,0,0,1,.993-.194Z" transform="translate(-270.714 -86.16)" fill="#455a64"/>
        <g id="Group_21" data-name="Group 21" transform="translate(0 0.012)" opacity="0.8">
          <path id="Path_533" data-name="Path 533" d="M270.69,89v191.68a8.7,8.7,0,0,0,4.322,6.908L394.3,351.114a2.8,2.8,0,0,0,1.4.387,2.625,2.625,0,0,0,.545-.065l.378-.116.224-.129.252-.155a1.672,1.672,0,0,0,.238-.194,3.074,3.074,0,0,0,.8-1.046,4.682,4.682,0,0,0,.448-2.014V157.071a8.721,8.721,0,0,0-4.308-6.908L275.068,86.7a3.368,3.368,0,0,0-2.909-.349,2,2,0,0,0-.364.207h0a1.349,1.349,0,0,0-.28.258.631.631,0,0,0-.126.142.692.692,0,0,0-.14.207,1.677,1.677,0,0,0-.266.516,1.3,1.3,0,0,0-.1.349.084.084,0,0,0,0,.077,1.519,1.519,0,0,0-.07.362A.975.975,0,0,0,270.69,89Z" transform="translate(-270.69 -86.169)" fill="#455a64"/>
        </g>
      </g>
      <path id="Path_534" data-name="Path 534" d="M266.73,87a3.368,3.368,0,0,1,2.909.349l119.29,63.463a8.721,8.721,0,0,1,4.308,6.908v13.015l5.511-2.983V154.837a8.686,8.686,0,0,0-4.308-6.882l-119.3-63.476a3.233,3.233,0,0,0-3.119-.232C271.234,84.66,267.653,86.6,266.73,87Z" transform="translate(-265.317 -50.872)" fill="#ba68c8"/>
      <path id="Path_535" data-name="Path 535" d="M270.67,88.978c0-2.582,1.93-3.538,4.308-2.273l119.29,63.476a8.685,8.685,0,0,1,4.308,6.9v13.015L270.67,102.045Z" transform="translate(-270.656 -50.232)" fill="#ba68c8"/>
      <g id="Group_23" data-name="Group 23" transform="translate(1.441 33.065)" opacity="0.4">
        <path id="Path_536" data-name="Path 536" d="M270.567,87.349l119.276,63.476a8.461,8.461,0,0,1,3.049,2.944l5.469-2.918a8.2,8.2,0,0,0-2.993-2.905L276.022,84.469a3.248,3.248,0,0,0-3.133-.232c-.783.439-4.35,2.311-5.259,2.763A3.307,3.307,0,0,1,270.567,87.349Z" transform="translate(-267.63 -83.94)" fill="#fff"/>
      </g>
      <path id="Path_537" data-name="Path 537" d="M273.527,152.669V139.757a7.78,7.78,0,0,0-1.315-3.977l-5.483,2.905a7.652,7.652,0,0,1,1.287,3.964v13.015Z" transform="translate(-140.097 -35.78)" opacity="0.15"/>
      <path id="Path_538" data-name="Path 538" d="M344.244,99.874a5.75,5.75,0,0,1,2.434,4.752c0,1.911-1.091,2.879-2.434,2.169a5.787,5.787,0,0,1-2.434-4.765C341.81,100.107,342.9,99.151,344.244,99.874Z" transform="translate(-318.257 -46.306)" fill="#455a64"/>
      <path id="Path_539" data-name="Path 539" d="M350.515,96.244a5.774,5.774,0,0,1,2.434,4.765c0,1.911-1.091,2.879-2.434,2.156a5.712,5.712,0,0,1-2.434-4.765C348.081,96.489,349.158,95.521,350.515,96.244Z" transform="translate(-333.297 -47.363)" fill="#455a64"/>
      <path id="Path_540" data-name="Path 540" d="M356.8,92.614a5.786,5.786,0,0,1,2.434,4.765c0,1.911-1.091,2.879-2.434,2.156a5.728,5.728,0,0,1-2.448-4.752C354.35,92.872,355.441,91.891,356.8,92.614Z" transform="translate(-348.35 -48.419)" fill="#455a64"/>
      <path id="Path_541" data-name="Path 541" d="M266.78,332.873l.532-.284,1.329-.684h0l.727-.387h0l1.133-.594c.364-.207.7-.374.951-.5s.448-.232.531-.271a2.283,2.283,0,0,0,.741-.555,2.975,2.975,0,0,0,.573-.8,4.532,4.532,0,0,0,.5-2.1V148.85l-5.511,2.983v177.7a5.583,5.583,0,0,1-.448,2.014,3.072,3.072,0,0,1-.8,1.046.686.686,0,0,1-.238.194A.28.28,0,0,1,266.78,332.873Z" transform="translate(-140.441 -31.973)" fill="#37474f" opacity="0.9"/>
      <path id="Path_542" data-name="Path 542" d="M282.078,161.094a1.583,1.583,0,0,0-.224-.736l-3.1-5.927a.38.38,0,0,0-.14-.168V154.2a.224.224,0,0,0-.252,0,.344.344,0,0,0-.1.284v2.053a2.492,2.492,0,0,0,0,.62,3.555,3.555,0,0,0,.224.542l1.636,3.125-1.636,1.395a.894.894,0,0,0-.224.3,1.8,1.8,0,0,0,0,.555v1.988a.847.847,0,0,0,.1.4.636.636,0,0,0,.252.271h0a.18.18,0,0,0,.14,0l3.105-2.582a.585.585,0,0,0,.224-.5Z" transform="translate(-164.747 -30.427)" fill="#ba68c8"/>
      <path id="Path_543" data-name="Path 543" d="M284.806,148.383a2.549,2.549,0,0,0-.238-.581,1,1,0,0,0-.462-.452l-1.161-.62a.178.178,0,0,0-.238,0,.346.346,0,0,0-.112.284.654.654,0,0,0,0,.219l5.315,20.918a2.238,2.238,0,0,0,.224.568,1.052,1.052,0,0,0,.462.478l1.119.594a.193.193,0,0,0,.238,0,.394.394,0,0,0,.112-.3,1.523,1.523,0,0,0,0-.219Z" transform="translate(-178.817 -32.604)" fill="#ba68c8"/>
      <path id="Path_544" data-name="Path 544" d="M289.448,153.645a1.517,1.517,0,0,0,.21.736l3.1,5.927a.832.832,0,0,0,.14.181h.084a.209.209,0,0,0,.238,0,.392.392,0,0,0,.1-.3V158.2a2.491,2.491,0,0,0,0-.62,2.538,2.538,0,0,0-.224-.542l-1.636-3.125,1.636-1.382a.864.864,0,0,0,.224-.31,1.8,1.8,0,0,0,0-.555v-1.988a.882.882,0,0,0-.1-.4.71.71,0,0,0-.238-.271h-.224l-3.1,2.582a.594.594,0,0,0-.21.516Z" transform="translate(-191.683 -31.927)" fill="#ba68c8"/>
      <path id="Path_545" data-name="Path 545" d="M297.523,151.541a.269.269,0,0,0-.308,0,.466.466,0,0,0-.126.362v2.182a1.029,1.029,0,0,0,.126.491.738.738,0,0,0,.308.349l1.4.775a.222.222,0,0,0,.294,0,.418.418,0,0,0,.126-.349v-2.2a1.066,1.066,0,0,0-.126-.491.751.751,0,0,0-.294-.336Z" transform="translate(-208.374 -31.204)" fill="#ba68c8"/>
      <path id="Path_546" data-name="Path 546" d="M301.014,149.532a.253.253,0,0,0-.308,0,.467.467,0,0,0-.126.362v2.182a1.03,1.03,0,0,0,.126.491.738.738,0,0,0,.308.349l1.4.775a.269.269,0,0,0,.308,0,.467.467,0,0,0,.126-.362v-2.2a1.115,1.115,0,0,0-.126-.491.7.7,0,0,0-.308-.336Z" transform="translate(-216.76 -31.79)" fill="#ba68c8"/>
      <path id="Path_547" data-name="Path 547" d="M304.46,147.512a.222.222,0,0,0-.294,0,.466.466,0,0,0-.126.362v2.182a1.113,1.113,0,0,0,.126.5.83.83,0,0,0,.294.336l1.469.775a.238.238,0,0,0,.294,0,.466.466,0,0,0,.126-.362v-2.2a1.114,1.114,0,0,0-.126-.491.829.829,0,0,0-.294-.336Z" transform="translate(-225.101 -32.379)" fill="#ba68c8"/>
      <path id="Path_548" data-name="Path 548" d="M351.285,180.56l-71.666-38.194c-.853-.452-1.538-.129-1.538.71a3,3,0,0,0,1.538,2.35l71.666,38.207c.853.452,1.539.129,1.539-.723a3.009,3.009,0,0,0-1.539-2.35Z" transform="translate(-235.268 -33.921)" fill="#ba68c8"/>
      <path id="Path_549" data-name="Path 549" d="M367.725,199.553l-71.666-38.207c-.853-.452-1.539-.129-1.539.723a3.009,3.009,0,0,0,1.539,2.35l71.666,38.194c.853.452,1.538.129,1.538-.71a3,3,0,0,0-1.538-2.35Z" transform="translate(-274.701 -28.394)" fill="#e0e0e0"/>
      <path id="Path_550" data-name="Path 550" d="M330.353,204.547l-34.309-18.271c-.839-.452-1.525-.129-1.525.723a2.983,2.983,0,0,0,1.525,2.337l34.309,18.284c.853.439,1.538.129,1.538-.723A3.01,3.01,0,0,0,330.353,204.547Z" transform="translate(-237.33 -21.134)" fill="#e0e0e0"/>
      <path id="Path_551" data-name="Path 551" d="M330.353,214.035l-34.309-18.271c-.839-.439-1.525-.129-1.525.723a3.032,3.032,0,0,0,1.525,2.35l34.309,18.271c.853.452,1.538.129,1.538-.723A3.01,3.01,0,0,0,330.353,214.035Z" transform="translate(-237.33 -18.369)" fill="#e0e0e0"/>
      <path id="Path_552" data-name="Path 552" d="M363.655,143.373l-28.546-15.327c-.853-.452-1.539-.129-1.539.71a3,3,0,0,0,1.539,2.35l28.546,15.275c.853.452,1.538.129,1.538-.71a3,3,0,0,0-1.538-2.3Z" transform="translate(-325.248 -38.091)" fill="#ba68c8"/>
      <path id="Path_553" data-name="Path 553" d="M351.285,284.97l-71.666-38.194c-.853-.452-1.538-.129-1.538.71a3,3,0,0,0,1.538,2.35l71.666,38.207c.853.439,1.539.129,1.539-.723A3.009,3.009,0,0,0,351.285,284.97Z" transform="translate(-235.268 -3.516)" fill="#ba68c8"/>
      <path id="Path_554" data-name="Path 554" d="M363.655,247.761l-28.546-15.275c-.853-.452-1.538-.129-1.538.723a3.009,3.009,0,0,0,1.538,2.35l28.546,15.275c.853.452,1.539.129,1.539-.723a3.009,3.009,0,0,0-1.539-2.35Z" transform="translate(-325.248 -7.677)" fill="#ba68c8"/>
      <path id="Path_555" data-name="Path 555" d="M363.655,219.347l-28.546-15.3c-.853-.452-1.539-.129-1.539.71a3,3,0,0,0,1.539,2.35l28.546,15.275c.853.452,1.538.129,1.538-.71a3,3,0,0,0-1.539-2.324Z" transform="translate(-325.248 -15.959)" fill="#ba68c8"/>
      <path id="Path_556" data-name="Path 556" d="M363.655,228.831l-28.546-15.275c-.853-.452-1.538-.129-1.538.71a3,3,0,0,0,1.539,2.35l28.546,15.275c.853.452,1.539.129,1.539-.71a3,3,0,0,0-1.539-2.35Z" transform="translate(-325.248 -13.19)" fill="#ba68c8"/>
      <path id="Path_557" data-name="Path 557" d="M351.285,275.492l-71.666-38.207c-.853-.439-1.538-.129-1.538.723a3.009,3.009,0,0,0,1.538,2.35l71.666,38.194c.853.452,1.539.129,1.539-.71A3,3,0,0,0,351.285,275.492Z" transform="translate(-235.268 -6.278)" fill="#f5f5f5"/>
      <path id="Path_558" data-name="Path 558" d="M333.727,227.844,317.684,219.3c-.839-.452-1.525-.129-1.525.71a3.007,3.007,0,0,0,1.525,2.35l16.042,8.548c.853.452,1.539.142,1.539-.71A3,3,0,0,0,333.727,227.844Z" transform="translate(-270.97 -11.518)" fill="#ba68c8"/>
      <path id="Path_559" data-name="Path 559" d="M321.41,186.5,279.6,164.2c-.839-.452-1.524-.129-1.524.71a3.007,3.007,0,0,0,1.525,2.35l41.805,22.3c.853.452,1.539.129,1.539-.71A3,3,0,0,0,321.41,186.5Z" transform="translate(-205.393 -27.564)" fill="#ba68c8"/>
      <path id="Path_560" data-name="Path 560" d="M321.41,186.5,279.6,164.2c-.839-.452-1.524-.129-1.524.71a3.007,3.007,0,0,0,1.525,2.35l41.805,22.3c.853.452,1.539.129,1.539-.71A3,3,0,0,0,321.41,186.5Z" transform="translate(-205.393 -27.564)" fill="#fff" opacity="0.6"/>
      <path id="Path_561" data-name="Path 561" d="M293.787,192.651,279.6,185.046c-.839-.452-1.524-.129-1.524.723a3.032,3.032,0,0,0,1.524,2.35l14.182,7.566c.853.452,1.539.129,1.539-.723A3.013,3.013,0,0,0,293.787,192.651Z" transform="translate(-177.77 -21.492)" fill="#ba68c8"/>
      <path id="Path_562" data-name="Path 562" d="M293.787,192.651,279.6,185.046c-.839-.452-1.524-.129-1.524.723a3.032,3.032,0,0,0,1.524,2.35l14.182,7.566c.853.452,1.539.129,1.539-.723A3.013,3.013,0,0,0,293.787,192.651Z" transform="translate(-177.77 -21.492)" fill="#fff" opacity="0.6"/>
      <path id="Path_563" data-name="Path 563" d="M293.787,202.145,279.6,194.566c-.839-.452-1.524-.129-1.524.723a3.032,3.032,0,0,0,1.524,2.35l14.182,7.566c.853.452,1.539.129,1.539-.723A2.972,2.972,0,0,0,293.787,202.145Z" transform="translate(-177.77 -18.72)" fill="#ba68c8"/>
      <path id="Path_564" data-name="Path 564" d="M293.787,202.145,279.6,194.566c-.839-.452-1.524-.129-1.524.723a3.032,3.032,0,0,0,1.524,2.35l14.182,7.566c.853.452,1.539.129,1.539-.723A2.972,2.972,0,0,0,293.787,202.145Z" transform="translate(-177.77 -18.72)" fill="#fff" opacity="0.6"/>
      <path id="Path_565" data-name="Path 565" d="M293.787,211.639,279.6,204.047c-.839-.452-1.524-.142-1.524.71a3.007,3.007,0,0,0,1.524,2.35l14.182,7.567c.853.452,1.539.129,1.539-.71A3,3,0,0,0,293.787,211.639Z" transform="translate(-177.77 -15.96)" fill="#ba68c8"/>
      <path id="Path_566" data-name="Path 566" d="M293.787,211.639,279.6,204.047c-.839-.452-1.524-.142-1.524.71a3.007,3.007,0,0,0,1.524,2.35l14.182,7.567c.853.452,1.539.129,1.539-.71A3,3,0,0,0,293.787,211.639Z" transform="translate(-177.77 -15.96)" fill="#fff" opacity="0.6"/>
      <path id="Path_567" data-name="Path 567" d="M293.787,221.123,279.6,213.556c-.839-.452-1.524-.129-1.524.71a3.007,3.007,0,0,0,1.525,2.35l14.182,7.566c.853.452,1.539.129,1.539-.71a3,3,0,0,0-1.539-2.35Z" transform="translate(-177.77 -13.19)" fill="#ba68c8"/>
      <path id="Path_568" data-name="Path 568" d="M293.787,221.123,279.6,213.556c-.839-.452-1.524-.129-1.524.71a3.007,3.007,0,0,0,1.525,2.35l14.182,7.566c.853.452,1.539.129,1.539-.71a3,3,0,0,0-1.539-2.35Z" transform="translate(-177.77 -13.19)" fill="#fff" opacity="0.6"/>
      <path id="Path_569" data-name="Path 569" d="M331.941,163.924l-18.182-9.658c-.839-.452-1.539-.129-1.539.71a3.022,3.022,0,0,0,1.539,2.35l18.182,9.658c.839.452,1.525.129,1.525-.71A3.007,3.007,0,0,0,331.941,163.924Z" transform="translate(-263.659 -30.456)" fill="#ba68c8"/>
      <path id="Path_570" data-name="Path 570" d="M331.941,163.924l-18.182-9.658c-.839-.452-1.539-.129-1.539.71a3.022,3.022,0,0,0,1.539,2.35l18.182,9.658c.839.452,1.525.129,1.525-.71A3.007,3.007,0,0,0,331.941,163.924Z" transform="translate(-263.659 -30.456)" fill="#fff" opacity="0.6"/>
      <path id="Path_571" data-name="Path 571" d="M350.16,217.294l-41.735-22.248c-.839-.452-1.525-.129-1.525.723a3.032,3.032,0,0,0,1.525,2.35l41.735,22.248c.839.452,1.539.129,1.539-.723a3.009,3.009,0,0,0-1.538-2.35Z" transform="translate(-274.451 -18.58)" fill="#f5f5f5"/>
      <path id="Path_572" data-name="Path 572" d="M367.444,216.885l-41.805-22.3c-.853-.452-1.538-.129-1.538.71a3,3,0,0,0,1.539,2.35l41.805,22.3c.839.452,1.525.129,1.525-.71A3.007,3.007,0,0,0,367.444,216.885Z" transform="translate(-315.778 -18.714)" fill="#f5f5f5"/>
      <path id="Path_573" data-name="Path 573" d="M360.711,194.734l-18.182-9.658c-.853-.452-1.539-.129-1.539.723a3.009,3.009,0,0,0,1.539,2.35l18.182,9.658c.853.439,1.538.129,1.538-.723a3.009,3.009,0,0,0-1.538-2.35Z" transform="translate(-332.682 -21.484)" fill="#f5f5f5"/>
      <path id="Path_574" data-name="Path 574" d="M337.85,186.475l-41.805-22.3c-.839-.452-1.524-.129-1.524.723a3.032,3.032,0,0,0,1.524,2.35l41.805,22.286c.853.452,1.538.142,1.538-.71a3.009,3.009,0,0,0-1.538-2.35Z" transform="translate(-244.826 -27.57)" fill="#ba68c8"/>
      <path id="Path_575" data-name="Path 575" d="M337.85,186.475l-41.805-22.3c-.839-.452-1.524-.129-1.524.723a3.032,3.032,0,0,0,1.524,2.35l41.805,22.286c.853.452,1.538.142,1.538-.71a3.009,3.009,0,0,0-1.538-2.35Z" transform="translate(-244.826 -27.57)" fill="#fff" opacity="0.6"/>
      <path id="Path_576" data-name="Path 576" d="M348.381,163.9,330.2,154.246c-.853-.452-1.539-.129-1.539.71a3,3,0,0,0,1.539,2.35l18.182,9.658c.839.452,1.525.129,1.525-.71a3.007,3.007,0,0,0-1.525-2.35Z" transform="translate(-303.093 -30.462)" fill="#ba68c8"/>
      <path id="Path_577" data-name="Path 577" d="M348.381,163.9,330.2,154.246c-.853-.452-1.539-.129-1.539.71a3,3,0,0,0,1.539,2.35l18.182,9.658c.839.452,1.525.129,1.525-.71a3.007,3.007,0,0,0-1.525-2.35Z" transform="translate(-303.093 -30.462)" fill="#fff" opacity="0.6"/>
    </g>
    <g id="freepik--speech-bubbles--inject-61" transform="translate(44.946 76.197)">
      <path id="Path_578" data-name="Path 578" d="M405.263,99V84.244L418.7,83.172a.882.882,0,0,1,.559.1c.532.258,13.259,6.985,13.413,7.076a.906.906,0,0,1,.474.648.859.859,0,0,1-.25.747l-14.252,14.268Z" transform="translate(-353.234 -63.801)" fill="#ba68c8"/>
      <path id="Path_579" data-name="Path 579" d="M405.271,104.462l14.252-14.268a.862.862,0,0,0,.149-1.013,1.01,1.01,0,0,0-.96-.51l-13.441,1.085Z" transform="translate(-339.856 -62.198)" fill="#ba68c8"/>
      <path id="Path_580" data-name="Path 580" d="M405.66,84.246l13.371,7.076,13.483-1.046a1.407,1.407,0,0,1,.475,0c-1.077-.581-12.811-6.779-13.287-7.011a.958.958,0,0,0-.573-.1Z" transform="translate(-353.617 -63.804)" fill="#ba68c8"/>
      <path id="Path_581" data-name="Path 581" d="M405.66,84.246l13.371,7.076,13.483-1.046a1.407,1.407,0,0,1,.475,0c-1.077-.581-12.811-6.779-13.287-7.011a.958.958,0,0,0-.573-.1Z" transform="translate(-353.617 -63.804)" fill="#fff" opacity="0.5"/>
      <path id="Path_582" data-name="Path 582" d="M481.046,79.146a9.806,9.806,0,0,0-4.839-7.747l-3.944-2.156a11.466,11.466,0,0,0-9.693,0L420.513,91.709a9.745,9.745,0,0,0-4.853,7.747v44.857a9.758,9.758,0,0,0,4.853,7.747l3.944,2.1a11.558,11.558,0,0,0,9.693,0l12.406-6.624,16.14-8.574,13.511-7.2a9.756,9.756,0,0,0,4.839-7.747Z" transform="translate(-415.66 -68.168)" fill="#ba68c8"/>
      <path id="Path_583" data-name="Path 583" d="M449.78,138.247a9.759,9.759,0,0,0,4.853,7.747l3.944,2.1a11.691,11.691,0,0,0,8.867.362c-2.294.788-4.028-.4-4.028-2.944v-44.9a8.62,8.62,0,0,1,1.4-4.416L451.207,89a8.62,8.62,0,0,0-1.4,4.416Z" transform="translate(-449.78 -62.101)" opacity="0.2"/>
      <path id="Path_584" data-name="Path 584" d="M479.562,77.862c-.573-1.9-2.448-2.5-4.685-1.291L432.805,98.934a9.3,9.3,0,0,0-3.413,3.344L415.77,95.061a9.268,9.268,0,0,1,3.413-3.331l42.043-22.493a11.56,11.56,0,0,1,9.623,0l3.958,2.1A9.915,9.915,0,0,1,479.562,77.862Z" transform="translate(-414.329 -68.162)" fill="#fff" opacity="0.5"/>
      <path id="Path_585" data-name="Path 585" d="M422.71,89.816l16.014-2.066-2.238,27.283L422.71,131.548Z" transform="translate(-383.198 -62.465)" fill="#455a64"/>
      <path id="Path_586" data-name="Path 586" d="M450.174,89.35,434.16,104.367l2.252,24.882,13.763,1.834Z" transform="translate(-410.663 -61.999)" fill="#37474f"/>
      <path id="Path_587" data-name="Path 587" d="M430.548,123.908l-3.678,1.963,10.238-33.3,10.224,22.39-3.664,1.963-2.21-4.855-8.7,4.635Zm9.609-14.771-3.021-6.637-3.021,9.865Z" transform="translate(-397.624 -61.062)" fill="#fafafa"/>
      <path id="Path_588" data-name="Path 588" d="M405.263,163.829V149.135l13.441-1.085a1.109,1.109,0,0,1,.559.1c.532.258,13.259,6.985,13.413,7.076a.918.918,0,0,1,.475.655.871.871,0,0,1-.251.753l-14.252,14.2Z" transform="translate(-353.234 -44.906)" fill="#ba68c8"/>
      <path id="Path_589" data-name="Path 589" d="M405.256,169.288l14.252-14.2a.852.852,0,0,0,.171-1.024,1,1,0,0,0-.982-.5l-13.441,1.085Z" transform="translate(-339.841 -43.302)" fill="#ebebeb"/>
      <path id="Path_590" data-name="Path 590" d="M405.69,149.137l13.371,7.076,13.441-1.085a1.149,1.149,0,0,1,.476,0c-1.077-.594-12.812-6.779-13.287-7.024a1.064,1.064,0,0,0-.573-.1Z" transform="translate(-353.647 -44.921)" fill="#ba68c8"/>
      <path id="Path_591" data-name="Path 591" d="M405.69,149.137l13.371,7.076,13.441-1.085a1.149,1.149,0,0,1,.476,0c-1.077-.594-12.812-6.779-13.287-7.024a1.064,1.064,0,0,0-.573-.1Z" transform="translate(-353.647 -44.921)" fill="#f5f5f5"/>
      <path id="Path_592" data-name="Path 592" d="M481.046,143.974a9.756,9.756,0,0,0-4.839-7.747l-3.944-2.1a11.467,11.467,0,0,0-9.693,0l-42.057,22.415a9.758,9.758,0,0,0-4.853,7.747v44.882a9.745,9.745,0,0,0,4.853,7.747l3.944,2.1a11.466,11.466,0,0,0,9.693,0l12.406-6.611L462.7,203.8l13.511-7.192a9.781,9.781,0,0,0,4.839-7.747Z" transform="translate(-415.66 -49.274)" fill="#ebebeb"/>
      <path id="Path_593" data-name="Path 593" d="M449.78,203.115a9.746,9.746,0,0,0,4.853,7.747l3.944,2.1a11.63,11.63,0,0,0,8.867.362c-2.294.8-4.028-.387-4.028-2.944V165.5a8.537,8.537,0,0,1,1.4-4.4l-13.637-7.27a8.536,8.536,0,0,0-1.4,4.4Z" transform="translate(-449.78 -43.222)" fill="#e0e0e0"/>
      <path id="Path_594" data-name="Path 594" d="M479.562,142.691c-.573-1.9-2.448-2.5-4.685-1.291l-42.071,22.415a9.3,9.3,0,0,0-3.413,3.344L415.77,159.9a9.3,9.3,0,0,1,3.413-3.344l42.043-22.428a11.558,11.558,0,0,1,9.693,0l3.958,2.1a9.91,9.91,0,0,1,4.685,6.456Z" transform="translate(-414.329 -49.269)" fill="#f5f5f5"/>
      <path id="Path_595" data-name="Path 595" d="M438.724,166.486,435.2,160.34,422.71,167l16.014,27.8,16.014-44.882-12.476,6.65Z" transform="translate(-399.213 -44.361)" fill="#ba68c8"/>
      <path id="Path_596" data-name="Path 596" d="M438.724,166.486,435.2,160.34,422.71,167l16.014,27.8,16.014-44.882-12.476,6.65Z" transform="translate(-399.213 -44.361)" opacity="0.15"/>
      <path id="Path_597" data-name="Path 597" d="M436.693,165.653l3.539-9.9,5.595-2.97c-4.462,12.512-9.105,25.5-9.105,25.5l-9.091-15.8,5.595-2.97Z" transform="translate(-397.182 -43.528)" fill="#37474f"/>
      <path id="Path_598" data-name="Path 598" d="M405.263,228.682V213.975l13.441-1.085a1.108,1.108,0,0,1,.559.1l13.413,7.076a.918.918,0,0,1,.475.655.871.871,0,0,1-.251.753l-14.252,14.2Z" transform="translate(-353.234 -26.024)" fill="#ba68c8"/>
      <path id="Path_599" data-name="Path 599" d="M405.256,234.128l14.252-14.2a.852.852,0,0,0,.171-1.024,1,1,0,0,0-.982-.5l-13.441,1.085Z" transform="translate(-339.841 -24.42)" fill="#37474f"/>
      <path id="Path_600" data-name="Path 600" d="M405.69,213.99l13.371,7.063,13.441-1.085a1.149,1.149,0,0,1,.476,0l-13.287-7.024a1.185,1.185,0,0,0-.573-.1Z" transform="translate(-353.647 -26.039)" fill="#ba68c8"/>
      <path id="Path_601" data-name="Path 601" d="M405.69,213.99l13.371,7.063,13.441-1.085a1.149,1.149,0,0,1,.476,0l-13.287-7.024a1.185,1.185,0,0,0-.573-.1Z" transform="translate(-353.647 -26.039)" fill="#455a64"/>
      <path id="Path_602" data-name="Path 602" d="M481.046,208.812a9.781,9.781,0,0,0-4.839-7.747l-3.944-2.1a11.558,11.558,0,0,0-9.693,0l-42.057,22.415a9.783,9.783,0,0,0-4.853,7.747v44.844a9.745,9.745,0,0,0,4.853,7.747l3.944,2.1a11.466,11.466,0,0,0,9.693,0l12.406-6.611L462.7,268.6l13.511-7.192a9.756,9.756,0,0,0,4.839-7.747Z" transform="translate(-415.66 -30.39)" fill="#37474f"/>
      <path id="Path_603" data-name="Path 603" d="M449.78,267.93a9.745,9.745,0,0,0,4.853,7.747l3.944,2.1a11.63,11.63,0,0,0,8.867.362c-2.294.8-4.028-.387-4.028-2.944V230.355a8.62,8.62,0,0,1,1.4-4.416l-13.637-7.27a8.621,8.621,0,0,0-1.4,4.416Z" transform="translate(-449.78 -24.34)" fill="#263238"/>
      <path id="Path_604" data-name="Path 604" d="M479.562,207.541c-.573-1.9-2.448-2.5-4.685-1.291l-42.071,22.428a9.267,9.267,0,0,0-3.413,3.331l-13.623-7.257a9.3,9.3,0,0,1,3.413-3.344l42.043-22.428a11.558,11.558,0,0,1,9.693,0l3.958,2.118a9.873,9.873,0,0,1,4.685,6.443Z" transform="translate(-414.329 -30.384)" fill="#455a64"/>
      <path id="Path_605" data-name="Path 605" d="M429.449,237.354c-.993-4.648-.587-8.922,1.4-11.35a4.777,4.777,0,0,1,3.8-1.859H435a8,8,0,0,1,3.706,1.291c2.8-4.881,5.595-7.876,7.595-7.876h.294a1.78,1.78,0,0,1,1.259.878c.965,1.485,1.021,4.7.294,8.922a8.332,8.332,0,0,1,5.231.349A2.982,2.982,0,0,1,455,230.524c0,2.8-2.671,6.65-6.825,10.33.993,4.648.587,8.922-1.4,11.35a5.3,5.3,0,0,1-1.58,1.291,4.632,4.632,0,0,1-2.21.542,6.028,6.028,0,0,1-1.483-.194,9.333,9.333,0,0,1-2.671-1.291c-2.252,3.874-4.5,6.676-6.308,7.644a2.968,2.968,0,0,1-1.4.387,1.03,1.03,0,0,1-.28,0,1.81,1.81,0,0,1-1.273-.878c-.965-1.485-1.007-4.7-.28-8.948a14.066,14.066,0,0,1-2.224.207,6.086,6.086,0,0,1-2.867-.594,3,3,0,0,1-1.622-2.815C422.623,244.869,425.295,241.021,429.449,237.354Zm4.8,7.476a24.908,24.908,0,0,0,1.538,2.26c.923-.413,1.9-.878,2.937-1.433s2.028-1.123,2.965-1.717c.546-1.291,1.091-2.66,1.608-4.08s.965-2.737,1.4-4.029c-.392-.8-.811-1.6-1.287-2.389s-1.007-1.562-1.525-2.26c-.937.413-1.916.878-2.951,1.433s-2.126,1.188-3.119,1.808c-.546,1.291-1.077,2.582-1.608,4.067s-.909,2.582-1.287,3.8A25.9,25.9,0,0,0,434.246,244.83Zm-1.4-6.6c.308-.852.629-1.691.951-2.5-.937.646-1.818,1.291-2.643,1.988a28.083,28.083,0,0,0,.909,2.724c.28-.723.532-1.459.811-2.208Zm5.846-7.282q1.077-.568,2.1-1.046a17.3,17.3,0,0,0-1.986-1.937c-.657,1.227-1.329,2.582-2,4.041.643-.362,1.273-.723,1.916-1.059Zm5.944,1.136c.252.426.5.852.727,1.291.378-1.356.7-2.582.951-3.809a27.726,27.726,0,0,0-2.8.891,10.747,10.747,0,0,1,1.1,1.627Zm0,8.031c-.322.865-.643,1.7-.979,2.582.993-.684,1.93-1.395,2.8-2.1a28.214,28.214,0,0,0-.979-2.905c-.28.775-.559,1.588-.853,2.389Zm-5.706,7.2c-.713.374-1.4.71-2.084,1.033a17.044,17.044,0,0,0,1.888,1.872c.643-1.188,1.287-2.479,1.916-3.874-.587.323-1.161.658-1.748.968Zm-5.944-1.136c-.294-.478-.559-.955-.811-1.446-.406,1.42-.741,2.763-1.007,4a27.105,27.105,0,0,0,2.881-.93,16.989,16.989,0,0,1-1.091-1.627Zm1.9-12.912c.937-2.208,1.916-4.235,2.9-6.056a7.741,7.741,0,0,0-2.336-1.085,4.871,4.871,0,0,0-1.189-.155,3.147,3.147,0,0,0-2.559,1.162c-1.329,1.627-1.692,5.049-.853,9.038q1.911-1.558,3.986-2.931Zm7.734-4.119a31.32,31.32,0,0,1,4.1-1.382c.7-4,.615-6.753-.084-7.825a.884.884,0,0,0-.615-.529H445.9a1.6,1.6,0,0,0-.755.232c-1.329.71-3.245,3.008-5.329,6.6a18.23,18.23,0,0,1,2.783,2.879Zm3.664,6.03a28.173,28.173,0,0,1,1.552,4.235c3.581-3.2,5.72-6.3,5.72-8.2a1.862,1.862,0,0,0-1.063-1.73,5.2,5.2,0,0,0-2.378-.465,12.231,12.231,0,0,0-2.294.245c-.405,1.769-.923,3.783-1.566,5.888Zm-3.651,9.968c-.923,2.118-1.874,4.093-2.8,5.9a6.992,6.992,0,0,0,3.357,1.291,3.2,3.2,0,0,0,2.8-1.149c1.329-1.64,1.692-5.062.853-9.038a47.851,47.851,0,0,1-4.238,2.97Zm-7.581,4.016a30.318,30.318,0,0,1-4.2,1.42c-.713,4.016-.629,6.779.07,7.863a.954.954,0,0,0,.629.465c1.273.207,3.664-2.415,6.28-6.972a17.852,17.852,0,0,1-2.811-2.828Zm-3.748-6.2a28.973,28.973,0,0,1-1.4-4.067c-3.58,3.2-5.72,6.3-5.72,8.2a1.887,1.887,0,0,0,1.063,1.73,7.54,7.54,0,0,0,4.532.245,47.7,47.7,0,0,1,1.5-6.133Z" transform="translate(-399.294 -24.663)" fill="#ba68c8"/>
      <path id="Path_606" data-name="Path 606" d="M432.19,236.641c0,1.937,1.273,2.828,2.8,1.988a6.14,6.14,0,0,0,2.8-5.023c0-1.924-1.273-2.815-2.8-1.976a6.141,6.141,0,0,0-2.8,5.01Z" transform="translate(-395.518 -20.658)" fill="#ba68c8"/>
      <g id="Group_24" data-name="Group 24" transform="translate(23.281 192.897)" opacity="0.65">
        <path id="Path_607" data-name="Path 607" d="M429.449,237.354c-.993-4.648-.587-8.922,1.4-11.35a4.777,4.777,0,0,1,3.8-1.859H435a8,8,0,0,1,3.706,1.291c2.8-4.881,5.595-7.876,7.595-7.876h.294a1.78,1.78,0,0,1,1.259.878c.965,1.485,1.021,4.7.294,8.922a8.332,8.332,0,0,1,5.231.349A2.982,2.982,0,0,1,455,230.524c0,2.8-2.671,6.65-6.825,10.33.993,4.648.587,8.922-1.4,11.35a5.3,5.3,0,0,1-1.58,1.291,4.632,4.632,0,0,1-2.21.542,6.028,6.028,0,0,1-1.483-.194,9.333,9.333,0,0,1-2.671-1.291c-2.252,3.874-4.5,6.676-6.308,7.644a2.968,2.968,0,0,1-1.4.387,1.03,1.03,0,0,1-.28,0,1.81,1.81,0,0,1-1.273-.878c-.965-1.485-1.007-4.7-.28-8.948a14.066,14.066,0,0,1-2.224.207,6.086,6.086,0,0,1-2.867-.594,3,3,0,0,1-1.622-2.815C422.623,244.869,425.295,241.021,429.449,237.354Zm4.8,7.476a24.908,24.908,0,0,0,1.538,2.26c.923-.413,1.9-.878,2.937-1.433s2.028-1.123,2.965-1.717c.546-1.291,1.091-2.66,1.608-4.08s.965-2.737,1.4-4.029c-.392-.8-.811-1.6-1.287-2.389s-1.007-1.562-1.525-2.26c-.937.413-1.916.878-2.951,1.433s-2.126,1.188-3.119,1.808c-.546,1.291-1.077,2.582-1.608,4.067s-.909,2.582-1.287,3.8A25.9,25.9,0,0,0,434.246,244.83Zm-1.4-6.6c.308-.852.629-1.691.951-2.5-.937.646-1.818,1.291-2.643,1.988a28.083,28.083,0,0,0,.909,2.724c.28-.723.532-1.459.811-2.208Zm5.846-7.282q1.077-.568,2.1-1.046a17.3,17.3,0,0,0-1.986-1.937c-.657,1.227-1.329,2.582-2,4.041.643-.362,1.273-.723,1.916-1.059Zm5.944,1.136c.252.426.5.852.727,1.291.378-1.356.7-2.582.951-3.809a27.726,27.726,0,0,0-2.8.891,10.747,10.747,0,0,1,1.1,1.627Zm0,8.031c-.322.865-.643,1.7-.979,2.582.993-.684,1.93-1.395,2.8-2.1a28.214,28.214,0,0,0-.979-2.905c-.28.775-.559,1.588-.853,2.389Zm-5.706,7.2c-.713.374-1.4.71-2.084,1.033a17.044,17.044,0,0,0,1.888,1.872c.643-1.188,1.287-2.479,1.916-3.874-.587.323-1.161.658-1.748.968Zm-5.944-1.136c-.294-.478-.559-.955-.811-1.446-.406,1.42-.741,2.763-1.007,4a27.105,27.105,0,0,0,2.881-.93,16.989,16.989,0,0,1-1.091-1.627Zm1.9-12.912c.937-2.208,1.916-4.235,2.9-6.056a7.741,7.741,0,0,0-2.336-1.085,4.871,4.871,0,0,0-1.189-.155,3.147,3.147,0,0,0-2.559,1.162c-1.329,1.627-1.692,5.049-.853,9.038q1.911-1.558,3.986-2.931Zm7.734-4.119a31.32,31.32,0,0,1,4.1-1.382c.7-4,.615-6.753-.084-7.825a.884.884,0,0,0-.615-.529H445.9a1.6,1.6,0,0,0-.755.232c-1.329.71-3.245,3.008-5.329,6.6a18.23,18.23,0,0,1,2.783,2.879Zm3.664,6.03a28.173,28.173,0,0,1,1.552,4.235c3.581-3.2,5.72-6.3,5.72-8.2a1.862,1.862,0,0,0-1.063-1.73,5.2,5.2,0,0,0-2.378-.465,12.231,12.231,0,0,0-2.294.245c-.405,1.769-.923,3.783-1.566,5.888Zm-3.651,9.968c-.923,2.118-1.874,4.093-2.8,5.9a6.992,6.992,0,0,0,3.357,1.291,3.2,3.2,0,0,0,2.8-1.149c1.329-1.64,1.692-5.062.853-9.038a47.851,47.851,0,0,1-4.238,2.97Zm-7.581,4.016a30.318,30.318,0,0,1-4.2,1.42c-.713,4.016-.629,6.779.07,7.863a.954.954,0,0,0,.629.465c1.273.207,3.664-2.415,6.28-6.972a17.852,17.852,0,0,1-2.811-2.828Zm-3.748-6.2a28.973,28.973,0,0,1-1.4-4.067c-3.58,3.2-5.72,6.3-5.72,8.2a1.887,1.887,0,0,0,1.063,1.73,7.54,7.54,0,0,0,4.532.245,47.7,47.7,0,0,1,1.5-6.133Z" transform="translate(-422.575 -217.56)" fill="#fff"/>
        <path id="Path_608" data-name="Path 608" d="M432.19,236.641c0,1.937,1.273,2.828,2.8,1.988a6.14,6.14,0,0,0,2.8-5.023c0-1.924-1.273-2.815-2.8-1.976a6.141,6.141,0,0,0-2.8,5.01Z" transform="translate(-418.799 -213.554)" fill="#fff"/>
      </g>
    </g>
    <g id="freepik--Character--inject-61" transform="translate(120.847 303.204)">
      <g id="freepik--character--inject-61-2" data-name="freepik--character--inject-61" transform="translate(0)">
        <path id="Path_609" data-name="Path 609" d="M414.135,274.22c-5.469.981-7.958,2.7-11.063,9.7s-8.658,24.042-9.944,28.729c-.587,2.092,13.777,20.84,13.161,20.556-.182-.077,5.595-9.038,5.595-9.038l-7.063-12.447,5.021-11.337Z" transform="translate(-393.11 -235.17)" fill="#ffa8a7"/>
        <path id="Path_610" data-name="Path 610" d="M411.1,274.329s-4.979-.826-8.28,1.7-3.8,4.222-6.042,9.413-5.9,16.011-5.9,16.011,1.063,5.811,11.315,6.96l8.783-18.271S414.041,279.107,411.1,274.329Z" transform="translate(-388.232 -235.176)" fill="#ba68c8"/>
        <path id="Path_611" data-name="Path 611" d="M404.32,390.41a9.95,9.95,0,0,1-.322,4.919,11.282,11.282,0,0,1-4.308,4.79,20.158,20.158,0,0,0-3.581,4,16.831,16.831,0,0,1-3.734,4.313c-1.161.93-4.448,1.02-6.028.4s-2.126-1.162-2.028-3.5S392.1,402.2,392.1,402.2Z" transform="translate(-371.155 -201.335)" fill="#455a64"/>
        <path id="Path_612" data-name="Path 612" d="M385.687,398.993c-.643.22-.811,1.369-.909,3.667-.084,1.73-.867,4.261,1.72,5.346a6.694,6.694,0,0,0,6.811-1.291,77.21,77.21,0,0,1,5.455-6.314c2.182-2.156,4.434-2.879,5.413-7.192.615-2.763.126-3.874-1.888-4.713-2.8-1.085-7.147,2.479-9.315,3.034C391.072,391.982,386.317,398.761,385.687,398.993Z" transform="translate(-371.501 -201.952)" fill="#ba68c8"/>
        <path id="Path_613" data-name="Path 613" d="M385.687,398.993c-.643.22-.811,1.369-.909,3.667-.084,1.73-.867,4.261,1.72,5.346a6.694,6.694,0,0,0,6.811-1.291,77.21,77.21,0,0,1,5.455-6.314c2.182-2.156,4.434-2.879,5.413-7.192.615-2.763.126-3.874-1.888-4.713-2.8-1.085-7.147,2.479-9.315,3.034C391.072,391.982,386.317,398.761,385.687,398.993Z" transform="translate(-371.501 -201.952)" opacity="0.2"/>
        <path id="Path_614" data-name="Path 614" d="M389.221,390.8l.364-.116a7.2,7.2,0,0,1,6.014,3.641c.364.762-.769,1.291-1.4.762a7.7,7.7,0,0,0-6-3.628,3.233,3.233,0,0,1,1.021-.659Z" transform="translate(-367.776 -201.256)" fill="#fafafa"/>
        <path id="Path_615" data-name="Path 615" d="M390.851,391.78a7.129,7.129,0,0,1,5.595,3.615c.364.749-.769,1.291-1.4.749a7.341,7.341,0,0,0-5.007-3.447A6.411,6.411,0,0,1,390.851,391.78Z" transform="translate(-371.197 -200.936)" fill="#fafafa"/>
        <path id="Path_616" data-name="Path 616" d="M392.466,418.423c.42,1.937-.336,2.944-3.049,4.39a16.27,16.27,0,0,1-11.441.736c-4.476-1.2-6.616-3-8.476-3.435s-6.462-.465-8.294-.956-1.8-1.369-1.8-3.409Z" transform="translate(-324.405 -193.955)" fill="#455a64"/>
        <path id="Path_617" data-name="Path 617" d="M361.578,408.13s-.867,2.453-1.4,4.584c-.378,1.7-.909,4.532-.266,5.81s3.161,2.1,6.993,2.079c2.518,0,6.462,1.562,9.147,2.944a15.031,15.031,0,0,0,8.741,1.123c3.469-.374,6.993-2.234,7.609-3.551s.713-2.324-7.455-5.539c-.084,0-9.483-3.228-13.427-7.257Z" transform="translate(-324.776 -196.174)" fill="#ba68c8"/>
        <g id="Group_25" data-name="Group 25" transform="translate(34.836 211.956)" opacity="0.2">
          <path id="Path_618" data-name="Path 618" d="M361.578,408.13s-.867,2.453-1.4,4.584c-.378,1.7-.909,4.532-.266,5.81s3.161,2.1,6.993,2.079c2.518,0,6.462,1.562,9.147,2.944a15.031,15.031,0,0,0,8.741,1.123c3.469-.374,6.993-2.234,7.609-3.551s.713-2.324-7.455-5.539c-.084,0-9.483-3.228-13.427-7.257Z" transform="translate(-359.612 -408.13)"/>
        </g>
        <path id="Path_619" data-name="Path 619" d="M359.454,422.436s.7-6.456,6.392-8.328c5.161-1.679,9.651,1.846,9.161,4.919C374.671,421.08,368.391,425.716,359.454,422.436Z" transform="translate(-306.945 -194.56)" fill="#fafafa"/>
        <path id="Path_620" data-name="Path 620" d="M374.13,413.263a6.9,6.9,0,0,0-3.888,1.6c-1.65,1.291-1.692,2.117-1.692,2.117a.92.92,0,0,1-1,.164.789.789,0,0,1-.484-.823s.378-3.267,5.035-3.874a1.953,1.953,0,0,1,2.028.813Z" transform="translate(-316.67 -194.928)" fill="#fafafa"/>
        <path id="Path_621" data-name="Path 621" d="M376.46,412.2a6.088,6.088,0,0,0-3.93,1.446c-1.636,1.291-1.65,2.285-1.65,2.285a.921.921,0,0,1-1,.164.789.789,0,0,1-.484-.822s.378-3.267,5.035-3.938a1.946,1.946,0,0,1,2.028.865Z" transform="translate(-322.259 -195.25)" fill="#fafafa"/>
        <path id="Path_622" data-name="Path 622" d="M378.955,410.856a6.144,6.144,0,0,0-4.028,1.2c-1.734,1.162-1.818,2.169-1.818,2.169a.926.926,0,0,1-.977.068.781.781,0,0,1-.422-.816s.629-3.241,5.329-3.615a1.936,1.936,0,0,1,1.916.994Z" transform="translate(-327.985 -195.673)" fill="#fafafa"/>
        <path id="Path_623" data-name="Path 623" d="M392.13,393.71v4.39a7.989,7.989,0,0,0,7.693.194c.14-.271.517-4.584.517-4.584Z" transform="translate(-377.944 -200.374)" fill="#ffa8a7"/>
        <path id="Path_624" data-name="Path 624" d="M374.637,405.78v3.28c0,1.188,1.51,2.97,5.455,2.841,2.8-.09,4.7-.788,4.6-2.892v-3.034Z" transform="translate(-337.836 -196.859)" fill="#ffa8a7"/>
        <path id="Path_625" data-name="Path 625" d="M371.289,381.592c.252-9.271,2.308-13.338,2.308-13.338s-.755-11.44-2.434-25.45c-2.532-21.318-1.4-25.45,3.189-35.056,0,0,38.9-3.628,40.071,11.285,1.483,18.581,1.65,56.374,1.119,62.934s-.518.5-2.252,13.79c-1.4,10.51-4.2,38.878-4.2,38.878a11.488,11.488,0,0,1-10.056-.194s-3.175-34.708-2.8-42.287a80.331,80.331,0,0,1,.965-11.621s-4.546-29.943-5.245-34.759c0,0-.629,8.625-1.175,15.185s-.49,11.853-1.986,25.424c-1.175,10.652-4.014,33.649-4.014,33.649a10.3,10.3,0,0,1-8.49-.581S371.079,389.081,371.289,381.592Z" transform="translate(-362.25 -225.52)" fill="#455a64"/>
        <path id="Path_626" data-name="Path 626" d="M392.547,396.453s-.21-5.165-7.721-5.836l-.434.22a6.472,6.472,0,0,1,3.692-2.582,5.369,5.369,0,0,1,5.776,1.537C395.176,391.3,393.847,395.459,392.547,396.453Z" transform="translate(-361.185 -202.045)" fill="#fafafa"/>
        <path id="Path_627" data-name="Path 627" d="M393.905,271.074l-1.832,13.868-13.2-1.1,1.5-15.4Z" transform="translate(-352.964 -236.854)" fill="#ffa8a7"/>
        <path id="Path_628" data-name="Path 628" d="M375.193,280.926c1.4-3.641,4.783-7.463,9.79-6.6,1.4.232,2.49.4,3.734.633.112,3.2,6.644,4.855,13.133,2.918,1.958.516,3.748,1.046,5.371,1.575,4.657,1.537,6.518,8.664,6.63,20.659s1.986,35.805,1.986,35.805-9.791,4.79-28.071,1.73-17.986-8.806-17.986-8.806.364-7,8.616-18.748C371.389,292.908,373.039,286.349,375.193,280.926Z" transform="translate(-362.182 -235.175)" fill="#37474f"/>
        <path id="Path_629" data-name="Path 629" d="M407.934,260.573a10,10,0,0,0-1.007-10.33c-4.434-6.456-12.979-7.528-23.106-5.01-7.24,2.05-12.309,8.072-12.672,15.056-.49,6.856,20.224,11.918,19.763,16.618Z" transform="translate(-357.174 -243.977)" fill="#263238"/>
        <path id="Path_630" data-name="Path 630" d="M369.785,258.85s2.8,4.158,2.42,4.584a7.232,7.232,0,0,1-2.266.839Z" transform="translate(-318.591 -239.646)" fill="#f28f8f"/>
        <path id="Path_631" data-name="Path 631" d="M391.2,248.919c2.8,1.42,7.665,4.054,8.644,13.777,1.007,9.981-1.483,13.377-2.993,14.642-1.021.852-6.14,1.046-8.783.22-3.315-1.046-10.448-4.519-13.693-9.736-3.818-6.146-4.406-14.2.294-17.251A18.388,18.388,0,0,1,391.2,248.919Z" transform="translate(-348.577 -242.898)" fill="#ffa8a7"/>
        <path id="Path_632" data-name="Path 632" d="M373.44,261.565a10.071,10.071,0,0,0,6.867-7.967c1.049-6.34-7.511-9.038-7.511-9.038Z" transform="translate(-330.959 -243.808)" fill="#263238"/>
        <path id="Path_633" data-name="Path 633" d="M406.044,249.877s2.21,9.142-.937,14.8c0,0-1.636-3.577-4.951-2.647s-3.175,5.036-.615,7.179a5.2,5.2,0,0,0,5.105,1.136,20.224,20.224,0,0,1-4.937,6.9s-9.79,4.054-18.378-4.829c-7.734-8.07-6.294-22.131,5.595-25.45S406.044,249.877,406.044,249.877Z" transform="translate(-362.584 -243.392)" fill="#263238"/>
        <path id="Path_634" data-name="Path 634" d="M396.63,284.171h0c7.426,0,13.447-5.553,13.455-12.409V251h0c-7.425,0-13.447,5.553-13.455,12.408Z" transform="translate(-393.983 -241.932)" fill="#263238"/>
        <path id="Path_635" data-name="Path 635" d="M399.472,248.913a2.114,2.114,0,0,1,1.5,2.7l-4.42-1.291a2.195,2.195,0,0,1,1.144-1.266,2.5,2.5,0,0,1,1.779-.142Z" transform="translate(-384.867 -242.57)" fill="#263238"/>
        <path id="Path_636" data-name="Path 636" d="M343.336,298.605c1.916-2.027,2.238-6.456,4.783-9.568s2.1-6.172,3.692-4.79.406,6.456.406,6.456,2.979,5.1,3.231,7.747-7.217,9.155-7.217,9.155Z" transform="translate(-264.812 -232.35)" fill="#ffa8a7"/>
        <path id="Path_637" data-name="Path 637" d="M333.331,289.178s3.035,3.874,16.672-1.188c3.762-1.42,1.217,6.056-3.4,9.155-4.28,2.866-9.623,3.757-13.9,6.456C332.687,303.188,333.331,289.178,333.331,289.178Z" transform="translate(-246.304 -231.212)" fill="#ffa8a7"/>
        <path id="Path_638" data-name="Path 638" d="M349.417,278c3.874,1.291,7.273,2.686,10.909,8.974,4.657,8.083,13.119,23.913,13.119,23.913l10.532-10.562s1.538-2,4.392,2.363,1.594,5.565,1.594,5.565-12.28,15.185-14.532,17.109-5.958.439-8.392-2.582-14.909-23.926-14.909-23.926S343.921,285.618,349.417,278Z" transform="translate(-305.454 -234.07)" fill="#ffa8a7"/>
        <path id="Path_639" data-name="Path 639" d="M364.891,277.55a14.916,14.916,0,0,1,11.832,7.269c4.643,7.747,9.539,16.489,9.539,16.489s-3.371,7.5-11.944,8.07c0-.775-6.993-12.267-9.665-17.186S362.262,279.758,364.891,277.55Z" transform="translate(-322.817 -234.201)" fill="#ba68c8"/>
        <path id="Path_640" data-name="Path 640" d="M399.522,339.7l-.741-7.257a31.364,31.364,0,0,1-11.86-4.145s2.532,3.732,9.455,5.436l1.566,7.089.406,14.074Z" transform="translate(-369.839 -219.422)" fill="#37474f"/>
      </g>
    </g>
  </g>
</svg>
