<svg xmlns="http://www.w3.org/2000/svg" width="234.174" height="195.772" viewBox="0 0 234.174 195.772">
  <g id="human_profile" transform="translate(-0.006 0.006)">
    <path id="Path_340" data-name="Path 340" d="M283.164,211.343c-1.948,9.254-6.027,17.866-13.067,24.029-12.43,10.9-30.926,11.5-47.116,8.014s-31.523-10.423-47.908-12.651c-21.106-2.877-42.362,2.215-63.566,4.286-12.553,1.227-25.932,1.227-36.875-5.04-10.612-6.072-17.45-17.346-20.73-29.127s-3.39-24.178-3.364-36.413c.039-22.99,2.728-50.051,22.483-61.806,8.891-5.286,19.619-6.248,29.406-9.586C119.313,87.3,132.8,74.756,147.479,64.637c4.741-3.247,9.689-6.325,15.119-8.2,15.742-5.455,28.8-.195,43.512,4.377,15.586,4.858,30.705-3.806,46.408-.11,16.385,3.858,26.068,21.431,28.172,38.121s-1.3,33.6-.649,50.422c.539,15.047,4.254,29.874,4.637,44.908A73.632,73.632,0,0,1,283.164,211.343Z" transform="translate(-50.53 -49.514)" fill="#6e3819" opacity="0.815" style="isolation: isolate"/>
    <path id="Path_341" data-name="Path 341" d="M352.519,292.714c-1.948,9.254-6.027,17.866-13.067,24.029L248.37,290.415l9.975-.52,56.871,8.975-53.753-11.462,8.637-1.188Z" transform="translate(-119.885 -130.885)" fill="#400f49"/>
    <path id="Path_342" data-name="Path 342" d="M344.116,140.059l-62.41,2.189c-2.6.091-4.546,1.818-4.546,4.059v67.541a4.32,4.32,0,0,0,4.026,4.078l62.111,4.332a7.468,7.468,0,0,0,8.332-7.2l.247-67.586a7.6,7.6,0,0,0-7.761-7.416Z" transform="translate(-129.978 -79.645)" fill="#ff8946" opacity="0.18" style="isolation: isolate"/>
    <path id="Path_343" data-name="Path 343" d="M96.1,60.141,192.647,74.1a7.04,7.04,0,0,1,6.033,6.968v98.505a7.046,7.046,0,0,1-5.306,6.826L97.6,210.744a12.229,12.229,0,0,1-15.242-11.807L81.9,72.487A12.43,12.43,0,0,1,96.1,60.141Z" transform="translate(-61.525 -51.584)" fill="#fff" opacity="0.54" style="isolation: isolate"/>
    <g id="Group_14" data-name="Group 14" transform="translate(13.562 -0.006)" style="isolation: isolate">
      <path id="Path_344" data-name="Path 344" d="M86.555,215.009A14.684,14.684,0,0,1,71.91,200.378l-.5-138.4a14.9,14.9,0,0,1,17.028-14.8L194.1,62.458a9.053,9.053,0,0,1,7.715,8.917V179.18a9,9,0,0,1-6.787,8.754L90.2,214.561a14.938,14.938,0,0,1-3.65.448ZM86.3,49.606A12.287,12.287,0,0,0,74.008,61.945l.5,138.393a12.079,12.079,0,0,0,15.06,11.69L194.386,185.4a6.41,6.41,0,0,0,4.832-6.215V71.382a6.442,6.442,0,0,0-5.494-6.345L88.068,49.749a12.5,12.5,0,0,0-1.766-.143Z" transform="translate(-71.41 -47.024)" fill="#400f49"/>
    </g>
    <path id="Path_345" data-name="Path 345" d="M118.662,80.51h53.461V126.2L118,136.1Z" transform="translate(-41.365 -28.227)" fill="#400f49" opacity="0.493" style="isolation: isolate"/>
    <path id="Path_346" data-name="Path 346" d="M249.207,156.589c-2.357,1.63-2.942,4.806-3.325,7.644-.494,3.65-.974,7.475.318,10.923,6.02-2.1,10.443-7.144,14.58-12.021a6.618,6.618,0,0,0,1.734-2.994,5.066,5.066,0,0,0-.786-3.247c-1.188-2.111-3.039-3.754-4.7-5.514-5.2-5.546-8.754-12.443-12.157-19.256-.325-.649-2.059,1.546-2.169,1.779a9.028,9.028,0,0,0-.494,3.7,17.107,17.107,0,0,0,.649,5.845A87.607,87.607,0,0,0,249.207,156.589Z" transform="translate(-117.714 -76.822)" fill="#ff8946" opacity="0.18" style="isolation: isolate"/>
    <path id="Path_347" data-name="Path 347" d="M227.485,171.885c-2.955-1.468-5.65-3.41-8.527-5.027-.981-.546-2.2-1.059-3.163-.507a2.36,2.36,0,0,0-.649,3.013,6.774,6.774,0,0,0,2.39,2.364l5.319,3.747A24.067,24.067,0,0,0,226.1,177.5a24.927,24.927,0,0,0,4.546,1.552l2.507.649c1.468.4,3.1.786,4.455.084a3.163,3.163,0,0,0,1.669-2.935c-.175-2.682-2.383-2.773-4.39-2.89A18.976,18.976,0,0,1,227.485,171.885Z" transform="translate(-108.144 -88.78)" fill="#ff8946" opacity="0.18" style="isolation: isolate"/>
    <path id="Path_348" data-name="Path 348" d="M265.912,282.24a3.02,3.02,0,0,0-1.39,1.3.65.65,0,0,0-.058.409.753.753,0,0,0,.494.422,9,9,0,0,0,4.981.208,27.329,27.329,0,0,1,4.994-.727.948.948,0,0,0,.8-.221.863.863,0,0,0,.149-.526,10.027,10.027,0,0,0-.747-4.273c.039.084-4.416.26-4.8.526-.708.487-1.3,1.111-2.052,1.565S266.7,281.791,265.912,282.24Z" transform="translate(-125.523 -128.294)" fill="#400f49"/>
    <path id="Path_349" data-name="Path 349" d="M269.925,233.005s.487,12.761,1.948,19.95,1.585,9.021,1.585,9.021h-4.026s-6.215-20.353-7.793-24.99-2.318-7.676-2.318-7.676Z" transform="translate(-123.723 -110.934)" fill="#400f49"/>
    <path id="Path_350" data-name="Path 350" d="M253.11,228.06s.649,16.093,1.6,25.419.929,11.514.929,11.514,3.656,1.1,4.754,0l1.825-26.328.922-6.494Z" transform="translate(-121.546 -110.496)" fill="#400f49"/>
    <path id="Path_351" data-name="Path 351" d="M222.222,156.6c-.143-.838-.13-1.708-.2-2.559a1.9,1.9,0,0,0-.26-.948.734.734,0,0,0-.87-.286c-.377.188-.39.714-.383,1.143s-.1.974-.52,1.052a.7.7,0,0,1-.455-.1,1.5,1.5,0,0,1-.792-1.117c-.039-.279,0-.565-.052-.844-.162-.812-1.2-.649-1.689-.253a3.183,3.183,0,0,0-.649.968,6.825,6.825,0,0,0-.76,1.948c-.513,2.8,2.857,3.4,4.28,5.2a5.883,5.883,0,0,0,.649.786,1.786,1.786,0,0,0,2.942-1.059c.162-1.046-.6-1.948-.968-2.974a5.2,5.2,0,0,1-.273-.955Z" transform="translate(-108.375 -83.96)" fill="#400f49"/>
    <path id="Path_352" data-name="Path 352" d="M248.516,134.968a4.338,4.338,0,0,0-2.241-2.559,1.071,1.071,0,0,0-.747-.078.9.9,0,0,0-.513.942,2.5,2.5,0,0,0,.429,1.059,1.526,1.526,0,0,1,.266.649.507.507,0,0,1-.364.559c-.208.032-.435-.11-.649,0a.383.383,0,0,0-.136.481.974.974,0,0,0,.383.377,10.187,10.187,0,0,1,1.3.792c.74.649.974,1.7,1.526,2.52a.429.429,0,0,0,.221.195.37.37,0,0,0,.234-.039A1.779,1.779,0,0,0,249.406,138a16.555,16.555,0,0,0-.89-3.033Z" transform="translate(-118.537 -76.924)" fill="#400f49"/>
    <path id="Path_353" data-name="Path 353" d="M257.753,148.3a10.873,10.873,0,0,1-1.611-2.072l-4.858-7.4-3.643,3.708a.9.9,0,0,0-.292.442.955.955,0,0,0,.149.584l2.65,5.124a13.988,13.988,0,0,0,1.156,1.948,21.271,21.271,0,0,0,1.513,1.65c1.792,1.864,3.247,4.091,5.468,5.455a1.344,1.344,0,0,0,.649.24,1.448,1.448,0,0,0,.753-.234c1.76-.929,5.15-2.435,4.02-4.975C262.662,150.471,259.461,149.9,257.753,148.3Z" transform="translate(-119.526 -79.211)" fill="#400f49"/>
    <path id="Path_355" data-name="Path 355" d="M253.578,142.8a3.6,3.6,0,0,1-.344-2.6,2.929,2.929,0,0,1,.994.942c2.37,3.085,4.3,6.592,7.332,9.034a6.37,6.37,0,0,1,1.052.948c.565.7.61,2.318-.649,2.286-.9,0-1.948-1.351-2.533-1.948a26.841,26.841,0,0,1-5.845-8.7Z" transform="translate(-121.553 -79.695)" fill="#ff8946" opacity="0.1"/>
    <path id="Path_356" data-name="Path 356" d="M262.95,145.275a2.662,2.662,0,0,1-.649,1.468,2.726,2.726,0,0,0-.305,2.851,4.241,4.241,0,0,0,1.948,1.3c.714.331,1.468.877,1.507,1.663,0,.429-.143.955.195,1.227a.948.948,0,0,0,.565.149,31.071,31.071,0,0,0,3.39,0,1.2,1.2,0,0,0,.565-.117,1.416,1.416,0,0,0,.455-.929c.383-1.578,1.6-2.806,2.26-4.293a6.494,6.494,0,0,0-.864-6.585,1.9,1.9,0,0,0-.688-.578,2.111,2.111,0,0,0-.831-.1c-1.572,0-3.286,0-4.611.909C264.749,143.061,262.865,143.8,262.95,145.275Z" transform="translate(-124.561 -80.088)" fill="#400f49"/>
    <path id="Path_357" data-name="Path 357" d="M268.528,138.758a1.624,1.624,0,0,0,1.786,1.4c-.175.286.195.61.52.649s.734.084.9.377c.071.13.071.292.156.422s.37.26.5.448a.87.87,0,0,1,0,.74l-.571,1.792a.688.688,0,0,1,1.124-.091.961.961,0,0,1-.227,1.188,6.325,6.325,0,0,1-1.111.708c.279.61,1.3.61,1.487,1.253a1.3,1.3,0,0,1,0,.584l-.37,1.7a2.6,2.6,0,0,0,1.3-.4l.078.591c.143-.26.649-.091.6.208a20.23,20.23,0,0,0,4.637-4.416,1.227,1.227,0,0,0,.351-.844,3.6,3.6,0,0,0-.117-.455,2.144,2.144,0,0,1,.078-.857,3.812,3.812,0,0,0-.383-2.793c-.649-1.033-1.909-1.487-3.013-2.013a15.983,15.983,0,0,1-3.864-2.559c-.565-.507-.552,0-1.013.156s-.805-.1-1.221.084C269.366,136.979,268.456,137.921,268.528,138.758Z" transform="translate(-126.95 -78.279)" fill="#400f49"/>
    <path id="Path_358" data-name="Path 358" d="M261.3,176.406c.11,4.241.435,8.482.377,12.722a140.333,140.333,0,0,1-1.857,18.262,1.228,1.228,0,0,1-.344.825,1.2,1.2,0,0,1-.649.182,29.99,29.99,0,0,1-6.942-.429,48.39,48.39,0,0,1-8.6-2.435c-2.182-.812-4.637-2.13-4.9-4.442a6.579,6.579,0,0,1,.156-1.948c.9-4.916,1.643-9.891,2.6-14.781l.6-3.091c.117-.591.234-1.188.4-1.766.2-.708.474-1.4.74-2.078.565-1.422,1.124-2.851,1.689-4.273l.039-.091c-5.273,2.2-11.885-.058-16.651-2.6-2.13-1.143-4.28-2.734-4.9-5.079a2.241,2.241,0,0,1,0-1.338,2.7,2.7,0,0,1,.585-.851,23.6,23.6,0,0,1,1.818-1.786,2.085,2.085,0,0,1,.779-.5c.792-.227,1.526.442,2.124,1.02a17.242,17.242,0,0,0,12.989,4.734,9.989,9.989,0,0,0,3.767-.9,14.191,14.191,0,0,0,2.877-2.059,19.89,19.89,0,0,0,3.189-3.169,2.435,2.435,0,0,1,.708-.747,2.2,2.2,0,0,1,1.007-.2c1.39-.058,2.909-.331,4.28-.279s1.948.929,2.786,1.948a9.9,9.9,0,0,1,1.909,3.072c.649,1.948,0,4.02-.279,6.033a34.5,34.5,0,0,0-.292,6.046Z" transform="translate(-110.974 -86.391)" fill="#400f49"/>
    <path id="Path_360" data-name="Path 360" d="M249.045,287.573a3.007,3.007,0,0,0-1.39,1.3.649.649,0,0,0-.052.409.74.74,0,0,0,.487.422,9.027,9.027,0,0,0,4.962.195,27.184,27.184,0,0,1,4.988-.727.961.961,0,0,0,.805-.221.857.857,0,0,0,.143-.526,10.137,10.137,0,0,0-.74-4.273c0,.091-4.423.26-4.806.526-.708.487-1.3,1.111-2.052,1.572S249.8,287.118,249.045,287.573Z" transform="translate(-119.612 -130.159)" fill="#400f49"/>
    <path id="Path_361" data-name="Path 361" d="M132.667,117.242l2.909,19.795a27.573,27.573,0,0,1,.6,6.436c-.208,2.091-.649,4.137-.961,6.183a3.552,3.552,0,0,0,1.208-1.734c.747,1.727.123,3.7.058,5.585a1.26,1.26,0,0,0,.1.649.877.877,0,0,0,1.111.273,2.247,2.247,0,0,0,.89-.87,11.625,11.625,0,0,0,1.779-4.468c.312-1.76-.344-2.474-.857-3.968-.474-1.39,0-3.189.195-4.6a50.292,50.292,0,0,0-.195-11.813c-.214-1.948-.474-3.851-.734-5.78l-.448-3.364-1.111-8.248c-.3-2.221-.552-4.663-2.026-6.494-1.3-1.585-3.364-2.078-5.085-3.013-1.3-.714-3.9-1.3-4.072-3.1a4.176,4.176,0,0,1,.649-2.143,18.34,18.34,0,0,0,1.818-9.28c-.175-2.6-.773-6.1-2.656-8.059a5.481,5.481,0,0,0-5.364-1.591,6.092,6.092,0,0,0-3.747,3.968,15.106,15.106,0,0,0-.546,5.611,24.029,24.029,0,0,0,.9,6.118c.487,1.559,2.065,3.176,1.753,4.877-.279,1.507-1.825,2.013-3.046,2.52a14.4,14.4,0,0,0-4.221,2.6,11.274,11.274,0,0,0-2.6,4.176,29.28,29.28,0,0,0-1.643,8.819c-.279,3.539-.773,7.079-1.162,10.605a30.814,30.814,0,0,0-.24,3.28c0,2.637.649,5.234.883,7.865a23.38,23.38,0,0,1-.286,7.144c-.162.727-.331,1.455-.429,2.189a10.5,10.5,0,0,0,.11,3.52,5.384,5.384,0,0,0,1.3,2.643,1.689,1.689,0,0,0,.649.468.812.812,0,0,0,.786-.143,1.24,1.24,0,0,0,.279-.844,21.069,21.069,0,0,0,0-3.15c0-.279,0-.649.24-.747l.305.857c.065.182.182.4.37.4s.279-.182.338-.344c.52-1.494-.331-3.189-.461-4.676-.162-1.714.649-3.41,1.078-5.046.649-2.741.344-5.6.351-8.443a50.208,50.208,0,0,1,.649-7.514c.188-1.247.409-2.487.649-3.721.162-.864.708-2.176.357-3.013.494,4.721,1.1,9.436,1.643,14.151a37.816,37.816,0,0,1,.364,7.891c-.481,4.929-1.682,9.41-1.591,14.45.1,5.468.747,10.923.559,16.4-.208,5.767-1.338,11.573-.429,17.275.87,5.41,3.552,10.93,1.8,16.125a5.287,5.287,0,0,0-.357,1.364,2.788,2.788,0,0,0,2.1,2.6,8.235,8.235,0,0,0,3.585.084c1.117-.136,2.37-.351,3-1.3,1.175-1.74-.734-3.793-1.162-5.455a38.535,38.535,0,0,1-.909-6.494c-.266-3.682-.364-7.378-.383-11.04,0-3.468.357-7.144-.058-10.54a28.36,28.36,0,0,1,.649-9.839c.234-1.013.507-2.013.8-3.007.214-.74.344-2.124.922-2.669a12.079,12.079,0,0,1,1.3,4.449,80.188,80.188,0,0,1,.6,9.4c.117,3.247.234,6.494.539,9.741.572,6.111,1.792,12.3.578,18.314-.247,1.247-.591,2.6-.032,3.728a3.442,3.442,0,0,0,3.338,1.676,8.54,8.54,0,0,0,3.682-1.357,2.149,2.149,0,0,0,.916-.766c.364-.721-.117-1.565-.513-2.267-2.351-4.143-2.215-9.228-1.455-13.93s2.1-9.365,1.916-14.125a65.234,65.234,0,0,0-1.1-7.9c-.974-6.007-.429-11.69-.507-17.658-.071-5.046-1.149-10.008-1.747-15.015a30.361,30.361,0,0,1,1.526-14.7Z" transform="translate(-69.949 -57.704)" fill="#400f49" opacity="0.493" style="isolation: isolate"/>
    <g id="Group_15" data-name="Group 15" transform="translate(76.531 29.942)" opacity="0.18" style="isolation: isolate">
      <path id="Path_362" data-name="Path 362" d="M185.619,106.687a6.442,6.442,0,0,1-4.643-2.6,23.281,23.281,0,0,1-1.611-2.357A18,18,0,0,0,177.417,99a9.04,9.04,0,0,0-8.871-2.539l-.175-.649a9.741,9.741,0,0,1,9.521,2.721,18.677,18.677,0,0,1,2.013,2.825,24.109,24.109,0,0,0,1.559,2.292c1.124,1.377,3.117,2.786,5.053,2.215a5.637,5.637,0,0,0,2.6-2.091,34.448,34.448,0,0,0,2.318-3.611,23.627,23.627,0,0,1,3.6-5.079,5.947,5.947,0,0,1,4.059-1.948,5.319,5.319,0,0,1,3.15,1.377,19.133,19.133,0,0,1,3.364,4.059c.565.831,1.15,1.682,1.792,2.455,1.559,1.877,4.28,3.741,6.826,2.812,1.721-.649,2.747-2.273,3.838-4.007s2.331-3.728,4.423-4.306l.169.649c-1.844.507-2.916,2.215-4.046,4.02s-2.228,3.565-4.163,4.267c-2.857,1.046-5.845-.961-7.546-3-.649-.792-1.253-1.663-1.831-2.507a18.49,18.49,0,0,0-3.247-3.9,4.689,4.689,0,0,0-2.754-1.227,5.151,5.151,0,0,0-3.585,1.734,23.212,23.212,0,0,0-3.494,4.942,34.036,34.036,0,0,1-2.364,3.682,6.234,6.234,0,0,1-2.948,2.318A3.954,3.954,0,0,1,185.619,106.687Z" transform="translate(-168.37 -93.139)" fill="#ff8946"/>
    </g>
    <path id="Path_363" data-name="Path 363" d="M169.565,108.175l-.065-.649a16.547,16.547,0,0,0,5.442-1.487,7.462,7.462,0,0,0,2.4-1.617,9.975,9.975,0,0,0,1.461-2.331c.156-.3.305-.6.474-.9,1.3-2.364,3.988-5.046,7.261-4.786a8.35,8.35,0,0,1,5.436,3.247c.649.773,1.253,1.617,1.825,2.429a28.932,28.932,0,0,0,1.948,2.533,4.793,4.793,0,0,0,2.033,1.526c1.546.494,3.15-.487,4.052-1.474a14.476,14.476,0,0,0,1.851-2.793c.247-.442.494-.883.76-1.3a6.644,6.644,0,0,1,3.819-3.3,6.111,6.111,0,0,1,3.825.422,11.4,11.4,0,0,1,3.637,2.338c.338.331.649.649.974,1.02a14.217,14.217,0,0,0,1.474,1.461,3.65,3.65,0,0,0,2.955.9l.136.649a4.293,4.293,0,0,1-3.52-1.072,14.869,14.869,0,0,1-1.546-1.52c-.305-.338-.649-.649-.948-.994a10.794,10.794,0,0,0-3.422-2.208,5.559,5.559,0,0,0-3.423-.4,6.013,6.013,0,0,0-3.429,3.02c-.26.422-.5.851-.74,1.3a15.586,15.586,0,0,1-1.948,2.916c-1.033,1.13-2.89,2.241-4.734,1.65a5.468,5.468,0,0,1-2.325-1.714,30.76,30.76,0,0,1-1.948-2.6c-.565-.805-1.15-1.63-1.792-2.383a7.713,7.713,0,0,0-4.994-2.994c-2.981-.214-5.429,2.254-6.644,4.455-.156.286-.312.584-.461.883a10.47,10.47,0,0,1-1.559,2.468,8.073,8.073,0,0,1-2.6,1.773A17.366,17.366,0,0,1,169.565,108.175Z" transform="translate(-92.235 -64.334)" fill="#400f49"/>
    <path id="Path_364" data-name="Path 364" d="M260.213,214.3a48.389,48.389,0,0,1-8.6-2.435c-2.182-.812-4.637-2.13-4.9-4.442a6.579,6.579,0,0,1,.156-1.948c.9-4.916,1.643-9.891,2.6-14.781l.6-3.091c.117-.591.234-1.188.4-1.766.2-.708.474-1.4.74-2.078.565-1.422,1.124-2.851,1.689-4.273a21.208,21.208,0,0,0,5.955-2.117,221.6,221.6,0,0,1-4.5,21.944c-.916,3.552-1.779,7.793.649,10.514C256.544,211.549,259.232,212.465,260.213,214.3Z" transform="translate(-119.298 -92.725)" fill="#400f49"/>
    <path id="Path_365" data-name="Path 365" d="M303.171,130.916H266.42V61.284l36.751-2.234Z" transform="translate(-93.397 -20.703)" fill="#fff" opacity="0.41" style="isolation: isolate"/>
    <path id="Path_366" data-name="Path 366" d="M233.544,169.583c-2.968-1.059-5.988-2.111-8.358-4.241a1.3,1.3,0,0,1-.526-.818,1.4,1.4,0,0,1,.591-1.013,6.437,6.437,0,0,1,1.429-1.085,2.156,2.156,0,0,1,1.74-.149,3.65,3.65,0,0,1,1.052.792,15.762,15.762,0,0,0,7.748,3.806,14.953,14.953,0,0,0,8.592-.429c1.565-.649,4.942-4.728,6.494-4.13s.851,3.637.11,4.546c-1.591,2.033-5.624,2.987-8.033,3.448A20.7,20.7,0,0,1,233.544,169.583Z" transform="translate(-111.573 -87.393)" fill="#400f49"/>
    <path id="Path_367" data-name="Path 367" d="M271.557,162.282a2.656,2.656,0,0,0,1.416-1.682,8.176,8.176,0,0,0-2.487-.123l-2.37.123-1.565.084c-.974.045-.994.474-.649,1.143.169.318.6.578.805.909s.221.714.435.968c.649.747.792.325,1.591-.156S270.654,162.749,271.557,162.282Z" transform="translate(-125.959 -86.788)" fill="#400f49"/>
  </g>
</svg>
