<svg id="instagram-sketched" xmlns="http://www.w3.org/2000/svg" width="53.147" height="53.147" viewBox="0 0 53.147 53.147">
  <path id="Path_879" data-name="Path 879" d="M217.173,212.086A5.086,5.086,0,1,1,212.086,207,5.086,5.086,0,0,1,217.173,212.086Zm0,0" transform="translate(-185.513 -185.513)" fill="#fff"/>
  <path id="Path_880" data-name="Path 880" d="M159.89,139a5.053,5.053,0,0,0-2.9-2.9,8.443,8.443,0,0,0-2.833-.525c-1.609-.073-2.092-.089-6.166-.089s-4.557.015-6.166.089A8.448,8.448,0,0,0,139,136.1a5.055,5.055,0,0,0-2.9,2.9,8.445,8.445,0,0,0-.525,2.834c-.073,1.609-.089,2.091-.089,6.166s.016,4.557.089,6.166A8.442,8.442,0,0,0,136.1,157a5.053,5.053,0,0,0,2.9,2.9,8.432,8.432,0,0,0,2.834.525c1.609.073,2.091.089,6.166.089s4.558-.015,6.166-.089a8.432,8.432,0,0,0,2.834-.525,5.053,5.053,0,0,0,2.9-2.9,8.45,8.45,0,0,0,.526-2.833c.073-1.609.089-2.092.089-6.166s-.015-4.557-.089-6.166A8.432,8.432,0,0,0,159.89,139Zm-11.9,16.835A7.836,7.836,0,1,1,155.83,148,7.836,7.836,0,0,1,147.994,155.833Zm8.145-14.15a1.831,1.831,0,1,1,1.831-1.831A1.831,1.831,0,0,1,156.14,141.684Zm0,0" transform="translate(-121.421 -121.424)" fill="#fff"/>
  <path id="Path_881" data-name="Path 881" d="M26.574,0A26.574,26.574,0,1,0,53.147,26.574,26.577,26.577,0,0,0,26.574,0ZM41.741,32.865a11.2,11.2,0,0,1-.709,3.7,7.8,7.8,0,0,1-4.463,4.463,11.2,11.2,0,0,1-3.7.709c-1.627.074-2.147.092-6.291.092s-4.664-.018-6.291-.092a11.2,11.2,0,0,1-3.7-.709,7.8,7.8,0,0,1-4.463-4.463,11.193,11.193,0,0,1-.709-3.7c-.075-1.628-.092-2.147-.092-6.291s.017-4.664.092-6.291a11.2,11.2,0,0,1,.709-3.7,7.808,7.808,0,0,1,4.463-4.463,11.206,11.206,0,0,1,3.7-.709c1.627-.074,2.147-.092,6.291-.092s4.664.018,6.291.092a11.208,11.208,0,0,1,3.7.708,7.8,7.8,0,0,1,4.463,4.463,11.194,11.194,0,0,1,.71,3.7c.074,1.627.092,2.147.092,6.291S41.815,31.238,41.741,32.865Zm0,0" fill="#fff"/>
</svg>
