<svg id="linkedin-icon" xmlns="http://www.w3.org/2000/svg" width="53.294" height="53.294" viewBox="0 0 53.294 53.294">
  <path id="Path_882" data-name="Path 882" d="M26.647,0A26.647,26.647,0,1,0,53.294,26.647,26.637,26.637,0,0,0,26.647,0Zm-7.03,39.757H13.252V20.615h6.365ZM16.435,18.05h0a3.335,3.335,0,1,1,.047-6.65,3.335,3.335,0,1,1-.047,6.65ZM42.559,39.757H36.194V29.544c0-2.565-.9-4.322-3.23-4.322a3.521,3.521,0,0,0-3.277,2.327,4.065,4.065,0,0,0-.19,1.567V39.8H23.132s.095-17.337,0-19.142H29.5v2.707a6.411,6.411,0,0,1,5.747-3.182c4.18,0,7.315,2.707,7.315,8.6Z" fill="#fff"/>
  <path id="Path_883" data-name="Path 883" d="M62.047,49.2v.047H62Z" transform="translate(-32.551 -25.831)" fill="#fff"/>
</svg>
